<svg width="357" height="114" viewBox="0 0 357 114" fill="none" xmlns="http://www.w3.org/2000/svg">
<g clip-path="url(#clip0_894_4501)">
<path d="M356.088 29.8141C355.205 32.2075 351.029 33.8963 347.995 33.8963C347.43 33.8963 346.781 33.8517 346.131 33.7667C345.655 33.1147 345.179 32.6813 344.832 32.4181C348.245 30.3203 352.59 24.8937 352.59 24.8937C354.886 21.8483 356.145 17.4989 352.635 16.6727C349.903 16.0207 347.434 17.8472 345.006 21.5891C343.392 23.9177 340.628 30.7699 340.628 30.7699L339.588 32.9891C338.591 35.1193 337.639 37.2535 336.683 39.4282C336.683 39.4282 335.642 41.9512 335.295 43.4293C335.295 43.5144 333.504 49.7712 336.638 51.217C337.167 51.46 337.72 51.63 338.284 51.6098C342.287 51.46 345.478 45.3449 345.478 45.3449C346.519 43.6926 346.995 41.3437 346.995 41.3437C347.168 40.473 347.257 39.6914 347.297 39.0394C347.342 38.432 347.342 37.865 347.297 37.3871C351.069 36.7351 353.93 34.9492 356.439 32.167C357.391 31.1222 357.008 29.8587 356.08 29.8263L356.088 29.8141ZM345.53 28.2388C346.224 26.8457 347.221 24.9747 347.826 23.8894C347.999 23.5856 348.173 23.2819 348.346 23.0632C348.346 23.0632 349.778 20.6253 350.86 20.844C351.683 21.0181 351.683 22.1034 350.424 23.9339C349.383 25.4121 348.128 26.9793 346.696 28.2388C346.349 28.5425 345.74 29.0649 345.526 28.8908C345.308 28.7166 345.526 28.2388 345.526 28.2388H345.53ZM343.19 43.4212C342.234 44.8994 341.242 45.9807 340.548 45.9888C337.776 46.0131 342.02 37.5491 342.02 37.5491C342.625 37.5937 343.582 37.6787 344.752 37.6342C344.752 37.6342 345.074 39.6145 343.19 43.4212Z" fill="currentColor"/>
<path d="M14.314 49.099C12.3695 47.2158 11.8813 45.9604 11.8813 41.3559V28.9434H20.3576C25.8444 28.9434 28.4183 29.64 29.8747 31.4543H30.2903V20.0178H29.8747C28.4183 21.901 25.8444 22.5975 20.3576 22.5975H11.8813V7.32192H22.0238C28.2085 7.32192 31.0568 8.2979 32.7916 10.671H33.2071V0.975983H0V1.32426C1.59762 3.13854 2.08578 4.4628 2.08578 8.92561V41.3559C2.08578 45.9604 1.60166 47.2158 0 49.099V49.4472H14.314V49.099Z" fill="currentColor"/>
<path d="M76.8674 14.0161C76.8674 5.99765 69.7104 0.975983 58.874 0.975983H40.6708V1.32426C42.4782 3.83509 42.7566 6.76305 42.7566 11.2988V38.7762C42.7566 43.8667 42.341 46.5881 40.6708 49.099V49.4472H54.5652V49.099C52.899 46.5881 52.4795 43.8667 52.4795 38.7762V27.688H56.0903L72.4175 49.4472H84.5045V49.3096L66.3699 26.2949C72.9016 24.3429 76.8634 19.8801 76.8634 14.0202L76.8674 14.0161ZM57.4821 21.5486H52.4795V7.11538H57.6193C63.0375 7.11538 66.7209 9.34678 66.7209 14.089C66.7209 18.8313 63.2473 21.5527 57.4781 21.5527L57.4821 21.5486Z" fill="currentColor"/>
<path d="M103.224 49.099C101.558 46.5881 101.138 43.8667 101.138 38.9868V11.3676C101.138 6.48767 101.554 3.83509 103.224 1.32426V0.975983H89.2611V1.32426C90.8587 3.83509 91.3469 6.48362 91.3469 11.3676V38.9868C91.3469 43.8667 90.8628 46.5881 89.2611 49.099V49.4472H103.224V49.099Z" fill="currentColor"/>
<path d="M150.814 38.7762H150.398C148.244 42.263 145.186 43.1013 139.768 43.1013H126.43V28.2469H135.81C141.228 28.2469 143.588 29.0852 145.259 30.7577H145.674V19.3213H145.259C143.451 20.9938 141.369 21.901 135.81 21.901H126.43V7.32192H138.658C144.77 7.32192 147.344 8.2979 149.358 10.671H149.773V0.975983H114.549V1.32426C116.146 3.76625 116.634 6.55652 116.634 11.2988V38.6385C116.634 43.7979 116.219 46.5881 114.549 49.099V49.4472H150.818V38.7762H150.814Z" fill="currentColor"/>
<path d="M201.276 11.647C201.276 6.90479 201.623 3.62856 203.362 1.32426V0.975983H191.9V1.32426C193.566 3.62451 193.986 6.90479 193.986 11.647V35.8482H193.57L173.624 0.975983H159.242V1.18657L161.049 3.90799V38.6385C161.049 43.3807 160.634 46.7987 158.963 49.099V49.4472H170.425V49.099C168.69 46.7987 168.339 43.3807 168.339 38.6385V11.4364H168.755L190.779 49.4432H201.268V11.647H201.276Z" fill="currentColor"/>
<path d="M231.595 0.975983H212.976V1.32426C214.715 3.76625 215.062 6.69421 215.062 11.2988V38.6385C215.062 43.729 214.783 46.5881 212.976 49.099V49.4472H231.595C248.132 49.4472 258.411 39.8939 258.411 25.1772C258.411 10.4605 248.128 0.975983 231.595 0.975983ZM229.65 43.3078H224.857V7.11538H229.65C240.281 7.11538 247.785 11.8576 247.785 25.1772C247.785 38.4968 240.281 43.3078 229.65 43.3078Z" fill="currentColor"/>
<path d="M296.996 35.3582C296.996 29.4983 293.801 25.3878 288.036 22.7352L281.367 19.6655C277.478 17.8512 275.67 15.8993 275.67 13.0401C275.67 8.71503 279.354 6.48362 283.868 6.48362C288.383 6.48362 292.76 8.78387 295.261 12.8984H295.677V3.20739C292.829 1.32426 288.383 0 283.59 0C273.585 0 266.149 6.41478 266.149 15.065C266.149 20.7144 269.345 25.1083 275.529 27.9675L281.714 30.8266C285.256 32.4303 287.411 34.2445 287.411 37.4519C287.411 41.9836 283.102 43.8667 279.071 43.8667C274.416 43.8667 269.207 41.3559 265.524 35.7753H265.108V45.681C269.139 48.6778 274.141 50.4232 279.491 50.4232C289.218 50.4232 297 44.3567 297 35.3582H296.996Z" fill="currentColor"/>
<path d="M355.947 5.81137C355.58 4.82324 354.838 4.21173 353.894 4.02544C353.772 4.02544 353.567 4.02544 353.522 4.11858C353.482 4.21173 353.522 4.40206 353.563 4.5438C353.684 4.96498 353.728 5.3416 353.643 5.81137C353.357 7.45556 351.711 9.29009 350.396 9.9502C349.367 10.4686 348.302 10.8452 347.233 11.1246C345.135 11.6875 343.001 11.6875 340.903 11.643C340.576 11.643 340.366 11.4567 340.285 11.1246L340.039 10.1851C338.89 6.70636 337.699 4.5843 334.779 2.84697C332.003 1.19872 328.408 2.00057 327.093 2.42174C325.572 2.89151 324.257 3.83105 322.942 4.81919C321.3 6.0422 318.504 10.6022 318.012 13.0037C317.931 13.6152 317.765 14.1781 317.644 14.7896C317.644 14.8828 317.56 14.9314 317.519 14.9759C316.039 15.7737 313.408 17.7054 312.343 19.1633C308.89 23.9582 307.865 27.2061 307.865 33.224C307.825 35.0099 308.236 36.7027 308.769 38.351C309.221 39.9952 310.165 41.3113 311.109 42.6315C311.932 43.806 313.082 44.4661 314.191 45.2193C315.631 46.2075 318.302 46.6772 319.904 46.7704C321.219 46.8635 322.494 46.6286 323.765 46.252C327.218 45.2193 330.381 42.7247 332.64 39.6226C333.298 38.7276 333.996 37.8812 334.532 36.9903C335.888 34.7346 337.123 32.3817 337.942 29.7939L338.684 27.441C339.503 24.7601 340.12 22.0791 340.411 19.2565L340.616 17.3288C340.657 16.8104 340.822 16.6687 341.234 16.6242L343.864 16.531L347.89 16.3893C351.053 16.0126 353.518 15.1177 355.41 12.0156C355.697 11.5458 355.983 11.1206 356.149 10.6508C356.726 9.00661 356.52 7.40697 355.943 5.80732L355.947 5.81137ZM322.821 12.4894C324.463 8.77577 326.56 6.79951 330.22 6.65776C332.192 6.65776 334.165 7.36242 335.194 9.43183C335.481 9.99475 335.852 10.5131 335.973 11.1246C336.094 11.7361 336.013 11.8779 335.481 11.8779H332.358C329.356 11.8779 326.234 12.0196 323.317 13.0523C323.196 13.1454 322.946 13.1454 322.865 13.0523C322.74 12.9106 322.74 12.6311 322.825 12.4894H322.821ZM336.138 20.6698C335.767 22.1763 335.4 23.7274 334.988 25.1853C333.508 30.4985 328.126 39.574 322.7 40.141C321.63 40.2341 320.521 40.4244 319.452 40.2341C318.919 40.141 318.427 39.9506 317.891 39.7643C315.385 39.1042 313.739 36.0507 313.082 33.4144C312.755 32.0496 311.758 23.8367 317.56 20.763C317.6 20.9979 317.681 21.1842 317.681 21.4231C317.802 23.9177 318.915 25.5133 320.23 27.3479C321.094 28.5709 322.369 29.1338 323.724 29.3241C324.999 29.5104 327.25 29.0609 328.654 26.8781C329.276 25.9183 329.848 23.1321 329.025 22.7879C328.985 22.7393 328.86 22.881 328.779 22.9741C327.997 23.8691 327.424 24.2417 326.274 24.2417C324.136 24.2417 323.232 22.8769 322.534 20.8075C322.248 20.0097 322.163 19.2079 322.207 18.3615C322.207 17.3734 323.523 17.1385 324.18 17.1385L327.468 16.9967C327.468 16.9967 332.975 16.9036 334.536 16.9481C335.029 16.9481 335.521 16.9967 336.017 17.0413C336.304 17.0413 336.388 17.1344 336.388 17.4665C336.429 18.5478 336.348 19.6291 336.142 20.6658L336.138 20.6698Z" fill="currentColor"/>
<path d="M77.6058 95.1525C77.0894 95.0675 76.8069 95.2376 76.4802 95.6547C74.2733 98.4612 71.3605 100.178 67.4189 100.178C65.5389 100.178 63.1465 99.4655 63.1465 97.4568C63.0981 97.2057 63.0537 96.9547 63.0537 96.7441C63.0537 96.493 63.0537 96.2419 63.0981 95.9908C63.0981 95.9058 63.1908 95.7397 63.4289 95.7397H64.8853C65.9665 95.7802 67.0437 95.6992 68.1249 95.4036C68.9237 95.193 69.7225 94.9824 70.4245 94.6058C76.9966 91.0866 75.7298 86.7331 75.0278 85.5992C74.6042 84.5098 73.527 83.9226 72.3973 83.7161C71.8325 83.5905 71.1749 83.5055 70.5657 83.5055C66.0109 83.5055 62.7229 86.9397 60.7984 90.2888C59.81 91.9654 58.874 94.0591 58.636 95.9868C58.5795 96.2541 58.5513 96.5173 58.519 96.7846C57.462 98.2546 55.8402 99.6153 53.944 99.9677C53.1008 100.134 52.536 99.7571 52.4876 98.9633C52.4392 98.4207 52.7256 97.874 52.9596 97.3718C53.5244 96.1569 54.2304 94.9419 54.9324 93.8121C55.7797 92.4311 56.6228 91.0502 57.3732 89.6246C59.2049 86.15 57.6113 84.1373 55.7312 83.6796C55.2148 83.5541 54.6944 83.5136 54.182 83.5136C53.1492 83.5136 52.1164 83.7242 51.2248 84.1818C50.4744 84.5584 49.018 85.8584 48.8768 85.9394C48.784 85.9799 48.6872 85.9799 48.6872 85.8543C48.7356 85.6883 48.78 85.5182 48.8768 85.3927L50.426 82.4607C51.0513 81.27 51.6968 80.0754 52.3464 78.8847C52.7942 78.9657 53.2541 79.0386 53.7181 79.1115L54.5653 79.2371H54.7993C56.1589 79.4031 57.5225 79.4477 58.8821 79.4477C62.8277 79.3626 66.6766 78.2732 68.7422 75.0497C69.5894 73.7497 69.8678 72.2877 69.6782 70.8217C69.1618 66.8408 64.1873 64.2895 60.0521 63.9129C59.6285 63.8724 55.4972 63.3257 51.5556 65.5449C50.2848 66.2577 49.3488 67.3025 48.8808 68.6025C48.6428 69.2302 48.6428 69.8579 49.018 70.4856C49.0664 70.5706 49.2076 70.6962 49.3004 70.6962C49.3932 70.6962 49.5344 70.5706 49.5828 70.4856C50.0548 69.6878 50.7568 69.1046 51.6484 68.728C52.306 68.5174 52.9193 68.2664 53.5728 68.1003C55.2189 67.6791 56.9052 67.6386 58.5997 67.8492C60.6653 68.1854 63.0133 68.9386 63.7153 70.9068C63.9533 71.575 63.9977 72.2472 63.5781 72.8749C63.1061 73.5432 62.4969 74.0494 61.6537 74.2559C61.0405 74.4219 60.3829 74.507 59.7737 74.592C58.3173 74.8026 56.8649 74.6325 55.4045 74.4665C52.5884 74.1304 49.8168 73.5877 47.0976 72.8345C40.8524 71.1174 34.6071 69.6919 28.0311 69.4853C25.4974 69.4003 22.9154 69.5704 20.3778 69.8619C17.5578 70.1981 14.8829 71.0769 12.3493 72.2067C8.5449 73.9238 4.78888 77.5281 3.00567 80.9177C1.40805 84.0158 0.89568 87.1989 1.88007 90.5075C3.28808 95.2416 7.70171 98.2141 13.0997 98.2141C20.0954 98.2141 24.9326 94.0672 26.5746 88.3287C26.9982 86.9032 27.0467 85.4372 26.5746 84.0158C25.5902 81.0433 23.0566 78.6134 18.9658 78.905C17.1826 78.99 15.5849 79.5732 14.415 80.7881C13.2894 81.918 13.0997 83.218 13.3781 84.6394C13.4265 84.8905 13.5677 85.1416 13.7049 85.3522C13.8461 85.6033 14.0801 85.6033 14.2697 85.3522C14.3625 85.2266 14.4553 85.1011 14.5037 84.931C15.2057 83.8011 16.3837 83.2139 17.699 83.2139C18.0257 83.2139 18.4009 83.2544 18.7802 83.3395C20.2366 83.6756 21.8342 84.846 21.5518 87.0247C21.0798 90.5439 17.933 92.9697 13.9429 92.9697C11.0785 92.9697 8.30687 91.6698 7.41527 89.1184C6.89887 87.6119 6.71328 86.0609 7.08848 84.4693C8.0285 80.448 10.7033 77.5159 14.6974 75.5883C16.997 74.4584 19.4378 73.7456 22.0682 73.6606C24.2266 73.5756 28.9227 73.0734 38.7383 75.5437L39.162 75.6693C39.162 76.0459 38.8352 76.1714 38.5971 76.297C36.0151 77.6779 34.6071 79.8162 33.3403 82.161L28.6483 91.042L23.8111 100.3C23.1535 101.555 22.4474 102.815 21.4631 103.945L19.7726 105.662C18.2718 107.128 15.5002 108.132 13.249 108.132C12.7326 108.132 12.2606 108.091 11.7482 107.966C9.11779 107.504 7.28617 105.159 7.89536 102.815C8.22215 101.474 8.97658 100.555 10.3846 100.008C10.5742 99.9231 10.667 99.7976 10.667 99.6315C10.667 99.421 10.5258 99.34 10.3362 99.2954C10.1022 99.2549 9.9166 99.2549 9.67857 99.2549C9.35178 99.2549 8.97658 99.2954 8.64576 99.2954C6.34615 99.3805 3.19932 101.098 2.25931 103.442C1.4605 105.451 1.4605 107.419 2.4933 109.347C4.28054 112.655 8.17374 113.996 12.075 113.996C20.9951 113.996 25.8767 107.881 29.1647 101.349C30.2016 99.2954 37.1932 84.765 38.5084 82.1691C39.2144 80.8286 41.3728 76.6817 43.4384 76.6817C43.628 76.6817 43.9104 76.7222 44.1404 76.8477C44.2332 76.8882 44.33 76.9328 44.4712 76.9733L45.4072 77.2244C46.1173 77.4228 47.2025 77.7346 48.5258 78.0627C48.5258 78.0627 36.5275 101.77 35.9143 102.855C35.9143 102.896 35.3051 103.778 35.0227 104.03C34.7403 104.281 34.6475 104.532 35.6319 104.491C36.6647 104.451 38.7787 104.451 39.1055 104.451H39.5291C39.5291 104.451 40.2795 104.491 40.4651 104.325C40.5579 104.24 40.5135 104.074 40.5579 103.823V103.783C40.5579 103.756 40.574 103.727 40.6063 103.697C40.6063 103.612 40.6063 103.572 40.6547 103.487C41.1267 102.649 41.4535 101.81 41.8287 100.972C42.3895 99.7571 42.9543 98.6272 43.5635 97.4973L46.3351 92.3056C47.3195 90.4224 49.1511 88.0331 51.2167 86.9883C51.6404 86.7777 52.0156 86.6521 52.4835 86.6967C53.1855 86.6967 53.6576 87.0733 53.706 87.701C53.7544 88.2437 53.706 88.7459 53.4236 89.2075L52.4351 90.8841L49.1511 96.1609C48.4491 97.3758 47.8843 98.6312 47.5535 99.9312C47.2711 101.106 47.1339 102.276 47.7915 103.365C48.2152 104.078 48.7759 104.54 49.716 104.665C50.3251 104.75 50.9343 104.706 51.5476 104.625C52.298 104.54 52.9556 104.333 53.5648 103.997C55.5457 102.924 57.2683 101.498 58.6118 99.8381C59.3017 103.045 61.5287 105.297 65.5792 105.297C70.5092 105.297 74.4993 102.28 76.9885 98.6798C77.5533 97.8861 77.8801 97.2989 78.1625 96.4201C78.4005 95.7073 78.4449 95.3712 77.6017 95.1647L77.6058 95.1525ZM64.268 92.4311C64.5504 91.8884 65.208 90.548 65.5832 90.0863C67.1809 88.1586 68.9641 87.1543 69.9 86.9883C71.1225 86.6116 72.6233 87.701 71.1225 89.6246C70.6061 90.2929 69.5733 91.6779 66.7573 92.3056C66.4748 92.3461 65.3008 92.6417 64.6432 92.6417C64.3608 92.6417 64.1752 92.5567 64.268 92.4311Z" fill="currentColor"/>
<path d="M91.1371 64.7876C92.7347 66.6019 93.2229 67.9262 93.2229 72.389V104.819C93.2229 109.424 92.7347 110.679 91.1371 112.562V112.911H105.451V112.562C103.503 110.679 103.018 109.424 103.018 104.819V92.4068H111.495C116.985 92.4068 119.555 93.1034 121.012 94.9177H121.427V83.4812H121.012C119.555 85.3643 116.985 86.0609 111.495 86.0609H103.018V70.7894H113.161C119.346 70.7894 122.194 71.7653 123.929 74.1385H124.344V64.4434H91.1371V64.7917V64.7876Z" fill="currentColor"/>
<path d="M155.163 64.4394H146.965L132.167 102.377C130.501 106.702 129.456 110.047 126.813 112.558V112.907H139.251V112.558C137.517 110.047 138.001 106.698 139.739 102.098L140.575 99.9353H159.125L160.028 102.236C161.695 106.629 162.389 109.975 160.928 112.558V112.907H175.726V112.558C173.362 109.979 172.184 106.909 170.235 102.098L155.159 64.4394H155.163ZM142.935 93.5934L149.539 76.0904H149.955L156.692 93.5934H142.935Z" fill="currentColor"/>
<path d="M210.991 100.842H210.644L197.653 64.4394H181.951V64.7876C183.759 67.2296 184.037 70.3682 184.037 74.7621V101.891C184.037 106.982 183.622 110.189 181.951 112.562V112.911H193.203V112.562C191.537 110.12 191.118 106.982 191.118 101.891V74.4827H191.533L205.29 112.911H213.42L226.757 75.1104H227.104V102.24C227.104 107.33 226.757 109.979 225.019 112.562V112.911H238.707V112.562C237.041 109.983 236.622 107.403 236.622 102.24V74.831C236.622 70.0199 237.037 67.2985 238.707 64.7876V64.4394H223.841L210.987 100.842H210.991Z" fill="currentColor"/>
<path d="M251.041 64.7876C252.642 67.2985 253.126 69.947 253.126 74.831V102.45C253.126 107.33 252.642 110.052 251.041 112.562V112.911H265.008V112.562C263.341 110.052 262.922 107.33 262.922 102.45V74.831C262.922 69.9511 263.337 67.2985 265.008 64.7876V64.4394H251.041V64.7876Z" fill="currentColor"/>
<path d="M300.414 106.565H289.783V75.1833C289.783 70.7893 289.92 67.7885 291.869 64.7917V64.4434H277.902V64.7917C279.846 67.7885 279.987 70.7893 279.987 75.1833V102.381C279.987 107.334 279.362 110.542 277.902 112.562V112.911H311.67V101.612H311.185C309.241 105.589 305.973 106.565 300.418 106.565H300.414Z" fill="currentColor"/>
<path d="M342.997 64.7876C343.69 67.2985 342.371 70.3682 339.938 74.6892L333.548 85.988H333.132L326.807 74.341C324.793 70.6436 323.47 67.505 324.374 64.7876V64.4394H308.809V64.7876C311.657 67.5779 313.396 70.3682 316.035 74.9687L326.802 93.7999V102.24C326.802 107.399 326.387 110.052 324.717 112.562V112.911H338.684V112.562C337.086 110.052 336.598 107.33 336.598 102.171V94.0105L347.503 75.3898C350.141 70.8582 352.227 67.7196 355.491 64.7876V64.4394H342.989V64.7876H342.997Z" fill="currentColor"/>
</g>
<defs>
<clipPath id="clip0_894_4501">
<rect width="357" height="114" fill="white"/>
</clipPath>
</defs>
</svg>
