<svg xmlns="http://www.w3.org/2000/svg" fill="none" viewBox="0 0 357 114"><g fill="currentColor" clip-path="url(#a)"><path d="M356.088 29.814c-.883 2.394-5.059 4.082-8.093 4.082-.565 0-1.214-.044-1.864-.13a6.5 6.5 0 0 0-1.299-1.348c3.413-2.098 7.758-7.524 7.758-7.524 2.296-3.046 3.555-7.395.045-8.221-2.732-.652-5.201 1.174-7.629 4.916-1.614 2.329-4.378 9.18-4.378 9.18l-1.04 2.22a299 299 0 0 0-2.905 6.44s-1.041 2.522-1.388 4c0 .085-1.791 6.342 1.343 7.788.529.243 1.082.413 1.646.393 4.003-.15 7.194-6.265 7.194-6.265 1.041-1.652 1.517-4.001 1.517-4.001.173-.871.262-1.653.302-2.305a10 10 0 0 0 0-1.652c3.772-.652 6.633-2.438 9.142-5.22.952-1.045.569-2.308-.359-2.34zM345.53 28.24a124 124 0 0 1 2.296-4.35c.173-.303.347-.607.52-.826 0 0 1.432-2.438 2.514-2.219.823.174.823 1.26-.436 3.09-1.041 1.478-2.296 3.045-3.728 4.305-.347.303-.956.826-1.17.652-.218-.174 0-.652 0-.652zm-2.34 15.182c-.956 1.478-1.948 2.56-2.642 2.568-2.772.024 1.472-8.44 1.472-8.44.605.045 1.562.13 2.732.085 0 0 .322 1.98-1.562 5.787M14.314 49.099c-1.944-1.883-2.433-3.139-2.433-7.743V28.943h8.477c5.486 0 8.06.697 9.517 2.511h.415V20.018h-.415c-1.457 1.883-4.03 2.58-9.517 2.58H11.88V7.322h10.143c6.185 0 9.033.976 10.768 3.349h.415V.976H0v.348C1.598 3.14 2.086 4.463 2.086 8.926v32.43c0 4.604-.484 5.86-2.086 7.743v.348h14.314zm62.553-35.083c0-8.018-7.157-13.04-17.993-13.04H40.671v.348c1.807 2.511 2.086 5.439 2.086 9.975v27.477c0 5.09-.416 7.812-2.086 10.323v.348h13.894V49.1c-1.666-2.51-2.085-5.232-2.085-10.323V27.688h3.61l16.328 21.76h12.086v-.138L66.37 26.295c6.532-1.952 10.493-6.415 10.493-12.275zM57.482 21.55H52.48V7.115h5.14c5.418 0 9.1 2.232 9.1 6.974s-3.473 7.464-9.242 7.464zm45.742 27.549c-1.666-2.51-2.086-5.232-2.086-10.112v-27.62c0-4.88.416-7.532 2.086-10.043V.976H89.261v.348c1.598 2.511 2.086 5.16 2.086 10.044v27.619c0 4.88-.484 7.601-2.086 10.112v.348h13.963zm47.59-10.323h-.416c-2.154 3.487-5.212 4.325-10.63 4.325H126.43V28.247h9.38c5.418 0 7.778.838 9.449 2.51h.415V19.322h-.415c-1.808 1.673-3.89 2.58-9.449 2.58h-9.38V7.321h12.228c6.112 0 8.686.977 10.7 3.35h.415V.976h-35.224v.348c1.597 2.442 2.085 5.233 2.085 9.975v27.34c0 5.159-.415 7.95-2.085 10.46v.348h36.269v-10.67zm50.462-27.129c0-4.742.347-8.018 2.086-10.323V.976H191.9v.348c1.666 2.3 2.086 5.58 2.086 10.323v24.201h-.416L173.624.976h-14.382v.21l1.807 2.722v34.73c0 4.743-.415 8.16-2.086 10.461v.348h11.462V49.1c-1.735-2.3-2.086-5.718-2.086-10.46V11.436h.416l22.024 38.007h10.489V11.647zM231.595.976h-18.619v.348c1.739 2.442 2.086 5.37 2.086 9.975v27.34c0 5.09-.279 7.95-2.086 10.46v.348h18.619c16.537 0 26.816-9.553 26.816-24.27S248.128.976 231.595.976m-1.945 42.332h-4.793V7.115h4.793c10.631 0 18.135 4.743 18.135 18.062s-7.504 18.13-18.135 18.13m67.346-7.949c0-5.86-3.195-9.97-8.96-12.623l-6.669-3.07c-3.889-1.814-5.697-3.766-5.697-6.625 0-4.325 3.684-6.556 8.198-6.556s8.892 2.3 11.393 6.414h.416v-9.69C292.829 1.323 288.383 0 283.59 0c-10.005 0-17.441 6.415-17.441 15.065 0 5.65 3.196 10.043 9.38 12.903l6.185 2.859c3.542 1.603 5.697 3.418 5.697 6.625 0 4.532-4.309 6.415-8.34 6.415-4.655 0-9.864-2.511-13.547-8.092h-.416v9.906a24.06 24.06 0 0 0 14.383 4.742c9.727 0 17.509-6.066 17.509-15.065z"/><path d="M355.947 5.811c-.367-.988-1.109-1.6-2.053-1.786-.122 0-.327 0-.372.094-.04.093 0 .283.041.425.121.421.165.798.08 1.267-.286 1.645-1.932 3.48-3.247 4.14a16 16 0 0 1-3.163 1.174c-2.098.563-4.232.563-6.33.518-.327 0-.537-.186-.618-.518l-.246-.94c-1.149-3.479-2.34-5.6-5.26-7.338-2.776-1.648-6.371-.846-7.686-.425-1.521.47-2.836 1.409-4.151 2.397-1.642 1.223-4.438 5.783-4.93 8.185-.081.611-.247 1.174-.368 1.786 0 .093-.084.141-.125.186-1.48.798-4.111 2.73-5.176 4.187-3.453 4.795-4.478 8.043-4.478 14.061-.04 1.786.371 3.479.904 5.127.452 1.644 1.396 2.96 2.34 4.28.823 1.175 1.973 1.835 3.082 2.588 1.44.989 4.111 1.458 5.713 1.551 1.315.093 2.59-.141 3.861-.518 3.453-1.033 6.616-3.527 8.875-6.63.658-.894 1.356-1.74 1.892-2.632 1.356-2.255 2.591-4.608 3.41-7.196l.742-2.353c.819-2.68 1.436-5.362 1.727-8.184l.205-1.928c.041-.519.206-.66.618-.705l2.63-.093 4.026-.142c3.163-.376 5.628-1.271 7.52-4.373.287-.47.573-.895.739-1.365.577-1.644.371-3.244-.206-4.844zm-33.126 6.678c1.642-3.713 3.739-5.69 7.399-5.831 1.972 0 3.945.704 4.974 2.774.287.563.658 1.081.779 1.693.121.611.04.753-.492.753h-3.123c-3.002 0-6.124.142-9.041 1.174-.121.093-.371.093-.452 0-.125-.141-.125-.42-.04-.563zm13.317 8.18c-.371 1.507-.738 3.058-1.15 4.516-1.48 5.314-6.862 14.389-12.288 14.956-1.07.093-2.179.283-3.248.093-.533-.093-1.025-.283-1.561-.47-2.506-.66-4.152-3.713-4.809-6.35-.327-1.364-1.324-9.577 4.478-12.651.04.235.121.421.121.66.121 2.495 1.234 4.09 2.549 5.925.864 1.223 2.139 1.786 3.494 1.976 1.275.186 3.526-.263 4.93-2.446.622-.96 1.194-3.746.371-4.09-.04-.049-.165.093-.246.186-.782.895-1.355 1.268-2.505 1.268-2.138 0-3.042-1.365-3.74-3.434-.286-.798-.371-1.6-.327-2.447 0-.988 1.316-1.223 1.973-1.223l3.288-.141s5.507-.093 7.068-.049c.493 0 .985.049 1.481.093.287 0 .371.093.371.425a13.8 13.8 0 0 1-.246 3.2zM77.606 95.153c-.517-.086-.8.085-1.126.502-2.207 2.806-5.12 4.523-9.061 4.523-1.88 0-4.272-.712-4.272-2.721a4 4 0 0 1-.093-.713c0-.251 0-.502.044-.753 0-.085.093-.251.33-.251h1.457c1.081.04 2.159-.04 3.24-.336.799-.211 1.597-.422 2.3-.798 6.572-3.52 5.305-7.873 4.603-9.007-.424-1.09-1.501-1.676-2.63-1.883a8.8 8.8 0 0 0-1.832-.21c-4.555 0-7.843 3.434-9.768 6.783-.988 1.676-1.924 3.77-2.162 5.698-.056.267-.085.53-.117.798-1.057 1.47-2.679 2.83-4.575 3.183-.843.166-1.408-.21-1.456-1.005-.049-.542.238-1.089.472-1.591.564-1.215 1.27-2.43 1.972-3.56.848-1.38 1.69-2.762 2.441-4.187 1.832-3.475.238-5.488-1.642-5.945a6.5 6.5 0 0 0-1.549-.166c-1.033 0-2.066.21-2.957.668-.75.376-2.207 1.676-2.348 1.757-.093.04-.19.04-.19-.085.049-.166.093-.336.19-.461l1.549-2.932c.625-1.191 1.27-2.386 1.92-3.576q.674.119 1.372.227l.847.125h.234c1.36.166 2.724.21 4.083.21 3.946-.084 7.795-1.174 9.86-4.397.847-1.3 1.126-2.762.936-4.228-.516-3.981-5.49-6.532-9.626-6.91-.423-.04-4.555-.586-8.496 1.633-1.271.713-2.207 1.757-2.675 3.058-.238.627-.238 1.255.137 1.883.048.085.19.21.282.21.093 0 .234-.125.283-.21.472-.798 1.174-1.381 2.065-1.758.658-.21 1.271-.462 1.925-.628 1.646-.42 3.332-.461 5.027-.25 2.065.335 4.413 1.089 5.115 3.057.238.668.283 1.34-.137 1.968-.472.668-1.081 1.174-1.924 1.38-.614.167-1.271.252-1.88.337-1.457.21-2.91.04-4.37-.126a56 56 0 0 1-8.306-1.631c-6.246-1.718-12.49-3.143-19.067-3.35-2.534-.085-5.116.085-7.653.377-2.82.336-5.495 1.215-8.029 2.345-3.804 1.717-7.56 5.321-9.343 8.71-1.598 3.099-2.11 6.282-1.126 9.59 1.408 4.735 5.822 7.707 11.22 7.707 6.995 0 11.833-4.147 13.475-9.885.423-1.426.472-2.892 0-4.313-.985-2.973-3.518-5.403-7.61-5.111-1.782.085-3.38.668-4.55 1.883-1.126 1.13-1.315 2.43-1.037 3.851.049.252.19.503.327.713.141.251.375.251.565 0 .093-.125.185-.25.234-.421.702-1.13 1.88-1.717 3.195-1.717.327 0 .702.04 1.081.126 1.457.336 3.054 1.506 2.772 3.685-.472 3.519-3.619 5.945-7.61 5.945-2.863 0-5.635-1.3-6.527-3.852-.516-1.506-.702-3.057-.327-4.649.94-4.021 3.615-6.953 7.61-8.88 2.299-1.13 4.74-1.843 7.37-1.928 2.159-.085 6.855-.588 16.67 1.883l.424.125c0 .377-.327.502-.565.628-2.582 1.38-3.99 3.52-5.257 5.864l-4.692 8.881-4.837 9.258c-.657 1.255-1.364 2.515-2.348 3.645l-1.69 1.717c-1.501 1.466-4.273 2.47-6.524 2.47-.516 0-.988-.041-1.5-.166-2.631-.462-4.463-2.807-3.854-5.151.327-1.341 1.082-2.26 2.49-2.807q.283-.127.282-.376c0-.211-.141-.292-.33-.337-.235-.04-.42-.04-.658-.04-.327 0-.702.04-1.033.04-2.3.085-5.447 1.803-6.387 4.147-.798 2.009-.798 3.977.234 5.905 1.788 3.308 5.68 4.649 9.582 4.649 8.92 0 13.802-6.115 17.09-12.647 1.037-2.054 8.028-16.584 9.343-19.18.706-1.34 2.865-5.487 4.93-5.487.19 0 .472.04.702.166.093.04.19.085.331.125l.936.251c.71.199 1.796.51 3.119.839 0 0-11.998 23.707-12.612 24.792 0 .041-.609.923-.891 1.175-.283.251-.376.502.609.461 1.033-.04 3.147-.04 3.474-.04h.423s.75.04.936-.126c.093-.085.048-.251.093-.502v-.04q0-.04.048-.086c0-.085 0-.125.049-.21.472-.838.798-1.677 1.174-2.515a62 62 0 0 1 1.734-3.475l2.772-5.191c.984-1.884 2.816-4.273 4.882-5.318.423-.21.799-.336 1.267-.291.701 0 1.174.376 1.222 1.004.048.543 0 1.045-.282 1.507l-.989 1.676-3.284 5.277c-.702 1.215-1.267 2.47-1.598 3.77-.282 1.175-.42 2.345.239 3.434.423.713.984 1.175 1.924 1.3.61.085 1.218.041 1.832-.04a5.3 5.3 0 0 0 2.017-.628c1.98-1.073 3.703-2.499 5.047-4.159.69 3.207 2.917 5.459 6.967 5.459 4.93 0 8.92-3.017 11.41-6.617.564-.794.891-1.381 1.173-2.26.238-.713.283-1.049-.56-1.255zM64.268 92.43c.282-.543.94-1.883 1.315-2.345 1.598-1.927 3.381-2.932 4.317-3.098 1.222-.376 2.723.713 1.222 2.637-.516.668-1.549 2.053-4.365 2.68-.282.041-1.456.337-2.114.337-.282 0-.468-.085-.375-.21m26.869-27.643c1.598 1.814 2.086 3.138 2.086 7.601v32.43c0 4.605-.488 5.86-2.086 7.743v.349h14.314v-.349c-1.948-1.883-2.433-3.138-2.433-7.743V92.407h8.477c5.49 0 8.06.696 9.517 2.51h.415V83.482h-.415c-1.457 1.883-4.027 2.58-9.517 2.58h-8.477V70.789h10.143c6.185 0 9.033.976 10.768 3.35h.415v-9.696H91.137v.349zm64.026-.348h-8.198l-14.798 37.937c-1.666 4.325-2.711 7.67-5.354 10.181v.349h12.438v-.349c-1.734-2.511-1.25-5.86.488-10.46l.836-2.163h18.55l.903 2.301c1.667 4.393 2.361 7.739.9 10.322v.349h14.798v-.349c-2.364-2.579-3.542-5.649-5.491-10.46l-15.076-37.659zm-12.228 29.153 6.604-17.503h.416l6.737 17.503zm68.056 7.249h-.347l-12.991-36.403h-15.702v.349c1.808 2.442 2.086 5.58 2.086 9.974v27.129c0 5.091-.415 8.298-2.086 10.671v.349h11.252v-.349c-1.666-2.442-2.085-5.58-2.085-10.671V74.483h.415l13.757 38.428h8.13l13.337-37.8h.347v27.129c0 5.09-.347 7.739-2.085 10.322v.349h13.688v-.349c-1.666-2.579-2.085-5.159-2.085-10.322V74.831c0-4.811.415-7.532 2.085-10.043v-.349h-14.866l-12.854 36.403zm40.05-36.054c1.601 2.51 2.085 5.159 2.085 10.043v27.619c0 4.88-.484 7.602-2.085 10.112v.349h13.967v-.349c-1.667-2.51-2.086-5.232-2.086-10.112V74.831c0-4.88.415-7.532 2.086-10.043v-.349h-13.967zm49.373 41.777h-10.631V75.183c0-4.394.137-7.395 2.086-10.391v-.349h-13.967v.349c1.944 2.996 2.085 5.997 2.085 10.391v27.198c0 4.953-.625 8.161-2.085 10.181v.349h33.768v-11.299h-.485c-1.944 3.977-5.212 4.953-10.767 4.953zm42.583-41.777c.693 2.51-.626 5.58-3.059 9.901l-6.39 11.299h-.416l-6.325-11.647c-2.014-3.697-3.337-6.836-2.433-9.553v-.349h-15.565v.349c2.848 2.79 4.587 5.58 7.226 10.18L326.802 93.8v8.44c0 5.159-.415 7.812-2.085 10.322v.349h13.967v-.349c-1.598-2.51-2.086-5.232-2.086-10.391v-8.16l10.905-18.621c2.638-4.532 4.724-7.67 7.988-10.602v-.349h-12.502v.349z"/></g><defs><clipPath id="a"><path fill="#fff" d="M0 0h357v114H0z"/></clipPath></defs></svg>