<svg xmlns="http://www.w3.org/2000/svg" fill="none" viewBox="0 0 326 136"><path fill="#000" d="M325.87 49.21c-.04-2.88-3.42-5.17-4.87-6.01-2.63-1.54-6.59-2.46-10.59-2.46-1.78 0-3.48.18-5.03.54-5.76 1.33-9.01 3.7-9.66 7.05-.16.84.14 1.69.79 2.24.17.15.36.29.56.42 0 .11.02.22.04.33.13.74.33 1.39.52 1.97-4.18-.73-8.07-2.06-10.95-3.39-.35-8.38-3.19-15.54-8.03-20.23-.66-.86-1.46-1.04-2.01-1.04-.3 0-.56.05-.78.12-4.73.8-8.83 1.19-12.54 1.19-6.95 0-12.65-1.36-17.94-4.28-5.52-3.05-10.17-7.48-14.67-11.76-5.04-4.8-9.8-9.34-15.63-11.97-2.2-1-4.42-1.58-6.98-1.85-.52-.05-1.04-.08-1.56-.08-2.53 0-7.61 1.49-7.96 1.49-.14 0-.28.01-.42.04-10.07 1.83-20.9 2.76-32.18 2.76-13.49 0-27.38-1.36-40.18-3.94-.16-.03-.31-.05-.46-.05-.7 0-5.64-.11-7.55-.11-8.86 0-15.71 6.99-19.4 10.74C86.16 23.4 73.88 29.47 60.84 29.47c-3.59 0-7.28-.48-10.95-1.44-.2-.05-.39-.08-.59-.08-.71 0-1.4.33-1.86.91-4.54 5.85-7.74 12.74-9.26 19.94-2.75 1.27-6.75 2.66-11.1 3.46.12-.42.21-.93.23-1.56 0-.31-.04-.6-.15-.88.3-.51.5-1.08.59-1.68a2.33 2.33 0 0 0-.52-1.83c-2.64-3.19-8.34-5.42-13.84-5.42-1.73 0-3.41.21-5.01.62-3.47.9-8.32 4.23-8.01 7.91.06.69.33 1.41.76 2.11-.1.42-.08.88.08 1.31 0 0 .04.12.14.33.17.4.67 1.65 1.04 3.33.49 2.2.71 4.56.71 4.58.03.34.14.67.31.96-.03.19-.04.4-.03.6.37 4.63-.04 8.06-.51 12.03-.05.4-.1.8-.14 1.2-.26.35-.42.76-.46 1.21-.04.46-.23 1.62-.57 2.23-.46.84-.91 1.28-.91 1.28-.83.74-1.02 1.97-.46 2.93.12.2 1.22 2.02 3.85 3.9 2.69 1.93 5.99 2.87 10.1 2.87.31 0 .62 0 .94-.02-1.39 2.42-2.29 5.19-2.33 8.07-.05 3.5 1.11 6.57 3.37 8.86 1.65 1.67 3.81 2.84 6.28 3.41.24.49.65.9 1.18 1.13l1.16.5c5.55 2.39 10.8 4.65 15.15 8.86 1.05 1.01 1.87 2.17 2.83 3.51.5.69 1.01 1.41 1.59 2.16.26.33.6.82.97 1.35 2.01 2.85 3.46 4.76 5.21 5.17.67.16 2.31.4 3.68.4.64 0 1.16-.05 1.6-.16 7.09-1.73 8.97-7.61 8.48-10.91-.44-3.02-2.17-4.7-3.44-5.93-.47-.45-.87-.85-1.14-1.22-.24-.35-.49-.69-.74-1.03 1.08-1.75 5.62-8.26 14.55-10.53.14-.04.28-.07.42-.1.43.43 1.02.69 1.66.69h.32c2.03 0 4.96 1.12 8.07 2.3 2.51.96 5.35 2.04 8.31 2.77 1.66.41 5.95.84 8.35.84.57 0 1.04-.02 1.41-.07 6.04-.77 11.92-4.62 15.26-9.83h.05c.38 0 .75-.09 1.1-.27 1.18-.63 2.33-1.31 3.55-2.03 4.04-2.38 8.21-4.85 13.39-5.27.17-.01.35-.02.55-.02.24 0 .49 0 .76.01.34 0 .7.01 1.08.01.8 0 1.49-.03 2.18-.1.27-.03.53-.1.77-.22 1.51-.72 2.3-2.62 2.62-4.74 1.6-.84 3.36-1.26 5.25-1.26 4.8 0 9.31 2.72 11.47 5.26.43.5 1.04.8 1.7.82h.09c.62 0 1.22-.25 1.66-.69 2.64-2.64 7.33-5.47 12.56-5.47 1.63 0 3.23.28 4.76.82.4 2.73 1.63 4.7 3.48 5.38.26.09.53.14.81.14h.12c.48-.02.96-.04 1.43-.04 8.3 0 13.07 3.83 18.58 8.26.3.24.65.4 1.01.47 2.57 4.84 7.79 8.07 12.22 8.82 1.14.19 2.27.29 3.37.29 4.58 0 8.17-1.66 11.64-3.27.64-.29 1.28-.59 1.94-.88 4.65-2.06 8.7-2.49 11.29-2.49 2.21 0 4.23.31 5.85.91.27.1.54.14.81.14s.55-.05.81-.14c6.29 4.4 10.31 11.61 10.86 12.64-.6.56-1.51 1.13-2.56 1.78-.61.38-1.3.81-2.03 1.3-.34.23-.62.55-.8.92-1.16 2.4-.86 5.22.85 7.96 2.16 3.46 5.97 5.87 9.26 5.87.65 0 1.27-.09 1.85-.28.52-.16.97-.5 1.26-.96 3.36-5.16 5.8-8.14 11.34-12.15 3.09-2.24 6.06-3.58 9.49-5.14 1.82-.83 3.7-1.68 5.75-2.73.65-.34 1.09-.94 1.23-1.62 1-.2 1.98-.48 2.95-.86 3.33-1.29 5.91-3.97 7.25-7.55 1.56-4.16 1.32-9.09-.64-12.9h.34c4.11 0 7.41-.94 10.1-2.87 2.63-1.88 3.73-3.7 3.85-3.9.56-.96.39-2.16-.44-2.91 0 0-.46-.44-.93-1.3-.29-.52-.51-1.88-.57-2.66-.03-.48-.21-.94-.5-1.3.09-.23.14-.48.16-.73.07-1.22-.15-2.7-.4-4.42-.31-2.12-.69-4.75-.32-6.25.15-.6.05-1.21-.24-1.72.23-.71.76-2.39 1.18-4.31.37-1.68 1.9-4.72 2.45-5.75.29-.54.35-1.14.22-1.69.39-.73.64-1.5.63-2.26zM198.58 3.85c.27.37-1.54 1.14-2.3 1.92-1.86 1.9-4.15 5.21-4.23 9.02-.14 6.55 4.27 11.09 8.22 14.1-11.58-2.67-24.47-5.67-37-5.46-14.18.23-23.29 1.4-35.63 4.57 4.38-3.45 7.11-8.23 5.73-14.99-1-4.91-4.48-7.75-8.04-10.34 22.65 4.55 49.31 5.54 73.25 1.18m15.71 15.04c.94.7 1.35 1.24 1.87 1.71 1.71 1.54 3.68 3.28 5.59 4.99 10.48 10.91 28.24 20.5 47.98 16.79 2.95 4.08 4.41 9.69 4.64 16.55 9.24 6.61 27.83 13.17 41.11 7.5v-.01c.2-.07.38-.16.55-.28v.06c.31-.14.63-.27.94-.43v-.14c.23-.11.45-.23.68-.35v.09c.57-.32 1.15-.62 1.69-1-.78 3.18.8 8.58.66 11.1-.32.55-.71 1.03-1.14 1.45 0 .05.02.09.03.14-.11.08-.21.17-.31.27-.01-.04-.03-.08-.04-.12-.4.35-.83.66-1.29.94 0 .05.02.09.03.14-.2.08-.4.17-.6.26 0-.02 0-.04-.01-.07-.9.48-1.87.87-2.85 1.24v.13c-.14.06-.29.11-.44.16-.1.02-.19.06-.29.06h-.04l-.02-.13c-6.75 1.7-13.19-2.06-18.47-3.76-1.8 2.18-2.78 5.2-4.4 7.57.25 1.22 1.36 1.76 1.08 2.75-12.66-3.21-12.31 14.16-17.07 21.12-2.24-2.69-3.36-4.86-7.27-8.55-.5-.4-4.98-3.79-7.22-4.77-2.59-1.4-7.77-2.63-8.46-2.76-6.73-1.21-13.79.46-19.01 2.84-3.58 1.64-7.54 4.05-10.43 2.13 5.34-3.3 4.42-13.26-2.71-14.83-2.74-.61-5.85-.57-8.42 1.12-4.77.13-10.04-1.37-13.91-2.84-4.55-1.73-6.74-3.87-10.43-1.89-6.47-4.29-19.77-3.92-24.8 1.42-4.99-4.54-17.09-6.62-23.18-1.66-4.84-1.68-8.97 1.81-13.44 3.31-2.51.84-6.18 1.09-9.5.95-2.59-.11-5.22-1.43-7.88-1.18-6.64.62-12.89 9.94-5.36 15.67-.13.66-2.16 1.03-2.75.82-4.13-1.06-8.25-4.22-12.75-5.38-6.8-1.75-15.66-.66-21.56 2.13-5.83 2.75-10.24 7.19-14.14 11.11-6.24-5.09-4.59-23.97-18.54-18.44.66-1.64 1.19-2.08 1.85-3.07-1.56-2.5-2.91-5.23-4.4-7.8-4.4 2.1-11.87 3.63-18.06 2.82 0 0-.08 0-.12-.02-.2-.03-.39-.05-.58-.08-.04 0-.09-.01-.13 0-.97-.17-1.89-.4-2.76-.7 0 .02 0 .03-.01.05-.04-.01-.06-.04-.11-.05-.17-.02-.33-.07-.47-.15h-.05c0-.02 0-.04.01-.06-.47-.18-.91-.38-1.34-.61 0 .03-.02.06-.03.09a.9.9 0 0 0-.35-.14l.03-.16c-.28-.16-.57-.32-.84-.51.53-4.53 1.13-8.5.7-13.95.41.32.86.58 1.3.86.03.02.06.04.09.07C19.42 71.3 40.01 64.49 50.49 58c.39-6.85 1.93-12.54 4.87-16.79 27.72 4.81 43.7-11.15 57.25-23.88-.25 1.07-.55 1.48-.72 3-.95 8.79 7.26 11.75 14.63 9.29 8.41-2.09 17.2-4.2 28.51-4.73 11.9-.55 22.01.57 32.45 2.6 9.86 1.92 27.97 8.72 26.84-8.6zM2.71 49.24c-.16-1.95 3.35-4.68 6.26-5.44 6.65-1.72 13.85.88 16.46 4.02-.44 3.04-6.81 3.62-7.88.71.32-1.77 2.56-.35 3.01-.47-2.03-4.79-19.29-1.73-11.59 4.26 7.24 5.63 22.5 2.33 30.56-1.53.25-.12 1.55.68 2.67 1.41.05-.25-1.84-2.27-1.79-2.52 1.5-7.38 4.78-14.04 8.89-19.35 22.23 5.78 39.3-6.04 50.76-17.73 5.93-6.05 14.32-13.74 25.5-8.04 3.05 1.55 6.61 5.49 6.95 9.93.46 5.84-4.4 13.17-10.2 14.42-3.94.85-8.02-1.19-9.27-4.96-1.29-3.9.92-11.23 6.26-9.93 1.06.26 2.34 1.62 1.62 3.31-1.46 1.83-2.58 1.45-3.25-.24-4.23 2.75-1.06 9.82 5.1 8.51 3.95-.84 7.97-7.63 6.03-13.24-1.52-4.37-7.11-8.36-13.21-7.09-7.82 1.63-14.31 10.24-20.63 15.13-11.57 8.96-25.06 16.64-44.04 12.77-5.38 3.87-6.6 12.23-8.11 19.39-4.26 1.74-9.14 3.6-15.3 4.73-5.89 1.08-13.32 1.41-17.62-.95-1.36-.75-7-4.86-7.19-7.09zm14.09-1.43h-.1c-.09.1-.19.19-.26.3-.45.76.18 1.1 0 3.22l.12.02s-.08.02-.13.03c0 .06 0 .11-.01.17-.25 2.3-.68 2.31-.68 2.31s-1.01-.09-2.31-.46h-.04c-.07.02-.14.03-.21.06.03-.03.05-.07.08-.11-.48-.14-.99-.32-1.51-.54-.12.04-.24.08-.36.13.06-.06.13-.13.2-.19q-.45-.195-.9-.45c-1.45-.82-2.08-1.52-2.35-2.08l-.39.23c.1-.13.21-.25.32-.37a1.5 1.5 0 0 1-.11-.55c0-.59-.09-1.61 4.19-2.43 4.29-.82 5.36 0 5.36 0s-.59.27-1.01.68l.08.02zm.74 2.61c1.34 1.15 5.16 1.02 7.42.24 0 .11-.02.19-.02.29l.1-.03v.07c-.04.03-.08.07-.12.1-.15 1.24-.77 1.59-.73 3.13-2.51.4-5.34.8-7.15-.18.23-1.19.52-2.17.5-3.61zm110.2-31.05c-.09.02-.18.04-.26.07-.82 1.74-3.09 5.73-6.55 5.27-4.07-.55-4.05-3.68-4.05-4.4s.47-1.66.47-1.66.83 1.07 1.93.83 1.66-.83 1.66-.83 1.42.42 3.12.18c1.4-.2 3.78-.18 3.78-.18s-.11.28-.31.72c.08 0 .15 0 .23.01zm-6.12-1.57c.55-1.38.83-3.28-.69-3.97 3.12.18 5.21.06 7.47.36.41 1.32.33 2.97-.28 3.61-2.31-.22-4.79.36-6.49 0zM3.4 52.04s.03.06.07.15c.36.77 2.39 4.39 9.25 6.09 5.37 1.33 14.56 1.01 22.25-1.66S43.71 53 43.71 53s1.51-8.97 3.03-12.48c2.04-4.7 4.43-6.24 4.43-6.24s5.83 1.54 15.09.59c11.71-1.19 22.99-8.1 32.8-16.95s13.63-12.01 19.1-11.99c8.05.03 9.67 7.25 9.67 7.25s-2.09-.1-4.19-.21c-2.21-.11-3.15-.03-3.15-.03s-1.63-.23-3.61.18-4.72 2.97-10.89 8.97-18.87 16.7-33.92 18.41c-13.06 1.49-16.99-.59-16.99-.59s-2.55 3.06-4.08 8.6c-1.92 6.98-1.46 9-1.46 9s-13.4 8.17-28.3 8.13c-11.21-.03-15.79-4.75-15.79-4.75s-.23-2.5-.76-4.87a21.3 21.3 0 0 0-1.21-3.83c-.04-.09-.07-.15-.07-.15zm2.13 33.51c-2.29-1.65-3.19-3.18-3.19-3.18s.7-.63 1.4-1.9.85-3.17.85-3.17 3.81 3.01 10.33 3.01 14.45-2.87 14.45-2.87l3.81 6.35s-.76.67-1.2 1.39c-.43.71-.82 1.86-.82 1.86s-2.97 1.07-5.69 5.19-2.53 8.06-1.62 8.62c1.51.93 4.52 3.98 4.52 3.98s-6.76.94-8.27-3.3c-2.1-5.89 2.93-12.19 4.86-14.8s2.79-3.72 2.79-3.72-.62-.17-3.88.98c-3.26 1.16-4.54 3.65-6.84 3.85-3.64.31-7.96.24-11.5-2.3zm32.59 12.44c-.08-.02-.16-.02-.23-.04-.86 1.95-2.33 3.26-2.33 3.26s-.58-1.29-1.44-2.75c-.85-1.46-.93-2.61-2.72-2.54-.97.04-2.96 1.51-2.48-.08.48-1.58 1.39-2.61 2.63-3.17 1.24-.55 1.78-.91 3.77-.75 2.07.17 3.32 2.18 3.15 3.92-.07.71-.27 1.37-.53 1.98l.19.16zm-5.28.42c1.06.89 1.49 2.11 2.09 3.08-1.07 2.11-4.34 3.07-5.24 2.95-.84-.12-2.34-1.45-3.57-2.95 2.52.4 6.14-.06 6.72-3.08m-17.62.01c.1-6.49 5.3-12.56 10.2-13.95-2.35 3.97-9.83 11.66-6.03 18.2 4.15 7.14 17.49 1.86 19.47-4.73 3.05-10.16-11.84-7.68-10.89-.47 1.13 1.25 3.33-1.84 4.4 0 .53 3.2-5.66 4.7-7.88 2.36-.15-4.12 2.22-8.41 4.87-10.64 4.09-3.45 12.65-3.99 13.44 3.07.92 8.21-6.65 15.31-14.37 16.31-7.6.99-13.32-3.19-13.21-10.17zM62.04 123c.29 1.98-.74 6.83-6.72 8.29-1.03.25-3.46-.07-4.17-.24-1.35-.32-3.67-4.13-4.87-5.67-1.66-2.14-2.84-4.17-4.64-5.91-4.97-4.81-10.88-7.18-17.01-9.83 4.77.35 9.52-.87 13.18-3.89 2.85-2.34 6.27-7.8 5.9-11.73.37-.07.18-.09.48-.08 2.55 9.6 8.4 15.46 13.68 22.93 1.26 1.79 3.69 2.91 4.17 6.14zm10.99-21.33c-11.53 2.93-16.31 12.16-16.31 12.16s-1.28-1.46-2.91-3.68c-1.64-2.22-2.45-3.92-2.45-3.92s1.97-2.77 6.56-6.61c5.11-4.28 12.62-7.94 22.02-7.72 8.7.2 14.21 5.43 19.26 6.3 2.35.41 3.57-1.23 3.57-1.23s0 .48 2.66.32c3.91-.24 4.14-3.25 4.72-3.35.82-.14 3.47-1.17 3.47-1.17s-.39 4.74-3.31 7.49c-3.8 3.59-8.9 5.96-17.72 4.01-5.98-1.32-10.31-4.94-19.56-2.59zm33.43-15.46.26-.19s-.02.05-.03.08c.38-.18.79-.32 1.24-.41.07-.04.13-.09.2-.13-.01.03-.03.06-.04.09.27-.04.56-.07.86-.07.41 0 .78.09 1.13.22h.05-.02c1.32.48 2.21 1.59 2.21 1.59s-.43.63-2.68.99-2.68.36-3.07 1.27-.17 2.43-1.67 2.21c-1.35-.2-1.54-2.14-.72-3.55.03-.1.04-.2.08-.3.09-.22.23-.42.39-.59.09-.08.17-.17.26-.23.04-.04.11-.05.16-.07.05-.03.09-.06.13-.09l-.1.13-.03.06c.39-.38.85-.74 1.38-1.02zm6.13 2.02c.93.47 1.14 2.53.99 3.55-.85.55-1.92.97-3.09 1.2-.16-2.01-.35-2.53-1.16-3.78 1.27-.2 2.31-.43 3.25-.96zm-10.74 19.8c-1.73.22-7.21-.3-8.9-.72-6.81-1.68-12.96-5.31-17.26-5.13 5.89-2.14 12.72 2.74 21.03 3.45 9.49.81 18.58-5.38 17.72-15.48-.26-3.11-2.99-5.72-6.26-5.44-2.37.21-6.79 3.78-5.1 7.09.5.98 1.54 1.28 2.32 1.18 2.14-.27.8-2.2 2.09-3.31.34-.12.74-.18.99-.06 1.41.64 1.46 2.69.64 4.37-.64 1.31-1.88 2.36-3.01 2.55-2.9.47-4.88-1.34-5.82-3.39-3.09-10.28 10.68-14.84 15.78-7.96 5.89 9.88-3.82 21.52-14.21 22.85zm37.97-17.5c-1.92.2-3.43 0-4.52.09-7.35.6-12.75 4.86-17.85 7.57 2.24-5.76 1.19-11.44-1.85-15.13 2.95-.15 5.24-.09 7.88-.71 4.6-1.08 8.15-4.73 12.52-4.02 2.13.35 4.08 1.31 4.87 3.31.87 2.78.39 8.21-1.04 8.89zm42.53-5.11c-8.1-3.25-16.15.71-20.4 4.97-3.82-4.49-12.49-8.37-19.7-4.49v-2.13c6.08-2.64 12.95-1.32 17.62 1.65.59.38 1.98 1.89 2.09 1.89.82.05 4.17-3.25 5.79-3.78 3.08-1 5.98-1.34 8.81-1.18 2.16.12 6.3.17 5.8 3.07zm.04-2.73s-.94-.55-1.86-.8c-.91-.24-2.81-.55-5.92-.55s-6.83 1.11-8.31 1.98-3.98 3.01-3.98 3.01-2.15-1.83-3.78-2.7-4.27-1.98-8.78-2.3c-4.5-.32-7.64 1.43-7.64 1.43s-.28-1.03-.82-2.38-2.17-2.17-2.17-2.17 2.49-1.4 4.8-1.99 4.91-.75 9.88.52 7.5 3.96 7.5 3.96 2.29-2.06 4.46-3.01 6.58-1.76 9.86-1.76c5.61 0 9.48 2.63 9.48 2.63s-.31.32-1.32 1.43-1.39 2.69-1.39 2.69zm2.84 7.87c-1.64-.6-2.4-3.74-1.95-7.28 1.01-3.26 3.15-5.17 6.03-5.2 1.64-.02 3.98 1.53 6.03 2.36 4.28 1.75 9.29 3.28 14.54 3.05-2.06 2.33-3.89 4.65-3.97 8.5-.03 1.36-.27 3.32.92 7.3-6.1-4.91-11.66-9.24-21.6-8.74zm49.34 13.86c-4.96 2.2-9.18 4.79-15.6 3.7-4.68-.8-10.3-4.74-11.59-10.41-1.75-5.87.65-12.33 4.4-14.42 3.08-1.51 6.09-1.41 9.27.24 5.16 2.67 3.92 11.62-1.39 12.77-2.24.48-5.27-.82-5.56-3.08-.25-1.96.97-3.56 3.24-2.6.85.93-.63.93-.46 1.89 1.06 1.5 3.59.85 4.64-.24 2.64-4.85-5.33-9.21-9.04-5.91-4.16 3.7-3.28 11.34 1.16 15.6 3.16 2.37 6.73 3.66 10.43 3.55 4.15-.13 7.2-2.44 10.72-3.73 6.73-2.47 13.86-2.83 18.67 1-4.49-1.65-11.71-1.54-18.9 1.64zm-17.94-18.39c.14.08.29.16.42.26l.03.03q.825.225 1.47.57c-.07-.15-.12-.29-.2-.44l.27.19c.09.07.16.15.24.22.11.11.2.24.3.37.18.12.34.24.5.36.05.02.11.04.16.07.1.06.17.15.26.23.03.03.04.08.07.11.23.22.46.45.65.68 1.15 1.39.52 3.28-.95 3.63-2.52.61-1.28-1.3-1.67-2.21s-1.37-1.1-2.68-.92c-.69.09-3.07-1.33-3.07-1.33s1.45-2.05 3.38-1.82c.34.04.61.13.92.2l-.09-.21zm-1.83 3.88c-1 .6-1.41 1.71-1.39 3.31-1.01-.07-1.72-.59-2.72-.68-.24-1.9.38-3.38 1.06-3.77 1.47 0 1.84.87 3.05 1.14m33.86 9.85c-9.25-2.35-17.18 3.07-21.42 4.49-3.42 1.15-9.97.46-13.53-3.53-3.72-4.18-2.85-7.49-2.85-7.49s2.86.33 3 1.17c.16.91.94 2.38 3.17 2.89 1.85.43 3.75-.34 3.75-.34s2.15 1.64 4.51 1.23c5.05-.87 10.1-5.63 18.8-5.82 9.4-.21 16.91 3.45 22.02 7.72 4.59 3.85 7.5 8.52 7.5 8.52s-1.28 2.66-2.91 4.87c-1.64 2.22-3.38 3.21-3.38 3.21s-7.11-13.99-18.64-16.92zm34.29 20.41c-5.69 4.11-8.31 7.2-11.93 12.77-4.21 1.32-11.5-5.45-9.15-10.29 2.06-1.39 3.76-2.25 4.93-3.36 7.85-7.49 10.54-12.96 13.35-23.03.05 1.7 0 2.65.38 3.5 2.67 7.38 8.62 12.55 17.96 12.35-5.84 3.01-10.55 4.45-15.53 8.06zm19.94-10.64c-9.9 3.84-20.7-3.63-21.79-12.77-.67-5.63 3.23-10.51 9.27-9.69 5.29.72 10.19 6.59 9.27 11.82-.67 3.87-7.4 4.52-7.65-.95 1.23-.83 1.55 1.02 3.25.47 2.33-4.44-3.98-8.76-8.58-6.62-4.47 2.08-1.55 9.91 1.16 12.53 5.53 5.35 16.16 4.23 18.77-2.37 1.55-6.85-2.21-11.35-5.1-15.13 3.57 1.83 5.31 2.75 6.72 5.44 2.93 5.59 1.49 14.62-5.33 17.26zm-17.34-13.21c-.18-1.74.61-3.76 2.68-3.92 1.98-.16 2.52.2 3.77.75 1.24.55 2.16 1.58 2.63 3.17.48 1.58-1.51.12-2.48.08-.81-.04-1.26.19-1.6.58-.41.46-.65 1.16-1.11 1.96-.85 1.46-1.9 2.75-1.9 2.75s-.94-1.31-1.54-3.26c-.05 0-.09.01-.14.02l.12-.1c-.19-.62-.34-1.3-.42-2.03zm5.52 2.57c.99 1.84 2.6 4 4.87 3.78-2.43 2.5-5.6 4.42-8.11.47.8-1.7 2.17-2.83 3.24-4.26zm31.53-15.57s-.89 1.53-3.19 3.18c-3.53 2.53-7.86 2.61-11.5 2.3-2.29-.2-3.57-2.22-6.83-3.37-3.26-1.16-3.88-1.46-3.88-1.46s1.79 1.11 3.72 3.72 7.05 9.41 3.93 14.8c-2.98 5.15-10.6 3.3-10.6 3.3s3.94-3.04 5.45-3.98c.9-.56 2.49-5.45-.23-9.57s-6.16-5.19-6.16-5.19-.38-.67-.82-1.38c-.44-.72-1.2-1.87-1.2-1.87l3.81-5.88s5.25 2.66 13.51 3.82c6.46.91 11.73-3.96 11.73-3.96s.16 2.38.85 3.65c.7 1.27 1.4 1.9 1.4 1.9zm-2.33-24.92c-.52 2.38-1.22 4.4-1.22 4.4s-4.58 4.72-15.79 4.75c-14.9.04-27.84-9.08-27.84-9.08s.47-2.97-1.46-9.95c-1.52-5.53-4.08-7.65-4.08-7.65s-3.93 2.08-16.99.59c-15.05-1.72-27.28-13.36-33.46-19.36-4.52-4.39-6.94-7.43-8.69-8.92-.7-.39-1.41-.75-2.15-1.05h-.02c-1.9-.18-4.11.82-4.11.82s-.94-.08-3.15.03c-2.1.1-3.72.21-3.72.21s1.62-7.22 9.67-7.25c5.48-.02 8.83 3.13 18.64 11.99 9.81 8.85 19.69 16.23 31.4 17.42 9.26.94 17.89-.59 17.89-.59s1.46 1.54 3.49 6.24c1.52 3.51 2.56 12.95 2.56 12.95s1.98 1.43 9.67 4.1 16.42 1.56 21.79.24c7.69-1.9 10.25-6.24 10.25-6.24s-2.16 3.98-2.68 6.36zM198.06 18.65s2.38-.02 3.78.18c1.7.24 3.12-.18 3.12-.18s.56.59 1.66.83 1.93-.83 1.93-.83.47.95.47 1.66.01 3.85-4.05 4.4c-3.18.43-5.35-2.9-6.32-4.8-.09-.02-.17-.05-.26-.06.07 0 .15 0 .22-.01-.35-.69-.54-1.18-.54-1.18zm-.75-1.27c-.36-1.51-.39-1.99 0-2.95 1.21-.8 5.69-.48 6.8-.54-.67.94-1.22 2.73.03 3.67-2.54.45-5.53.37-6.83-.18m122.5 36.59c-1.59 1.11-4.62 2.41-6.72 3.07-10.13 3.22-23.39.38-30.83-4.02-.95-7.09-2.46-14.75-6.49-19.39-9.96 2.15-20.46 1.52-28.74-1.89-5.85-2.41-14.33-8.95-16.69-11.11-2.41-2.21-4.64-4.33-6.95-6.62-4.4-4.36-10.83-9.83-17.85-8.75-5.05.78-10.14 5.63-9.27 12.06.65 4.82 7.24 11.44 12.05 8.04 2.42-1.71 3.62-8.03.23-8.75-2.03 2.92-3.16 1.58-3.94.94-.67-.89-.63-2.91.23-3.55 9.18-4.81 11.81 13.18 2.55 15.13-8.57 1.26-15.92-8.86-13.91-16.79 1.3-5.11 7.17-10.68 14.37-9.93 2.09.22 4.12.69 6.26 1.66 10.63 4.8 18.23 17.08 30.13 23.64 9.02 4.97 19.02 5.57 32.22 3.31.27-.11.21-.05.46.24 4.52 4.32 7.17 11.18 7.42 19.15-.07 1.11-1.38.96-1.62 1.89.95.02.93-.95 2.09-.71 6.87 3.4 18.66 6.41 27.58 3.31 2.1-.73 6.62-3.34 6.26-5.67-.64-4.21-12.22-4.58-13.91-1.42.6.81 2.48.31 3.25.94-1.49 3.45-7.85 1.79-9.97 0 .58-2.99 4.67-4.46 7.88-5.2 4.65-1.07 10.62-.27 13.91 1.66 1.2.7 3.69 2.51 3.71 4.02.02 1.4-2.56 3.93-3.71 4.73zm-12.36 1.01c-1.88.28-4.97.45-6.83 0-.19-.87-.48-1.61-.74-2.38-.06-.04-.13-.07-.19-.11.03-.13.03-.27.01-.4h.01c-.12-.38-.22-.77-.3-1.2 2.42 1.18 5.76 1.1 8.11 0-.12 1.38-.19 2.48-.08 4.09zm1.54-5.21s-.04-.02-.06-.02h.06c.04-.34.1-.59.13-.81-.09-.02-.18-.05-.26-.07.09 0 .18-.02.27-.02.02-.25 0-.46-.15-.72-.05-.09-.13-.16-.21-.24-.28-.03-.56-.06-.84-.06l.59-.12s.05-.01.08-.01c-.4-.34-.89-.56-.89-.56s1.07-.82 5.36 0 4.19 1.83 4.19 2.43-.38 1.56-2.52 2.77c-2.33 1.32-5.05 1.56-5.05 1.56s-.26-.03-.49-1.1c-.1-.07-.21-.12-.33-.17-.12-.07-.25-.15-.39-.2l.43-.12c.06 0 .12-.02.19-.03-.03-.2-.06-.42-.09-.67-.06-.02-.11-.04-.17-.05-.22-.07-.45-.13-.67-.17l.7-.11h.12a7 7 0 0 1 .02-1.47z"/><path fill="#000" d="m16.8 47.81-.08-.02s-.01.02-.02.02zm-8.84 2.65.39-.23c-.02-.05-.05-.1-.07-.15-.11.12-.22.25-.32.37z" opacity=".76"/><path fill="#000" d="M15.62 47.58c-.4-.04-.8-.06-1.21-.07-.41 0-.81.05-1.21.1-.4.06-.8.13-1.2.23-.78.26-1.52.6-2.22 1.01l-.5.35c-.16.12-.32.25-.47.38-.15.14-.29.28-.44.42a.6.6 0 0 0-.07.09c.02.05.04.1.07.15l.13-.08.52-.28.52-.26.53-.24c.69-.33 1.42-.59 2.16-.78.36-.12.73-.23 1.11-.32s.75-.15 1.14-.22c.38-.07.77-.12 1.16-.16.36-.07.72-.08 1.09-.08 0 0 .01-.02.02-.02l-.51-.1c-.2-.03-.4-.07-.6-.11zm-1.32 1.2c-.27-.01-.52.05-.79.09-.26.05-.53.09-.78.17-.5.2-.97.45-1.42.74-.43.3-.82.66-1.16 1.07.49-.19.97-.39 1.43-.58.45-.22.91-.4 1.38-.52.23-.09.45-.19.69-.25.24-.08.48-.12.72-.21.24-.08.49-.15.74-.2q.375-.12.75-.21c-.26-.02-.52-.05-.78-.07h-.79zm.19.92c-.22.04-.43.08-.65.13q-.315.09-.63.21c-.38.21-.74.46-1.08.71-.33.27-.64.56-.92.9.44-.08.84-.23 1.23-.39.37-.19.75-.36 1.11-.51.17-.1.35-.2.53-.28.17-.1.36-.18.55-.25.18-.09.38-.16.57-.25.19-.1.39-.17.6-.23a8 8 0 0 1-.65-.06c-.22-.02-.44 0-.66.02m-3.09 3.26c.12-.05.24-.09.36-.13a1 1 0 0 1-.16-.07c-.06.07-.13.13-.2.19zm5.17-1.61-.12-.02v.05c.04 0 .08-.02.13-.03zm-1.41-.14c-.47.05-.94.11-1.4.23-.44.17-.88.37-1.28.6q-.3.195-.57.42c-.11.09-.21.2-.31.3.06.02.11.04.16.07.1-.03.2-.07.3-.1l.64-.22c.42-.16.84-.3 1.27-.4l.63-.22c.21-.06.43-.12.64-.17.22-.06.43-.15.65-.2.18-.06.36-.1.55-.14v-.05l-.57-.09c-.23 0-.47-.05-.71-.04zm18.39 42.37c.26-.09.52-.14.78-.21s.53-.11.79-.13c.27-.06.53-.06.8-.03l-.37-.19c-.13-.05-.25-.11-.38-.18-.26-.07-.53-.13-.79-.16-.27-.03-.54 0-.82.05-.27.05-.55.12-.82.21-.55.28-1.08.66-1.6 1.13l-.38.41-.36.45c-.12.16-.23.34-.34.51-.11.18-.21.37-.32.56l.38-.35.38-.32.38-.3.38-.27q.75-.57 1.53-.84c.26-.13.51-.24.77-.33zm1.49 1.09c.24-.06.47-.14.71-.18.24-.06.49-.07.74-.14.25-.05.5-.1.75-.13.25-.06.51-.1.77-.13-.26-.04-.51-.1-.77-.15-.26-.03-.52-.06-.78-.08-.26-.04-.53 0-.79 0-.26.03-.53.04-.8.09-.52.15-1.01.36-1.48.59-.46.26-.88.58-1.26.95.51-.14 1-.29 1.48-.44.47-.17.94-.31 1.43-.39zm2.04.75c-.22-.02-.44-.03-.66-.04-.22 0-.44.03-.66.05-.43.11-.83.27-1.22.42-.39.18-.76.39-1.12.65.44.03.87-.01 1.29-.07.41-.09.81-.17 1.21-.22.19-.06.38-.1.58-.14.19-.05.39-.09.59-.11.2-.05.4-.06.61-.1.21-.05.42-.07.63-.08-.2-.06-.4-.14-.61-.21s-.42-.1-.64-.14zm1.04 2.57-.19-.16s-.03.09-.05.13c.08.01.16.02.23.04z" opacity=".76"/><path fill="#000" d="M37.33 97.39c-.31-.11-.63-.22-.97-.27-.35 0-.71.03-1.08.1-.18.05-.37.11-.55.18s-.37.17-.55.27c.18 0 .35.01.51.02l.5.03c.33 0 .66.02.97.07l.49.02q.24.015.48.06c.16.02.34 0 .5.04.09 0 .17.03.26.04.02-.04.03-.09.05-.13l-.19-.16c-.14-.08-.27-.2-.42-.27m251.52-3.68c.26.02.53.06.79.13s.52.12.78.21.52.21.77.33q.78.27 1.53.84l.38.27.38.3.38.32.38.35c-.1-.19-.21-.37-.32-.56-.11-.17-.22-.34-.34-.51-.12-.15-.24-.31-.36-.45l-.38-.41c-.52-.48-1.05-.86-1.6-1.13-.28-.1-.55-.16-.82-.21-.27-.04-.55-.07-.82-.05-.27.04-.53.09-.79.16-.13.07-.25.13-.38.18l-.37.19c.26-.02.53-.03.8.03zm-1.37 1.1c.25.07.49.08.74.14.24.04.48.12.71.18.48.08.96.21 1.43.39.48.15.97.3 1.48.44-.38-.37-.8-.69-1.26-.95-.47-.24-.96-.44-1.48-.59a7 7 0 0 0-.8-.09c-.27-.01-.53-.05-.79 0-.26.02-.52.05-.78.08l-.77.15c.26.03.51.08.77.13.25.03.51.08.75.13zm.74 1.1c-.22-.03-.44-.05-.66-.05s-.44.02-.66.04c-.22.04-.43.07-.64.14-.21.08-.41.15-.61.21.21 0 .43.03.63.08.21.04.41.06.61.1.2.02.4.06.59.11.19.04.39.09.58.14.39.06.8.13 1.21.22.41.06.84.11 1.29.07-.36-.26-.73-.47-1.11-.65-.39-.15-.79-.31-1.22-.42zm-2.23 2.52s-.01-.06-.02-.08l-.12.1s.09-.01.14-.02" opacity=".76"/><path fill="#000" d="M286.35 98.37c.16-.04.34-.02.5-.04q.24-.045.48-.06l.49-.02c.31-.05.64-.08.97-.07l.5-.03c.17 0 .34-.02.51-.02-.18-.09-.36-.19-.55-.27-.18-.08-.37-.13-.55-.18-.36-.07-.72-.1-1.08-.1-.34.05-.66.15-.97.27-.15.07-.28.19-.42.27l-.26.23s.01.06.02.08c.12-.02.23-.05.36-.06M13.19 53.48c.06-.03.14-.04.21-.06h.04c-.06-.02-.11-.03-.16-.05-.03.04-.05.08-.08.11z" opacity=".76"/><path fill="#000" d="M14.03 53.32c.25-.09.5-.16.75-.22.23-.13.47-.23.72-.31.11-.09.24-.14.37-.2.12-.07.25-.15.39-.2l-.43-.12c-.15-.02-.29-.02-.44-.06-.29.02-.58.07-.87.13-.27.13-.52.28-.76.44-.11.1-.22.2-.31.32-.04.07-.09.13-.12.21-.02.02-.04.05-.05.07.06.02.11.03.16.05h.2c.14-.02.27-.05.4-.09zm11.01-2.34s-.01-.05 0-.07l-.1.03c0 .05 0 .1-.01.14.04-.03.08-.07.12-.1z" opacity=".76"/><path fill="#000" d="m23.81 51.31-.46.11-.45.11-.46.09c-.31.04-.62.08-.92.1-.61.1-1.24.12-1.86.07l-.47-.02-.48-.04c-.16-.02-.32-.04-.48-.05l-.49-.07c.28.19.57.35.88.49.31.13.63.23.96.32.66.12 1.34.17 2.03.14l.5-.09.5-.12q.495-.135.96-.33c.3-.16.6-.31.88-.51l.39-.32s.07-.06.11-.09c0-.04 0-.09.01-.14-.22.09-.44.18-.67.23-.16.04-.31.08-.46.13zm-1.97 2.34.38-.09.37-.12c.24-.11.48-.22.7-.36l.61-.48c-.24.08-.49.13-.74.15-.13.01-.24.04-.36.06l-.36.05c-.23.04-.47.07-.7.1-.24.02-.47.03-.71.03-.47.05-.94.05-1.42 0-.24 0-.48-.03-.73-.06-.24-.04-.49-.06-.74-.11.21.15.42.3.65.42s.47.21.72.3c.5.13 1.02.21 1.55.22.26-.03.52-.06.78-.11m-8.45 9.49c-.86-.27-1.69-.59-2.49-.97-.83-.32-1.64-.7-2.44-1.12-.82-.39-1.64-.79-2.5-1.13.69.62 1.41 1.18 2.18 1.7.78.49 1.58.95 2.42 1.36.87.34 1.77.61 2.67.8.46.08.92.14 1.37.18.46.02.93.01 1.38.04-.44-.12-.88-.27-1.3-.44-.43-.13-.86-.27-1.29-.43zm.28-1.68q-.72-.165-1.41-.39c-.46-.15-.92-.31-1.37-.5-.92-.31-1.82-.7-2.67-1.18-.44-.22-.86-.47-1.28-.72-.21-.14-.43-.25-.63-.39l-.62-.42c.34.37.67.75 1.04 1.09.18.18.38.33.58.5.19.16.39.32.6.46.84.56 1.75 1.05 2.69 1.44.48.17.97.31 1.47.43.49.12.99.22 1.49.3.5.06 1.01.09 1.51.11.51-.03 1.01-.03 1.51-.04-.49-.08-.98-.17-1.46-.32-.48-.11-.97-.22-1.44-.36zm-7.41-4.18c.38.29.78.56 1.19.82q1.245.735 2.61 1.26c.46.15.93.28 1.4.39l.71.15c.24.05.48.07.72.11.48.04.96.08 1.44.09q.36-.03.72-.03c.24-.01.48-.03.71-.03-.47-.05-.94-.13-1.4-.25l-.69-.14-.68-.17c-.45-.13-.9-.23-1.35-.36-.45-.14-.89-.28-1.32-.45-.89-.28-1.76-.62-2.6-1.03-.43-.19-.85-.4-1.27-.61-.42-.22-.84-.44-1.25-.68l.53.48.55.46zm10.29 28.96c-.31-.04-.62-.05-.93-.08l-.93-.11-.92-.1-.92-.14-.91-.17-.9-.2c-1.21-.23-2.4-.57-3.53-1.04-.29-.11-.57-.24-.85-.36l-.83-.41-.81-.46-.78-.52c.22.22.44.46.67.67.24.21.48.42.73.61.26.18.52.37.79.55.28.16.55.33.83.48 1.15.57 2.37.99 3.61 1.3.63.12 1.26.22 1.89.29l.95.08.95.05c.64 0 1.27-.02 1.9-.07l1.88-.24c-.63-.02-1.26-.06-1.88-.14zM6.42 82.37l.92.49.95.44c1.29.52 2.63.91 4 1.18l1.04.13 1.04.08 1.04.02 1.04-.02 1.04-.1c.34-.04.69-.11 1.03-.16l1.01-.23c.33-.1.67-.18 1-.25-.34.04-.68.08-1.02.1l-1.03.03c-.34.01-.68 0-1.02.02l-1.02-.02-1.01-.03-1.01-.08-1-.12-1-.16c-1.33-.18-2.65-.51-3.93-.93l-.96-.32-.96-.36c-.63-.26-1.26-.52-1.89-.81l.85.58.89.54zm1.62-1.29c.31.14.62.28.93.41 1.26.5 2.57.9 3.91 1.16.34.05.68.08 1.02.12l1.03.06h1.03l1.02-.08 1.01-.17.99-.25c.32-.12.64-.22.96-.35.31-.13.62-.26.94-.38-.32.09-.65.17-.98.24l-.99.14c-.66.09-1.32.13-1.98.16l-.98.02-.98-.04-.98-.1-.97-.15c-1.3-.18-2.59-.5-3.85-.91-.64-.19-1.27-.4-1.9-.63l-.94-.35-.94-.37c.58.35 1.16.69 1.75 1l.91.45zm13.48-19.95c.57 0 1.14-.02 1.71-.03l1.71-.1c2.28-.21 4.54-.61 6.75-1.17l1.64-.49 1.62-.55 1.6-.6 1.58-.65 1.55-.73 1.52-.78c1-.55 1.98-1.13 2.96-1.7l-1.54.73-1.56.68c-1.04.45-2.09.88-3.14 1.29l-1.58.61-1.6.56-1.62.51-1.63.45c-2.17.61-4.39 1.05-6.63 1.33l-1.68.2-1.69.14-1.7.09-1.7.04 1.7.12 1.71.05z" opacity=".76"/><path fill="#000" d="m39.36 58.46-1.64.62-1.66.57-1.68.52-1.69.46c-2.25.63-4.55 1.1-6.87 1.38l-1.75.19-1.75.13-1.76.06h-1.77l1.76.2c.59.04 1.18.08 1.77.1h1.78l1.78-.09c2.37-.21 4.71-.62 7.02-1.2l1.71-.51 1.69-.57 1.67-.62 1.64-.68 1.6-.77c.53-.27 1.04-.56 1.57-.83.51-.3 1.02-.61 1.53-.89.5-.31 1.01-.62 1.52-.91-.52.27-1.05.54-1.58.8-.53.25-1.08.48-1.61.72-1.08.47-2.17.91-3.26 1.33z" opacity=".76"/><path fill="#000" d="M21.75 64.47c.63.03 1.27.04 1.9.06.63 0 1.27-.02 1.9-.02 2.54-.12 5.07-.45 7.56-1l1.84-.5 1.82-.59c.6-.22 1.2-.44 1.79-.67.58-.25 1.17-.49 1.75-.75.57-.28 1.14-.56 1.7-.86.55-.31 1.11-.61 1.66-.93l1.61-1.02c.52-.36 1.05-.71 1.58-1.05-.55.31-1.1.63-1.65.93-.56.29-1.13.57-1.69.84-.57.27-1.14.54-1.71.8-.57.25-1.16.48-1.74.73-.58.24-1.17.46-1.75.69l-1.78.61-1.8.54-1.82.45c-2.43.61-4.91.99-7.41 1.18-.63.04-1.25.1-1.88.14l-1.89.08-1.89.03-1.89-.03 1.89.21c.63.06 1.26.1 1.9.14zm23.6-11.3c.03-.39.06-.78.11-1.17.07-.39.12-.78.2-1.16.14-.77.29-1.53.48-2.29.16-.76.36-1.51.57-2.26l.35-1.11.38-1.1c.48-1.48 1.05-2.93 1.74-4.32.32-.71.69-1.39 1.07-2.08.19-.34.41-.67.6-1.01.21-.33.44-.65.66-.97l-.79.88c-.25.31-.5.61-.74.93-.48.63-.9 1.31-1.31 1.98-.78 1.38-1.44 2.83-2 4.32l-.35 1.14-.31 1.15c-.19.77-.36 1.55-.5 2.33-.1.79-.19 1.58-.22 2.37v1.19c.01.4.04.79.04 1.18z" opacity=".76"/><path fill="#000" d="M49.69 41.12c-.63 1.21-1.19 2.47-1.65 3.76-.2.66-.39 1.32-.55 1.98-.16.67-.3 1.33-.42 2.01-.1.68-.17 1.36-.23 2.03-.04.68-.04 1.36-.09 2.04.06-.33.13-.67.2-1s.17-.66.24-.99c.15-.66.3-1.32.47-1.97q.225-.99.48-1.95c.18-.65.38-1.28.6-1.92.38-1.28.86-2.54 1.41-3.77.26-.62.55-1.23.83-1.85.29-.61.58-1.22.9-1.82-.39.56-.78 1.11-1.15 1.69-.37.57-.71 1.16-1.04 1.76m1.44.99-.52.99c-.64 1.34-1.19 2.73-1.65 4.15l-.28 1.08-.24 1.09-.2 1.1-.15 1.11c-.03.37-.05.75-.07 1.12v1.12c0 .37.05.74.06 1.11.03.37.07.74.09 1.11 0-.37.03-.74.05-1.1.04-.37.09-.73.14-1.09.09-.73.23-1.45.37-2.16.13-.72.28-1.43.45-2.14l.28-1.06.31-1.05c.38-1.41.86-2.79 1.41-4.14.27-.68.54-1.36.84-2.03.15-.34.31-.67.45-1.01l.48-1c-.42.6-.85 1.21-1.24 1.85l-.56.96zM24.49 81.09c.27-.08.54-.15.81-.25l.8-.28c.51-.25 1.01-.51 1.5-.79.24-.16.47-.31.7-.49.23-.17.44-.36.65-.55-.55.16-1.08.34-1.61.53-.51.22-1.02.42-1.54.61-.5.24-1 .46-1.51.69-.25.13-.5.24-.75.38-.24.16-.49.29-.75.41.28-.04.56-.07.85-.09.28-.04.56-.11.84-.16zm3.33-.4c-.52.31-1.05.59-1.6.84-.26.15-.53.29-.8.43l-.41.2c-.13.08-.27.15-.41.21-.27.15-.54.29-.81.43-.26.17-.54.32-.82.45.3-.07.61-.12.92-.16l.9-.23c.29-.1.6-.18.88-.31.29-.11.58-.24.86-.37.54-.31 1.08-.65 1.57-1.04.24-.2.47-.43.68-.66l.3-.36c.09-.13.18-.26.27-.38-.24.19-.52.34-.77.51-.26.16-.53.3-.79.45zm.42 1.22-.26.29q-.105.18-.24.33c.13-.04.27-.06.41-.08l.38-.12.68-.35.59-.48c.09-.09.18-.19.26-.29l.03-.04v-.07c.01-.04.04-.05.06-.08.04-.05.09-.09.14-.13-.06.03-.11.06-.18.08-.03 0-.06.03-.1.02-.02 0-.04 0-.07-.02h-.05c-.13.05-.26.08-.38.13l-.69.33-.6.46zm-2.04 4.11a24 24 0 0 0-3.72 4.87c-.49.9-.91 1.84-1.28 2.8s-.68 1.94-.85 2.97c-.16 1.02-.16 2.1.12 3.11.27 1 .83 1.94 1.64 2.56-.7-.74-1.09-1.69-1.26-2.65s-.09-1.95.11-2.91c.19-.96.52-1.9.9-2.82s.81-1.81 1.31-2.67c.93-1.75 2.11-3.38 3.46-4.84.67-.74 1.38-1.44 2.14-2.1.75-.67 1.53-1.3 2.36-1.88-.9.47-1.76 1-2.6 1.58-.82.61-1.59 1.27-2.33 1.98" opacity=".76"/><path fill="#000" d="M27.76 86.66c-.56.53-1.1 1.08-1.61 1.66-.26.29-.51.58-.75.88-.25.3-.49.6-.71.92-.87 1.29-1.58 2.68-2.1 4.14-.12.37-.25.73-.33 1.11-.09.38-.2.75-.25 1.13-.06.38-.13.76-.16 1.14l-.07 1.15.27-1.11c.08-.37.21-.73.31-1.09.09-.37.24-.72.36-1.07.11-.36.27-.7.41-1.05.56-1.39 1.31-2.7 2.19-3.9.2-.31.42-.62.65-.92.22-.3.46-.6.7-.88.47-.58.98-1.14 1.51-1.68.51-.56 1.04-1.1 1.58-1.63.52-.55 1.06-1.09 1.6-1.64-.62.44-1.24.89-1.85 1.35-.59.48-1.18.98-1.75 1.49m28.15 16.71 1.28-1.05c1.7-1.4 3.48-2.7 5.35-3.85.46-.3.93-.58 1.4-.87.47-.28.96-.54 1.43-.8.48-.26.98-.49 1.47-.73s1.01-.43 1.51-.65 1.02-.39 1.54-.59c.52-.19 1.05-.32 1.57-.48.53-.15 1.07-.27 1.6-.4.54-.1 1.09-.17 1.64-.24l-1.66.07c-.55.08-1.11.11-1.66.2-.54.13-1.1.22-1.64.37-.53.17-1.08.3-1.6.49-.52.21-1.05.39-1.56.62-.51.24-1.02.45-1.52.71-.49.26-1 .51-1.48.78-.48.28-.97.56-1.45.85a47 47 0 0 0-5.32 4.05l-1.22 1.14c-.4.39-.79.78-1.18 1.18-.38.4-.76.81-1.13 1.22l-1.08 1.27c.81-.76 1.64-1.49 2.46-2.23l1.26-1.08z" opacity=".76"/><path fill="#000" d="m57.06 105.14 1.35-1.12 1.38-1.08c1.84-1.43 3.78-2.72 5.82-3.81 1.01-.57 2.05-1.08 3.11-1.54.53-.24 1.08-.42 1.62-.63s1.1-.34 1.65-.52c.55-.17 1.12-.28 1.68-.43.57-.13 1.14-.2 1.71-.3.57-.08 1.15-.13 1.74-.19.58-.02 1.17-.02 1.75-.02l-1.76-.15c-.59 0-1.18-.03-1.77 0-.59.06-1.18.1-1.76.19-.58.11-1.17.19-1.75.33-.57.16-1.15.29-1.71.49s-1.13.37-1.67.6c-1.1.44-2.17.94-3.22 1.5-2.06 1.16-4 2.53-5.82 4.03-.44.39-.89.77-1.33 1.17l-1.27 1.22-1.22 1.28-1.16 1.32 1.3-1.18 1.32-1.15z" opacity=".76"/><path fill="#000" d="M59.31 105.92c1.2-1.06 2.42-2.08 3.69-3.03.31-.25.62-.49.94-.72.31-.24.64-.46.96-.69s.66-.44.99-.64c.33-.22.68-.4 1.03-.59.68-.41 1.4-.74 2.13-1.03.37-.16.74-.28 1.12-.42.38-.11.77-.2 1.16-.3l-1.19.18c-.39.09-.8.14-1.19.25-.78.23-1.54.5-2.29.82-.36.18-.73.35-1.08.55-.36.19-.71.39-1.05.61q-.525.315-1.02.66c-.34.23-.67.46-.99.71-1.26 1.01-2.45 2.1-3.62 3.2-.57.57-1.13 1.14-1.68 1.72s-1.08 1.18-1.63 1.78c.62-.51 1.26-1 1.87-1.52l1.83-1.55zm19.33-6.44c-.56-.02-1.12-.05-1.69-.06-.56.04-1.13.07-1.69.12-.56.09-1.12.16-1.68.25-.55.14-1.1.25-1.65.41-.54.17-1.08.33-1.61.52-.53.21-1.06.4-1.58.62-.51.24-1.03.47-1.54.71-2 1.06-3.87 2.34-5.62 3.76l-1.27 1.11-1.21 1.17-1.14 1.23-1.08 1.28 1.22-1.15 1.25-1.11 1.28-1.07 1.32-1.02c1.76-1.35 3.63-2.55 5.61-3.53.49-.26.99-.49 1.48-.74.5-.23 1.01-.43 1.52-.65.51-.2 1.04-.37 1.56-.55.53-.16 1.06-.3 1.59-.45.53-.13 1.08-.24 1.62-.36.54-.09 1.09-.16 1.64-.24l1.66-.14c.56 0 1.11.01 1.67.03l-1.67-.18zm.59-6.1.67.02c.22.01.45.05.67.07.44.06.89.08 1.32.18 1.76.26 3.45.83 5.07 1.59.83.34 1.63.73 2.45 1.12s1.64.78 2.48 1.14c.43.17.86.31 1.29.47.44.13.88.27 1.32.38l1.35.26c.46.04.91.11 1.35.17-.44-.11-.88-.21-1.31-.34-.43-.14-.85-.3-1.28-.45l-1.25-.5-1.22-.57c-.81-.38-1.61-.79-2.41-1.21-.8-.41-1.61-.84-2.45-1.22-1.69-.72-3.48-1.26-5.31-1.46-.46-.07-.92-.06-1.38-.07-.23 0-.46-.02-.69 0l-.69.05c-.92.03-1.81.23-2.7.38.91 0 1.81-.06 2.71 0z" opacity=".76"/><path fill="#000" d="M86.59 96.5c-.97-.32-1.96-.59-2.97-.76s-2.04-.23-3.05-.15c1.01.03 2.01.22 2.97.49.97.26 1.91.61 2.84.98 1.87.72 3.69 1.6 5.61 2.33 1.92.67 3.97 1.2 6.06 1.1 1.04-.06 2.06-.29 3.02-.66.95-.4 1.83-.93 2.65-1.52-.86.53-1.8.93-2.77 1.17-.95.28-1.94.4-2.92.38-1.97 0-3.9-.54-5.77-1.24-1.89-.65-3.75-1.46-5.68-2.12z" opacity=".76"/><path fill="#000" d="M97.68 101.54c-1.08 0-2.15-.14-3.2-.35-2.13-.38-4.19-1.14-6.26-1.9-1.04-.36-2.09-.72-3.16-1.03-1.06-.33-2.14-.58-3.22-.8 1.05.35 2.09.72 3.11 1.13 1.03.4 2.04.84 3.05 1.28 2.04.83 4.1 1.72 6.32 2.19 1.11.2 2.25.31 3.38.28.28 0 .56-.03.85-.04.28-.02.56-.03.84-.07.56-.07 1.12-.17 1.67-.3 1.09-.29 2.16-.68 3.13-1.28.96-.61 1.78-1.47 2.2-2.49-.52.99-1.45 1.65-2.42 2.1-.96.49-2.01.79-3.07.98-1.06.23-2.14.3-3.21.3z" opacity=".76"/><path fill="#000" d="m101.75 102.96-1.06.12c-.71.07-1.41.12-2.12.14q-2.115.105-4.2-.27c-1.39-.24-2.76-.66-4.14-1.06-1.38-.39-2.77-.79-4.17-1.14s-2.82-.63-4.23-.9c1.39.39 2.76.82 4.13 1.26 1.36.45 2.71.94 4.08 1.4 1.37.44 2.74.91 4.18 1.21 1.43.31 2.92.44 4.39.4.73-.04 1.46-.11 2.18-.2q.54-.06 1.08-.15c.36-.06.74-.13 1.1-.23 1.44-.4 2.78-1.04 4.02-1.83 1.22-.82 2.35-1.78 3.28-2.92.24-.28.42-.6.63-.9.11-.15.18-.32.26-.48.08-.17.18-.32.24-.5.29-.68.42-1.41.42-2.12-.11 1.45-.93 2.71-1.9 3.71-.95 1.04-2.09 1.9-3.31 2.61-1.21.72-2.51 1.31-3.85 1.64-.34.08-.66.13-1.01.19zm3.46-15.92s-.09.06-.13.09c-.05.02-.12.04-.16.07-.1.07-.17.15-.26.23-.16.17-.29.37-.39.59-.04.1-.05.2-.08.3.09-.15.18-.31.3-.45.18-.22.38-.44.6-.65 0-.02.02-.04.03-.06.03-.05.06-.09.1-.13z" opacity=".76"/><path fill="#000" d="M104.48 87.88q-.165.21-.3.45c-.1.36-.15.72-.15 1.09.03.23.08.46.13.68.06.22.14.44.24.65l.18.3.22.27c.17.16.35.31.55.4-.16-.15-.25-.35-.31-.55-.07-.19-.11-.4-.16-.6-.11-.39-.18-.8-.18-1.19-.05-.39-.05-.8.04-1.18.03-.2.09-.39.16-.58.04-.09.08-.19.13-.29.02-.02.03-.06.04-.09-.22.21-.42.43-.6.65zm2.24-1.86-.26.19c.07-.04.15-.08.23-.12.01-.03.02-.05.03-.08zm-.51.42c-.16.16-.3.33-.42.53-.22.4-.38.84-.43 1.3 0 .23.02.46.05.69l.07.33.1.32c.09.21.2.4.31.59.13.18.27.35.41.52-.06-.21-.11-.42-.14-.63-.05-.2-.08-.41-.1-.61-.07-.4-.1-.79-.05-1.18 0-.39.06-.78.21-1.15.11-.36.28-.71.48-1.06-.08.04-.15.08-.23.12-.09.07-.16.15-.24.23zm3.93-.64h-.05c.01 0 .03 0 .04.01h.02z" opacity=".76"/><path fill="#000" d="M109.18 85.87c-.3.12-.61.32-.83.61-.09.16-.15.33-.19.5s-.04.34-.03.51c.03.17.08.32.14.47.08.15.16.28.24.41 0-.16.01-.31.04-.46 0-.14.04-.29.07-.42.04-.26.12-.5.27-.68.1-.21.27-.4.5-.55.21-.16.46-.31.73-.46-.01 0-.03 0-.04-.01-.14-.01-.28-.04-.42-.02-.16 0-.32.04-.48.09zm-1.05-.3c-.07.04-.13.09-.2.13.05-.01.1-.02.16-.03.01-.03.03-.06.04-.09z" opacity=".76"/><path fill="#000" d="M107.35 86.16c-.21.25-.4.54-.55.85-.1.33-.15.68-.13 1.03.03.17.07.34.12.5l.26.44c0-.16 0-.33.05-.48.01-.15.03-.3.07-.44q.06-.42.24-.81c.07-.27.18-.55.33-.81.06-.14.13-.28.19-.42.05-.11.1-.23.16-.35-.05 0-.11.02-.16.03-.07.04-.15.08-.22.14-.13.1-.25.21-.37.33zm20.39-66.79c-.08 0-.15 0-.23-.01-.01.02-.02.05-.04.08.09-.02.18-.05.26-.07z" opacity=".76"/><path fill="#000" d="m125.2 19.32-2.51.16-2.5.34c-.83.14-1.65.31-2.47.55.85.07 1.7.07 2.54.05l2.52-.15 2.5-.34 1.24-.24.97-.24a.3.3 0 0 1 .04-.08c-.35-.01-.7-.03-1.04-.05zm-6.59 2.63c.36.02.72.03 1.07.03q1.065-.06 2.13-.18c.7-.13 1.39-.29 2.08-.45.34-.1.68-.2 1.02-.32.34-.13.67-.26 1.01-.37-.36.02-.72.02-1.08.02-.36.01-.71.04-1.06.07l-2.1.27c-.69.14-1.38.27-2.07.38-.69.13-1.38.27-2.08.44.36.06.71.11 1.07.13zm4.81.28-1.54.16-1.51.35q-.375.105-.75.24c-.25.08-.49.19-.74.29.26.01.53.04.79.04h.78l1.54-.15 1.51-.33.74-.26c.24-.1.49-.2.74-.29-.26 0-.53-.02-.79-.04h-.79zM57.21 36.65l2.11.19 2.12.07c2.83 0 5.65-.3 8.42-.87.69-.17 1.38-.33 2.06-.51.68-.2 1.36-.39 2.03-.61.67-.23 1.34-.45 2-.7.66-.26 1.32-.51 1.97-.78.64-.3 1.29-.58 1.92-.89.63-.32 1.26-.63 1.88-.96l1.82-1.06 1.78-1.13-1.87.97-1.9.9c-.63.3-1.28.58-1.91.87-.64.28-1.3.53-1.94.79-.65.26-1.31.49-1.96.74-.66.23-1.33.43-1.99.65-.67.2-1.34.38-2.01.57-.68.17-1.36.31-2.04.47-2.72.62-5.49.97-8.28 1.04l-2.09.02-2.1-.08-2.09-.17-2.09-.25 2.07.43 2.09.31z" opacity=".76"/><path fill="#000" d="M73.73 35.87c-3.05 1.03-6.21 1.75-9.43 2.02-3.21.26-6.48.1-9.62-.75 3.1.97 6.39 1.3 9.64 1.12 3.26-.18 6.48-.83 9.59-1.81 3.11-1 6.11-2.31 8.97-3.89 2.86-1.57 5.55-3.47 8.09-5.49 2.54-2.04 4.99-4.17 7.42-6.32s4.84-4.32 7.3-6.41c1.23-1.05 2.46-2.1 3.75-3.07s2.59-1.93 4.02-2.66c.7-.36 1.47-.6 2.25-.8.78-.19 1.58-.33 2.38-.4s1.61-.1 2.42-.03c.8.07 1.61.21 2.34.57-.72-.39-1.53-.57-2.33-.67-.81-.1-1.63-.11-2.44-.07s-1.63.15-2.43.31c-.8.17-1.6.38-2.36.73-1.48.72-2.82 1.66-4.15 2.61-1.32.96-2.58 1.98-3.84 3.01-2.5 2.08-4.92 4.23-7.37 6.35s-4.91 4.23-7.45 6.23c-2.51 2.04-5.12 3.92-7.94 5.5-2.8 1.58-5.76 2.91-8.81 3.93z" opacity=".76"/><path fill="#000" d="M118.87 8.29c-1.63.24-3.23.69-4.74 1.4-2.96 1.46-5.69 3.33-8.27 5.36-5.14 4.11-9.65 8.9-14.69 13.03-2.49 2.1-5.14 3.99-7.99 5.55a47.5 47.5 0 0 1-8.96 3.8c-3.11.96-6.32 1.59-9.56 1.83-3.25.24-6.53.1-9.75-.54 3.18.78 6.49 1.07 9.77.93 3.29-.14 6.56-.69 9.73-1.6 3.16-.93 6.23-2.2 9.13-3.76 2.91-1.56 5.63-3.46 8.17-5.55 5.06-4.22 9.51-9.05 14.56-13.17 2.51-2.07 5.17-3.98 8.05-5.5a17 17 0 0 1 4.59-1.57c.8-.15 1.61-.24 2.42-.22.81.03 1.64.16 2.34.6-.68-.47-1.52-.65-2.33-.71-.82-.06-1.65 0-2.46.11z" opacity=".76"/><path fill="#000" d="M101.27 22.14c1.28-1.23 2.58-2.47 3.87-3.67 1.29-1.21 2.65-2.34 4.05-3.43 1.4-1.08 2.84-2.13 4.35-3.03 1.51-.87 3.18-1.5 4.88-1.94.86-.21 1.73-.37 2.61-.44.88-.06 1.78-.04 2.64.19-.84-.3-1.75-.41-2.65-.41s-1.8.1-2.68.27c-1.77.35-3.49.92-5.11 1.77-1.58.9-3.04 1.93-4.48 3a56 56 0 0 0-4.17 3.4c-1.3 1.24-2.56 2.5-3.82 3.76s-2.51 2.54-3.78 3.78c-1.25 1.26-2.55 2.46-3.95 3.55-.69.56-1.4 1.09-2.13 1.61-.72.52-1.46 1.03-2.2 1.51 1.53-.92 3.08-1.8 4.55-2.82 1.47-1.03 2.85-2.19 4.16-3.41 1.3-1.23 2.57-2.48 3.86-3.71z" opacity=".76"/><path fill="#000" d="M117.16 11.63c-2.37.78-4.51 2.11-6.47 3.61-3.91 3.05-7.16 6.81-10.82 10.02-1.81 1.63-3.75 3.12-5.75 4.52-2.01 1.4-4.08 2.7-6.22 3.88-2.13 1.2-4.32 2.29-6.59 3.21-2.26.92-4.6 1.71-7.05 1.97 2.46-.14 4.87-.78 7.2-1.59 2.32-.85 4.56-1.88 6.75-3.03 2.18-1.16 4.28-2.45 6.33-3.84 2.04-1.39 4.02-2.87 5.89-4.5 3.68-3.32 6.83-7.11 10.64-10.17 1.89-1.54 3.94-2.89 6.22-3.75 2.27-.86 4.77-1.17 7.2-.75-1.2-.24-2.44-.35-3.68-.28-1.23.07-2.46.31-3.64.7zm26.91 66.17c.85-.21 1.71-.35 2.57-.41.43-.06.86-.1 1.29-.13.43-.02.87-.02 1.3 0 .44 0 .87.02 1.31.06l.67.04.67.07-.62-.28-.64-.24c-.44-.12-.88-.22-1.34-.3-.45-.05-.91-.09-1.37-.1-.46 0-.92 0-1.37.03-.91.13-1.8.35-2.66.64-.43.16-.84.34-1.25.55-.4.21-.79.45-1.15.72.43-.12.86-.23 1.3-.35.43-.11.86-.22 1.28-.31zm-.96 1.68c.34-.11.66-.25 1-.34.68-.2 1.36-.35 2.05-.43 1.38-.21 2.79-.21 4.18-.05.35.02.7.05 1.04.1a21 21 0 0 1 3.1.61c.69.16 1.37.36 2.04.57.34.1.68.2 1.02.31l1.01.36-.93-.54c-.31-.17-.64-.34-.96-.5-.66-.29-1.33-.57-2.01-.81-.69-.22-1.39-.41-2.1-.56-.35-.08-.71-.15-1.07-.2-.36-.07-.72-.11-1.08-.15-1.45-.09-2.92-.03-4.35.27-.71.16-1.41.39-2.07.69-.34.13-.65.34-.96.5-.32.18-.59.42-.89.61.15-.1.33-.15.49-.22s.32-.16.49-.21z" opacity=".76"/><path fill="#000" d="M158.86 82.14c-.35-.22-.69-.43-1.06-.62l-.54-.29-.55-.26-.56-.24-.58-.21c-.38-.15-.77-.27-1.17-.39-.39-.13-.79-.22-1.19-.31-.4-.1-.8-.17-1.21-.23-1.64-.18-3.3-.14-4.91.2-.4.09-.8.17-1.19.32-.38.14-.78.24-1.15.42-.37.17-.75.33-1.1.53s-.7.42-1.05.61c.36-.17.74-.32 1.11-.48s.76-.25 1.14-.38c.37-.14.77-.2 1.16-.29.38-.1.78-.14 1.17-.2 1.57-.22 3.16-.2 4.71.06.39.05.78.1 1.17.18.39.07.78.15 1.16.26.38.1.77.2 1.14.33l.56.19.55.22.56.21.55.24c.37.15.73.33 1.08.51.73.33 1.44.71 2.12 1.14-.32-.25-.61-.53-.93-.78-.33-.24-.64-.5-.99-.72zm149.72-34.46s-.05.01-.08.01l-.59.12c.28 0 .56.03.84.06-.06-.07-.11-.13-.18-.19zm1.69.38c.38.07.76.14 1.14.22.37.09.74.2 1.11.32.74.18 1.47.44 2.16.78l.53.24.52.26.52.28.52.3c-.13-.15-.26-.31-.39-.46-.14-.14-.29-.29-.44-.42-.16-.13-.31-.26-.47-.38l-.5-.35c-.7-.41-1.45-.75-2.22-1.01-.4-.1-.8-.17-1.2-.23-.4-.05-.81-.1-1.21-.1-.41 0-.81.03-1.21.07-.17.04-.35.07-.52.1.07.06.12.13.18.19.11.01.23 0 .34.03.39.03.78.09 1.16.16zm-1.42.8c.09.02.18.05.26.07v-.1c-.09 0-.18.02-.27.02z" opacity=".76"/><path fill="#000" d="M310.34 49.27c.24.09.48.13.72.21.24.07.46.17.69.25.47.13.93.31 1.38.52.46.19.93.4 1.43.58-.34-.4-.73-.76-1.16-1.07a8.7 8.7 0 0 0-1.42-.74c-.26-.07-.52-.12-.78-.17-.26-.04-.52-.1-.79-.09h-.79c-.17.02-.34.03-.51.05v.1c.16.04.33.08.49.13.25.06.5.13.74.2zm-1.41.47s.04.02.06.02v-.03h-.06zm1.17.48c.19.07.37.15.55.25.18.08.35.18.53.28q.555.225 1.11.51c.39.16.79.31 1.23.39-.28-.34-.59-.63-.92-.9-.35-.24-.7-.49-1.08-.71-.21-.08-.41-.15-.63-.21-.22-.05-.43-.09-.65-.13-.22-.01-.44-.03-.66-.02-.2.02-.4.04-.59.05v.03c.18.06.37.12.54.21.19.09.39.16.57.25m-1.95 1.13c.23.04.45.1.67.17.06.01.11.03.17.05v-.01c-.01-.12-.01-.21-.02-.32h-.12z" opacity=".76"/><path fill="#000" d="M308.99 51.57c.16.05.33.11.49.15.22.05.43.11.64.17l.63.22c.43.1.85.24 1.27.4l.64.22c.21.08.44.14.66.23-.16-.17-.32-.34-.51-.5a6 6 0 0 0-.57-.42c-.41-.23-.84-.43-1.28-.6-.46-.12-.93-.18-1.4-.23-.2 0-.39.02-.59.03 0 .11 0 .2.02.32zm-.09.7-.43.12c.13.05.26.13.39.2.11.05.22.1.33.17-.03-.15-.07-.33-.1-.53-.06 0-.13.02-.19.03z" opacity=".76"/><path fill="#000" d="M309.94 53.1c.25.05.5.13.75.22.13.03.26.07.4.09.08 0 .15.02.23.01.07.02.14.03.21.06a.8.8 0 0 1-.13-.18c-.03-.08-.08-.14-.12-.21-.09-.12-.2-.22-.31-.32-.24-.16-.5-.31-.76-.44-.29-.05-.58-.1-.87-.13-.09.02-.17.03-.26.03.03.2.06.37.1.53.01 0 .03.01.04.02.25.09.49.18.72.31zm3.88 9.07c-.8.38-1.64.69-2.49.97-.42.16-.85.3-1.29.43-.43.17-.86.32-1.3.44.46-.03.92-.03 1.38-.04.46-.05.92-.11 1.37-.18.91-.19 1.8-.46 2.67-.8.84-.4 1.64-.87 2.42-1.36.76-.52 1.49-1.08 2.18-1.7-.86.34-1.69.73-2.5 1.13-.8.42-1.61.81-2.44 1.12zm3.97-3.5c-.42.26-.85.51-1.28.72-.85.48-1.75.87-2.67 1.18-.45.19-.91.35-1.37.5s-.94.28-1.41.39c-.47.14-.95.25-1.44.36-.48.15-.97.24-1.46.32.5.01 1 .01 1.51.04.5-.01 1.01-.05 1.51-.11.5-.08 1-.18 1.49-.3.5-.11.98-.26 1.47-.43.94-.39 1.84-.88 2.69-1.44.21-.14.41-.3.6-.46.2-.16.39-.32.58-.5.37-.34.71-.72 1.04-1.09l-.62.42c-.21.14-.43.26-.63.39zm-.77-1.03c-.84.4-1.71.75-2.6 1.03q-.66.24-1.32.45c-.45.13-.9.24-1.35.36l-.68.17-.69.14c-.46.13-.93.2-1.4.25.24 0 .48.02.71.03q.36 0 .72.03c.48-.01.96-.05 1.44-.09.24-.04.48-.06.72-.11l.71-.15c.47-.11.93-.25 1.4-.39.9-.35 1.78-.77 2.61-1.26.41-.26.8-.53 1.19-.82l.55-.46.53-.48c-.41.24-.83.47-1.25.68s-.84.42-1.27.61zm2.36 26.93-.83.41c-.29.12-.57.25-.85.36-1.13.48-2.32.81-3.53 1.04l-.9.2-.91.17-.92.14-.93.1-.93.11c-.31.03-.62.04-.93.08-.62.08-1.25.12-1.88.14l1.88.24c.63.05 1.27.06 1.9.07l.95-.05.95-.08c.63-.07 1.27-.17 1.89-.29 1.24-.31 2.46-.73 3.61-1.3.28-.15.56-.32.83-.48.27-.17.53-.36.79-.55.25-.2.49-.41.73-.61.23-.22.45-.45.67-.67l-.78.52-.81.46zm-10.65 1.05 1.04.02 1.04-.02 1.04-.08 1.04-.13c1.37-.27 2.71-.66 4-1.18l.95-.44.92-.49.89-.53.85-.58c-.62.29-1.26.56-1.89.81l-.96.36-.96.32c-1.28.43-2.6.75-3.93.93l-1 .16-1 .12-1.01.08-1.01.03-1.02.02c-.34-.02-.68 0-1.02-.02l-1.03-.03c-.34-.02-.68-.06-1.02-.1.33.08.67.16 1 .25l1.01.23c.34.05.68.12 1.03.16l1.04.1zm-2.53-2.36.99.25 1.01.17 1.02.07h1.03l1.03-.06c.34-.04.68-.07 1.02-.12 1.35-.26 2.65-.66 3.91-1.16.31-.14.62-.27.93-.41l.91-.45c.6-.31 1.18-.66 1.75-1l-.94.37-.94.35c-.63.22-1.26.43-1.9.63-1.26.41-2.55.73-3.85.91-.32.06-.65.1-.97.15l-.98.1-.98.04-.98-.02c-.66-.03-1.32-.06-1.98-.16l-.99-.14c-.33-.07-.65-.15-.98-.24.31.12.62.25.94.38.31.13.64.23.96.35zm-21.18-25.52 1.55.73 1.58.65 1.6.6 1.62.55 1.64.49c2.22.56 4.48.96 6.75 1.17l1.71.1c.57.01 1.14.03 1.71.03l1.71-.05 1.7-.12-1.7-.04-1.7-.09-1.69-.14-1.68-.2c-2.24-.28-4.46-.72-6.63-1.33l-1.63-.45-1.62-.51-1.6-.56-1.58-.61c-1.06-.41-2.1-.84-3.14-1.29l-1.56-.68-1.54-.73c.99.56 1.97 1.14 2.96 1.7l1.52.78z" opacity=".76"/><path fill="#000" d="M280.42 57.46c.52.29 1.02.6 1.53.89.53.27 1.04.56 1.57.83l1.6.77 1.64.68 1.67.63 1.69.57 1.71.51c2.31.58 4.65.99 7.02 1.2l1.78.09h1.78c.59-.03 1.18-.07 1.77-.11l1.76-.21h-1.77l-1.76-.04-1.75-.13-1.75-.19c-2.32-.27-4.62-.74-6.87-1.38l-1.69-.46-1.68-.52-1.66-.57-1.64-.62c-1.1-.41-2.19-.86-3.26-1.33-.54-.24-1.08-.47-1.61-.72-.53-.26-1.06-.52-1.58-.8.51.3 1.01.6 1.52.91z" opacity=".76"/><path fill="#000" d="m302.97 65.05-1.89-.08c-.63-.03-1.25-.09-1.88-.14-2.5-.19-4.99-.57-7.41-1.18l-1.82-.45-1.8-.54-1.78-.61c-.58-.23-1.17-.45-1.75-.69-.58-.25-1.16-.48-1.74-.73-.57-.26-1.14-.53-1.71-.8s-1.13-.55-1.69-.84c-.56-.3-1.1-.61-1.65-.93.53.35 1.06.69 1.58 1.05l1.61 1.02c.55.32 1.11.61 1.66.93.56.3 1.13.57 1.7.86.58.26 1.17.5 1.75.75.59.24 1.19.45 1.79.67l1.82.59 1.84.5c2.49.55 5.02.88 7.56 1 .64 0 1.27.03 1.9.02.63-.02 1.27-.02 1.9-.06s1.26-.08 1.9-.14l1.89-.21-1.89.03-1.89-.03zm-28.51-27.38c.38.69.75 1.37 1.07 2.08.69 1.4 1.26 2.84 1.74 4.32l.38 1.1.35 1.11c.21.75.41 1.5.57 2.26.2.75.34 1.52.48 2.29.08.38.13.77.2 1.16.05.39.09.78.11 1.17 0-.39.03-.79.04-1.18 0-.39.01-.79 0-1.19-.03-.79-.12-1.58-.22-2.37-.14-.78-.31-1.56-.5-2.33l-.31-1.15-.35-1.14c-.56-1.49-1.23-2.94-2-4.32-.41-.68-.84-1.35-1.31-1.98-.23-.32-.49-.62-.74-.93l-.79-.88c.23.32.45.64.66.97.2.34.41.67.6 1.01z" opacity=".76"/><path fill="#000" d="M277.88 50.9c-.06-.68-.13-1.36-.23-2.03q-.18-1.005-.42-2.01c-.16-.67-.35-1.33-.55-1.98a31.5 31.5 0 0 0-1.65-3.76c-.33-.6-.67-1.19-1.04-1.76-.36-.58-.76-1.13-1.15-1.69.32.6.61 1.21.9 1.82.28.62.57 1.23.83 1.85.55 1.23 1.03 2.48 1.41 3.77q.33.945.6 1.92t.48 1.95c.17.65.32 1.31.47 1.97.07.33.17.66.24.99s.14.66.2 1c-.05-.68-.05-1.36-.09-2.04m-1.23.73-.15-1.11-.2-1.1-.24-1.09-.28-1.08c-.46-1.42-1.01-2.81-1.65-4.15l-.52-.99-.56-.96c-.38-.64-.81-1.24-1.24-1.85l.48 1c.14.34.3.67.45 1.01.29.67.57 1.35.84 2.03.55 1.35 1.03 2.74 1.41 4.14l.31 1.05.28 1.06c.17.71.32 1.42.45 2.14.14.72.28 1.43.37 2.16.05.36.11.73.14 1.09.03.37.05.74.05 1.1.02-.37.06-.74.09-1.11.01-.37.06-.74.07-1.11v-1.12c-.03-.37-.05-.74-.09-1.12zm24.24 29.86c-.51-.23-1.01-.45-1.51-.69-.52-.19-1.03-.39-1.54-.61-.52-.19-1.06-.37-1.61-.53.21.19.43.38.65.55.23.17.46.33.7.49.49.28.99.54 1.5.79l.8.28c.27.09.54.17.81.25.28.06.55.12.84.16.29.02.57.05.85.09-.26-.12-.51-.25-.75-.41-.25-.14-.5-.25-.75-.38zm-.32 1.82c-.14-.06-.27-.13-.41-.21l-.41-.21c-.27-.14-.54-.28-.8-.43-.55-.25-1.08-.53-1.6-.84-.26-.15-.53-.29-.79-.45s-.53-.31-.77-.51c.1.12.19.25.27.38.1.12.2.25.3.36.22.23.44.45.68.66.5.39 1.03.72 1.57 1.04.28.13.57.26.86.37.29.13.59.21.88.31l.9.23c.31.04.62.09.92.16-.28-.13-.55-.27-.82-.45-.28-.14-.55-.28-.81-.43zm-3.63-.47-.6-.46-.69-.33c-.12-.05-.25-.08-.38-.12h-.12c-.04 0-.07-.02-.1-.02-.06-.02-.12-.04-.18-.08.05.04.1.08.14.13.02.03.05.04.06.08v.07l.03.04c.09.1.17.2.26.29l.59.48.68.35.38.12c.14.02.28.04.41.08-.09-.1-.16-.21-.24-.33l-.26-.29zm-3.35-.38c.83.58 1.62 1.21 2.36 1.88.76.66 1.47 1.36 2.14 2.1 1.36 1.46 2.53 3.08 3.46 4.84.5.86.93 1.76 1.31 2.67.38.92.71 1.86.9 2.82.21.96.28 1.94.11 2.91-.17.96-.56 1.91-1.26 2.65.81-.62 1.37-1.56 1.64-2.56.28-1.01.28-2.08.12-3.11-.18-1.03-.49-2.01-.85-2.97-.37-.96-.78-1.9-1.28-2.8a24 24 0 0 0-3.72-4.87c-.74-.71-1.52-1.37-2.33-1.98a26 26 0 0 0-2.6-1.58" opacity=".76"/><path fill="#000" d="m302.94 98.79-.07-1.15c-.03-.38-.1-.76-.16-1.14-.05-.38-.16-.75-.25-1.13-.08-.38-.21-.74-.33-1.11-.52-1.46-1.23-2.85-2.1-4.14-.22-.32-.46-.62-.71-.92-.24-.31-.49-.6-.75-.88-.51-.58-1.05-1.13-1.61-1.66a41 41 0 0 0-1.75-1.49c-.61-.46-1.23-.91-1.85-1.35.54.54 1.08 1.08 1.6 1.64.54.53 1.07 1.07 1.58 1.63.52.54 1.03 1.1 1.51 1.68.24.29.48.58.7.88.23.3.45.6.65.92.88 1.21 1.63 2.51 2.19 3.9.15.34.3.69.41 1.05.12.36.27.71.36 1.07.1.36.23.72.31 1.09zm-49.01-3.45c.51.2 1.03.38 1.53.61.49.24 1 .44 1.49.7.48.26.98.49 1.45.77s.95.55 1.41.85c.45.31.92.6 1.37.92.44.33.89.64 1.32.98 1.77 1.29 3.45 2.73 5.03 4.26l1.19 1.15 1.17 1.17c.77.8 1.53 1.6 2.28 2.42l-.98-1.35c-.34-.44-.68-.88-1.03-1.31-.36-.42-.72-.85-1.08-1.27l-1.13-1.23a49 49 0 0 0-4.99-4.46c-.45-.33-.92-.64-1.38-.96-.46-.31-.95-.6-1.42-.9-.48-.29-.97-.55-1.46-.83-.49-.27-1-.5-1.5-.74-.51-.23-1.04-.41-1.56-.62-.52-.19-1.07-.33-1.6-.5-.54-.14-1.1-.22-1.64-.34l-1.65-.2c.54.11 1.09.23 1.62.36.53.17 1.05.33 1.57.52z" opacity=".76"/><path fill="#000" d="M250.77 95.94c.56.16 1.12.3 1.67.49.54.21 1.09.38 1.62.61.53.24 1.07.43 1.59.7.51.27 1.04.51 1.54.8 1.01.57 1.98 1.2 2.92 1.88a40.6 40.6 0 0 1 5.36 4.43l1.25 1.22 1.21 1.26 1.19 1.29 1.16 1.32-1.01-1.44-1.07-1.4-1.13-1.35c-.39-.44-.79-.87-1.19-1.31-1.64-1.69-3.41-3.27-5.33-4.65-.98-.67-1.99-1.29-3.03-1.84-.51-.29-1.06-.52-1.59-.78s-1.1-.45-1.64-.68c-.56-.21-1.13-.35-1.7-.52-.57-.15-1.16-.25-1.73-.38-.59-.09-1.18-.12-1.76-.19l-1.76-.04c.58.06 1.17.13 1.74.22.57.13 1.14.24 1.7.38z" opacity=".76"/><path fill="#000" d="M267.58 109.87c-.47-.65-.94-1.3-1.43-1.94-1-1.26-2.03-2.5-3.14-3.67-.28-.29-.58-.56-.88-.84-.29-.28-.6-.54-.92-.8q-.465-.39-.96-.75c-.32-.25-.66-.47-1-.7-.7-.42-1.42-.79-2.16-1.12-.37-.16-.77-.27-1.14-.41l-1.15-.34c.37.15.75.29 1.11.46.36.18.71.36 1.05.57.69.39 1.36.82 1.97 1.32.32.24.64.46.94.72.3.25.61.5.89.78.29.27.58.53.86.81.28.27.56.56.83.85 1.13 1.11 2.19 2.3 3.24 3.51l1.6 1.79c.53.6 1.09 1.18 1.64 1.76-.45-.66-.9-1.33-1.36-1.98zm-2.47.9-.93-1.4-1-1.36c-1.4-1.76-2.96-3.4-4.69-4.87-.44-.35-.9-.68-1.35-1.03-.46-.33-.94-.63-1.41-.95-.48-.3-.98-.57-1.47-.86-.5-.27-1.02-.5-1.52-.75-.52-.21-1.06-.4-1.58-.61-.54-.17-1.09-.31-1.63-.47-.55-.12-1.11-.2-1.66-.3l-1.67-.18c.55.1 1.1.21 1.64.33l1.59.49c.52.19 1.04.38 1.55.58.5.23 1.01.45 1.5.7.49.26.98.51 1.46.78.47.29.95.57 1.41.87.45.32.91.63 1.35.96.43.35.87.68 1.29 1.03 1.72 1.38 3.29 2.95 4.72 4.64l1.07 1.28 1.02 1.32.99 1.35.95 1.38-.78-1.49-.85-1.45zm-22.74-16.91c-.23-.02-.46-.02-.69-.03-.46 0-.92-.04-1.38 0-1.84.12-3.66.57-5.38 1.21-.85.34-1.68.73-2.5 1.11s-1.64.75-2.47 1.1l-1.24.51-1.27.44c-.43.13-.86.27-1.29.39-.44.11-.88.19-1.33.28.45-.04.9-.08 1.36-.1l1.36-.19c.45-.1.89-.22 1.34-.32.44-.14.88-.26 1.31-.41.86-.32 1.7-.67 2.53-1.02.84-.35 1.66-.71 2.5-1 1.65-.68 3.36-1.17 5.14-1.35.44-.08.89-.08 1.33-.12.22-.01.45-.04.67-.04h.67c.9-.02 1.8.08 2.71.13-.88-.19-1.77-.43-2.68-.5l-.68-.08z" opacity=".76"/><path fill="#000" d="M238.41 95.74c-1.01.17-2 .44-2.97.76-1.93.66-3.79 1.48-5.68 2.12-1.87.7-3.8 1.25-5.77 1.24-.98.02-1.97-.1-2.92-.38-.97-.24-1.9-.65-2.77-1.17.82.59 1.7 1.11 2.65 1.52.96.37 1.99.6 3.02.66 2.09.09 4.14-.43 6.06-1.1 1.91-.73 3.73-1.61 5.61-2.33.93-.37 1.87-.71 2.84-.98.97-.26 1.96-.46 2.97-.49-1.01-.08-2.04-.02-3.05.15z" opacity=".76"/><path fill="#000" d="M233.72 99.17c-2.07.76-4.14 1.52-6.26 1.9-1.06.21-2.13.35-3.2.35-1.08 0-2.16-.08-3.21-.3-1.06-.2-2.11-.49-3.07-.98-.97-.44-1.9-1.11-2.42-2.1.42 1.02 1.24 1.89 2.2 2.49.97.59 2.04.99 3.13 1.28.55.14 1.11.23 1.67.3.28.04.56.06.84.07s.56.05.85.04c1.13.03 2.27-.09 3.38-.28 2.22-.47 4.28-1.36 6.32-2.19 1.01-.44 2.02-.87 3.05-1.28 1.02-.41 2.06-.78 3.11-1.13-1.08.23-2.16.48-3.22.8-1.06.31-2.11.67-3.16 1.03z" opacity=".76"/><path fill="#000" d="M229.94 101.66c-1.15.4-2.29.82-3.45 1.06-1.16.25-2.32.34-3.5.27-.59-.02-1.17-.07-1.76-.14l-.88-.12c-.29-.05-.56-.1-.84-.19-1.12-.34-2.2-.92-3.2-1.64-1.01-.71-1.96-1.57-2.75-2.61-.81-1-1.49-2.26-1.58-3.71 0 .72.11 1.45.35 2.12.05.18.13.33.2.5.07.16.13.33.22.48.17.3.33.63.52.9.77 1.14 1.71 2.1 2.73 2.92 1.03.78 2.15 1.43 3.35 1.83.3.1.62.17.92.23l.9.15c.6.09 1.21.16 1.82.2 1.22.04 2.46-.09 3.65-.4 1.2-.3 2.34-.77 3.48-1.21 1.14-.47 2.26-.96 3.39-1.4 1.14-.44 2.28-.87 3.43-1.26-1.18.27-2.36.54-3.52.9-1.17.35-2.32.75-3.47 1.14zm-9.8-13.64s-.04-.08-.07-.11c-.09-.08-.17-.17-.26-.23-.04-.03-.11-.05-.16-.07.17.14.34.27.49.41" opacity=".76"/><path fill="#000" d="m219.51 87.51.1.13c.03.05.04.11.07.15.05.09.09.2.13.29.07.19.13.38.16.58.09.38.1.78.04 1.18 0 .4-.07.8-.18 1.19-.05.2-.09.4-.16.6-.06.2-.15.4-.31.55.2-.09.38-.24.55-.4l.22-.27.18-.3c.1-.21.18-.43.24-.65s.11-.45.13-.68c0-.47-.06-.94-.23-1.38-.08-.18-.19-.33-.31-.48a7 7 0 0 0-.49-.41c-.05-.03-.09-.06-.13-.09zm-.65-.64c-.08-.08-.16-.16-.24-.22l-.27-.19c.09.15.13.29.2.44.21.11.42.22.61.35-.09-.13-.18-.26-.3-.37z" opacity=".76"/><path fill="#000" d="M219.07 88.73c.05.38.02.78-.05 1.18-.02.2-.05.41-.1.61-.03.21-.08.42-.14.63.14-.17.28-.34.41-.52.11-.19.22-.39.31-.59l.1-.32.07-.33c.03-.23.05-.46.05-.69-.05-.46-.21-.91-.43-1.3-.03-.06-.08-.1-.12-.15-.19-.13-.39-.24-.61-.35.11.23.24.46.32.7.14.37.2.76.21 1.15zm-4.13-2.4c-.16-.02-.32 0-.47.02.28.15.53.3.75.47.23.15.39.34.5.55.15.18.23.42.27.68.03.13.06.27.07.42.03.15.04.3.04.46.08-.13.16-.27.24-.41.05-.15.11-.31.14-.47q.015-.255-.03-.51a1.6 1.6 0 0 0-.19-.5c-.22-.3-.53-.49-.83-.61-.16-.05-.32-.09-.48-.09zm2.11-.03c-.13-.1-.28-.18-.42-.26l.09.21c.12.03.24.05.35.08l-.03-.03z" opacity=".76"/><path fill="#000" d="M217.02 86.9c.14.26.26.54.33.81q.18.39.24.81c.04.14.06.29.07.44.04.16.06.32.05.48l.26-.44c.05-.16.1-.33.12-.5.02-.34-.02-.7-.13-1.03-.15-.31-.34-.6-.55-.85-.11-.11-.22-.21-.34-.31-.11-.03-.24-.05-.35-.08.03.08.07.16.1.23.07.14.13.28.19.42zm-18.38-67s-.03-.05-.04-.08c-.07 0-.15 0-.22.01l.26.06zm.97.25c.41.09.83.17 1.24.24l2.5.34 2.52.15c.84.02 1.69.02 2.54-.05-.82-.23-1.65-.4-2.47-.55l-2.5-.34-2.51-.16h-1.27c-.35.02-.7.04-1.05.05.01.02.03.05.04.08l.97.24zm4.81 1.32-2.1-.27c-.35-.03-.71-.05-1.06-.07-.36 0-.72 0-1.08-.02.34.11.67.24 1.01.37.34.12.68.22 1.02.32.69.16 1.38.32 2.08.45q1.065.12 2.13.18c.36 0 .72 0 1.07-.03.36-.02.72-.07 1.07-.13-.7-.17-1.39-.31-2.08-.44-.69-.1-1.38-.23-2.07-.37zm1.33 1.74-1.51-.35-1.54-.16h-.79c-.26.03-.53.05-.79.05.25.09.49.18.74.29l.74.26 1.51.33 1.54.15c.26 0 .52.01.78 0 .26 0 .53-.03.79-.04-.25-.09-.49-.2-.74-.29q-.375-.135-.75-.24zm38.61 9.23c.63.31 1.27.6 1.91.9.64.29 1.3.55 1.95.83.66.26 1.33.48 1.99.72.67.23 1.35.42 2.02.64.68.2 1.37.36 2.05.54.69.16 1.38.3 2.07.45 2.79.48 5.62.69 8.45.61l2.11-.14 2.1-.25 2.08-.37 2.05-.49-2.08.31-2.09.23-2.09.14-2.09.05c-2.79.02-5.58-.25-8.31-.78-.68-.14-1.37-.26-2.05-.41-.68-.17-1.36-.32-2.03-.5-.67-.2-1.34-.38-2.01-.59-.66-.23-1.33-.44-1.98-.68s-1.31-.47-1.96-.73c-.64-.27-1.29-.53-1.94-.81l-1.93-.84-1.9-.91 1.82 1.07z" opacity=".76"/><path fill="#000" d="M207.56 7.88c.8.07 1.6.21 2.38.4.78.2 1.55.44 2.25.8 1.42.73 2.73 1.69 4.02 2.66 1.28.98 2.52 2.02 3.75 3.07 2.47 2.09 4.87 4.27 7.3 6.41 2.43 2.15 4.88 4.28 7.42 6.32 2.54 2.02 5.23 3.92 8.09 5.49a50.6 50.6 0 0 0 8.97 3.89c3.11.98 6.34 1.63 9.59 1.81s6.54-.15 9.64-1.12c-3.14.84-6.41 1.01-9.62.75-3.21-.27-6.38-.99-9.43-2.02a49 49 0 0 1-8.81-3.93c-2.81-1.58-5.42-3.46-7.94-5.5-2.54-2-5-4.1-7.45-6.23-2.45-2.12-4.88-4.27-7.37-6.35-1.26-1.03-2.52-2.05-3.84-3.01-1.32-.95-2.66-1.89-4.15-2.61-.76-.35-1.56-.57-2.36-.73s-1.61-.27-2.43-.31c-.81-.04-1.63-.03-2.44.07s-1.61.29-2.33.67c.73-.36 1.54-.5 2.34-.57s1.61-.04 2.42.03z" opacity=".76"/><path fill="#000" d="M261.47 40.19c-3.25-.25-6.46-.87-9.56-1.83a47 47 0 0 1-8.96-3.8c-2.85-1.56-5.5-3.45-7.99-5.55-5.04-4.12-9.55-8.91-14.69-13.03-2.58-2.03-5.32-3.9-8.27-5.36-1.51-.71-3.11-1.16-4.74-1.4-.82-.12-1.64-.17-2.46-.11s-1.65.24-2.33.71c.7-.44 1.53-.57 2.34-.6.81-.02 1.63.07 2.42.22 1.6.3 3.16.82 4.59 1.57 2.88 1.51 5.54 3.42 8.05 5.5 5.05 4.12 9.51 8.95 14.56 13.17 2.54 2.09 5.26 4 8.17 5.55 2.9 1.56 5.97 2.83 9.13 3.76 3.17.91 6.44 1.46 9.73 1.6 3.28.14 6.59-.15 9.77-.93-3.21.64-6.5.78-9.75.54z" opacity=".76"/><path fill="#000" d="M232.62 29.42c-1.4-1.09-2.7-2.29-3.95-3.55-1.27-1.24-2.51-2.52-3.78-3.78-1.26-1.26-2.52-2.52-3.82-3.76a58 58 0 0 0-4.17-3.4c-1.44-1.07-2.9-2.1-4.48-3-1.61-.85-3.34-1.42-5.11-1.77-.88-.17-1.78-.27-2.68-.27s-1.8.11-2.65.41c.86-.23 1.76-.25 2.64-.19s1.75.22 2.61.44c1.71.44 3.37 1.07 4.88 1.94 1.51.89 2.95 1.95 4.35 3.03 1.4 1.09 2.76 2.22 4.05 3.43 1.29 1.2 2.59 2.44 3.87 3.67s2.55 2.48 3.86 3.71c1.31 1.22 2.69 2.37 4.16 3.41 1.47 1.02 3.03 1.91 4.55 2.82-.75-.49-1.48-.99-2.2-1.51a66 66 0 0 1-2.13-1.61z" opacity=".76"/><path fill="#000" d="M208.58 12.12h.02c.75.29 1.46.66 2.15 1.05-.64-.55-1.2-.9-1.74-1.01-.14-.03-.29-.03-.44-.05z" opacity=".76"/><path fill="#000" d="M225.22 26.32c1.84 1.66 3.79 3.18 5.81 4.6s4.11 2.74 6.26 3.94c2.17 1.18 4.39 2.25 6.7 3.14 2.31.85 4.71 1.53 7.17 1.71-2.45-.3-4.77-1.13-7.02-2.09-2.25-.95-4.43-2.08-6.54-3.32a69 69 0 0 1-6.15-3.98 62 62 0 0 1-5.68-4.61c-3.6-3.28-6.79-7.09-10.65-10.2-1.94-1.54-4.06-2.9-6.41-3.72-1.17-.41-2.4-.67-3.63-.76s-2.47 0-3.68.22c2.43-.38 4.92-.03 7.17.86.15.01.29.02.44.05.53.11 1.09.46 1.74 1.01 1.42.8 2.75 1.75 4 2.8 3.76 3.12 6.85 6.96 10.47 10.35m-45.64 51.1c-1.1-.29-2.24-.51-3.41-.64-.59-.03-1.17-.04-1.76-.03s-1.17.04-1.75.1q-.87.12-1.71.3l-.82.24-.79.28.86-.07.85-.04q.84-.06 1.68-.06c.56-.02 1.11-.02 1.67 0 .55.02 1.11.07 1.65.13 1.1.06 2.21.2 3.29.41.55.09 1.09.2 1.64.31.55.12 1.1.23 1.66.35q-.705-.405-1.47-.72c-.52-.21-1.05-.39-1.6-.55zm-14.28 3.85c.64-.3 1.29-.58 1.96-.82.65-.26 1.31-.51 1.99-.7.33-.11.67-.2 1.01-.28.34-.09.68-.17 1.02-.23 1.36-.33 2.76-.5 4.15-.46.7 0 1.4.06 2.09.18.35.04.69.15 1.04.22.18.03.34.1.51.15.17.06.35.09.51.16-.32-.15-.62-.36-.96-.49s-.67-.29-1.02-.38c-.69-.21-1.41-.36-2.14-.43-1.46-.12-2.92 0-4.35.26-.36.08-.71.17-1.06.28-.35.1-.7.2-1.04.33-.69.23-1.36.51-2.02.81-.65.32-1.28.67-1.9 1.04-.3.21-.6.41-.89.62l-.86.65.96-.48c.32-.15.65-.29.98-.43z" opacity=".76"/><path fill="#000" d="M178.25 80.52c-.38-.16-.78-.23-1.18-.34-.39-.12-.8-.17-1.21-.24-1.63-.23-3.29-.15-4.91.14-.4.08-.8.18-1.19.31q-.6.165-1.17.39c-.39.14-.77.29-1.14.46l-.56.25-.55.28-.54.3-.52.33c-.35.21-.68.45-1.01.69s-.63.52-.93.79c-.31.27-.58.57-.88.84.65-.48 1.34-.91 2.04-1.29.34-.2.69-.41 1.04-.58l.53-.27.54-.24.54-.26.55-.22c.36-.16.74-.29 1.11-.41.37-.14.75-.24 1.13-.34.38-.11.76-.19 1.15-.26 1.53-.37 3.12-.5 4.7-.39.39.03.79.04 1.18.12.39.07.79.1 1.18.21.38.11.78.17 1.16.3s.76.26 1.14.4c-.37-.16-.72-.35-1.09-.53-.37-.17-.75-.3-1.13-.45zm-55.93-32.03c-.82.6-.47 3.27.43 3.88.11.08.38.15.51.12-.84-1.21-1.15-3.05-.42-3.58.77-.56 2.14-.71 3.23-.62.87.07 1.53.18 2.1.47-.61-.71-1.43-.99-2.73-.99-1.14 0-2.34.16-3.12.72M88.89 59.66c-.16-.36-.38-.39-.52-.34s-.19.15-.17.28c.19.4.14.34.37 1.01a68 68 0 0 1 1.19 3.88c.07.22.22.41.31.42 0 0 .11.02.18 0s.21-.06.18-.28c-.35-1.84-.78-2.94-1.2-4.06-.19-.51-.12-.4-.35-.91zm12.73-6.82c-.76.64-.3 3.2.62 3.72.09.06.39.14.51.17-.73-1.05-1.3-2.97-.65-3.51.71-.6 2.12-.79 3.23-.87.94-.06 1.58.09 2.19.38-.62-.65-1.53-.98-2.89-.88-1.1.08-2.29.39-3 .99zm11.28 3.32c-.38 1.03-1.64 2.73-1.64 2.73s.91 1.08 1.87 2.07c.84.86 2.19 1.51 3.21 1.45.13 0 .52-.31.18-.39-.55-.12-.71-.24-1.23-.43a4.5 4.5 0 0 1-1.03-.59c-1.37-1.22-2.21-2.17-2.21-2.17s.92-1.25 1.37-2.23c1.32-2.92.47-6.26-1.73-7.4-.09-.05-.18-.12-.26-.17 1.67 1.5 2.49 4.37 1.46 7.13zm20.51-3.33c-.51.96-1.89 2.58-1.89 2.58s.95 1.2 1.87 2.24c.81.92 1.64 1.38 2.66 1.54.43.07.82-.29.48-.39-.56-.16-.72-.23-1.24-.48-.42-.2-1-.73-1.14-.86-1.33-1.3-1.77-2.07-1.77-2.07s1.19-1.32 1.63-2.31c1.35-3.06 1.01-5.74-.96-7.12-.09-.06-.49-.29-.58-.35 1.65 1.55 2.31 4.6.94 7.21zm-26.54 9.03c-.33-.39-.56-.61-.56-.61-.37.02-2.5.1-2.68.17-.36.16-.21.7-.15.98.28 1.15.93 1.76 1.68 2.1-.35-.61-.72-1.3-.85-1.65-.1-.26-.38-.77-.21-.82.13-.03 1.93-.13 2.77-.18zm19.92-3.83c-.3-.41-.51-.65-.51-.65-.37-.01-2.53-.09-2.71-.03-.37.13-.27.68-.23.97.18 1.17.78 1.83 1.5 2.23-.29-.64-.58-1.3-.68-1.66-.08-.27-.31-.87-.14-.9.13-.02 1.94.03 2.78.04zm124.2-1.2c.07 0 .12-.02.18-.02.12-.55.38-1.35-.01-1.48-.37-.14-.37.1-.38.18-.13.61-.52 1.35.21 1.32m-21.8 2.98c-.02-.62 1.44-2.94 2-3.79.78-.2 1.27-.05 2.55.35-.73-.82-1.88-1.24-2.97-.93-.57.88-2.35 3.66-2.12 4.08.05.14.22.22.55.29zm19.62 3.51c.82-1.74 1.26-2.12 3.46-1.39.36.12.79.23 1.13.45-.52-.43-1.14-.84-1.72-1.04-2.21-.73-2.57-.18-3.39 1.55-.82 1.68-2.66 6.37-2.6 6.89.18.16.32.24.57.33-.04-.59 1.73-5.13 2.54-6.79zM143.72 46.34c-.3.13-.55 1.38-.61 2.55-.04.86-.03 1.68.12 1.97.08.1.29.11.55.07-.06-.53-.03-1.27 0-1.97.04-1.03.18-2.02.35-2.07.49-.16 1.24-.24 2.33-.22-.07-.28-.17-.57-.3-.63-1.11-.07-1.93.08-2.45.31zm66.97 1.64c-.19.91.83 7.57 1 8.61.04.36.29.31.29.31s.27-.19.34-.4c-.35-2.34-.88-6.67-.98-7.8-.02-.27-.06-.38 0-.54.28-.19.59-.3 1.15-.59.23-.07.31-.4.18-.56-.12-.08-.23-.05-.46-.01-.13.03-1.43.5-1.53.98zm-13.8 2.83c-.06 1.39-.35 3.98-.73 4.72-.02.06-.04.1-.05.12-.16.19-.16.27.16.49.21.04.36.2.48-.16.43-.83.76-4.1.77-5.21.01-.32-.37-.4-.37-.4s-.24-.01-.26.45zm-24.61-7.1c.2.84 3.3 5.29 3.66 5.47.11-.07.07-.81.04-1-1.18-1.6-2.73-3.8-2.98-4.48-.16-.46.07-.52.37-.77.12-.1.23-.29.17-.55-.06-.08-.18-.14-.42-.06-.13.07-.35.27-.41.31-.29.24-.62.33-.44 1.07zm9.42 14.76s.12.02.17 0c.06-.04.04-.13.04-.13-.38-.43-.6-1.04-.71-1.54.07-1.38 1.31-17.22 1.31-17.22s-.53-.42-.65-.32c-.26 3.16-1.27 16.31-1.34 17.53.17.81.63 1.55 1.17 1.68zm9.67-3.51c1.38.14 1.52.25 2.54.56-.11-.12-.3-.41-.42-.52-.53-.46-1.05-.64-2.62-.76-.14-.01-.87-.15-1.2.07-.42.29-.54 1.76-.39 2.22.07.05.25.1.62.18-.01-.9-.04-1.47.3-1.75.2-.17.91-.02 1.18 0zm5.17-6.59c-.04-.25-.06-.66-.36-.73-1.29-.31-5.23-.79-5.53-.61-.38.21-.54 1.61-.35 2.29.12.17.25.18.65.25-.21-.99-.06-1.1.06-1.79.05-.28 4.01.27 5.52.59zm-27.06 1.49s-.36 5.2-1.35 14.3a.32.32 0 0 1-.15.17c-.05.03-.04.42.17.57.13.06.45.11.57-.19.99-9.1 1.34-14.23 1.34-14.23s.03-.24.2-.34c-.19-.26-.32-.42-.36-.44-.33-.47-.44.16-.44.16zm46.39 12.42c.14-.24 1.57-2.2 2.87-3.99 1.56-2.14 2.32-3.22 2.7-3.7.28-.34.34-.33.56-.35.77-.06.92-.05 1.32-.14l.19-.11c.25-.24-.15-.5-.15-.5-.1-.05-.15-.04-.28-.02-.64.11-1.46.05-1.78.31-.54.46-5.81 7.95-6.12 8.47-.12.26-.13.34-.06.68.17.36.46.57.7.84.09.07.16.04.29.06 0 0 .12-.02.19-.07.17-.11.15-.24.15-.24-.28-.55-.97-.72-.58-1.26zm-9.67 1.29c-.18-.06-.39.47-.12.66 1.68.33 7.19 1.5 9.62 2.02 0 0 .15-.04.28-.21s-.07-.41-.07-.41c-2.17-.46-7.64-1.64-9.71-2.06m18.03-11.81s.14.17.31.17.41-.2.31-.37c-.46-.78-.8-1.41-.96-1.81-.05-.13-.18-.43-.22-.63-.28-1.1-.31-1.7-.45-2.54-.03-.29-.31-.2-.45-.13-.2.08-.18.14-.18.24.06.76.17 1.65.48 2.85.17.65.62 1.26 1.18 2.23zm-21.83 9.86.19-.03c.08-.04.2-.12.17-.19-.65-1.85-2.49-4.08-3.27-5.06-.19-.16-.41.24-.48.38.87 1.14 2.38 3.31 3.22 4.74.01.02.11.17.17.17zm-.14 1.33c-3.31-.36-8.73-1.01-12.1-1.41-5.35-.64-10.7-1.26-14.57-1.36-.18.05-.36.11-.46.24-.07.35.22.4.33.44 2.19-.02 5.07.26 8.07.57 5.49.57 13.02 1.58 18.86 2.2.05 0 .43-.04.47-.18s-.15-.36-.15-.36c-.11-.07-.28-.14-.46-.16zm.8-16.82c-.11-.08-.3.05-.33.08-.38.35-2.93 2.49-3.96 3.02.05.31.16.43.4.44.49.02 3.67-2.64 4.1-3.05.16-.15-.05-.43-.2-.49zm-60.02 9.83c-.42.31-.38 1.08-.32 1.48.08.48.51 1.23.76 1.25.16.01.34-.19.31-.34-.12-.36-.36-.67-.39-.88-.08-.51-.18-.8.1-.93.44-.2 4.06-.58 5.62-.51-.07-.29-.14-.54-.26-.61-1.19-.17-5.45.25-5.82.53zm13.15 1.72c.21.23.3.38.39.47.13.12.22.22.34.17.11-.05.23-.23.18-.32-1.5-2.26-2.51-3.97-3.66-7.88-.71-2.42-1.27-4.45-1.32-5.63 0-.76.47-.88.68-1.33.23-.51.06-.55-.5-.54 0 .04 0 .07-.03.11-.21.46-.85.91-.86 1.37.1 2.54 2.35 10.96 4.79 13.59zm.58 1.67c-1.71 0-5.28.51-6.3.66-.32.05-.02.55.2.55 1.77-.08 4.42-.47 5.87-.58.16-.01.45-.02.61-.23 0 0 .03-.08-.02-.18-.07-.14-.27-.22-.36-.22m-12.3 1.38s-.27-.04-.39 0c-.85.33-5.99.63-7.43.86-.73.28-1.47 2.8-2.07 3.95-.02.04-.12.3-.33.33.13.14.16.15.2.17.61.28.75-.24.78-.29.6-1.15 1.07-3.24 1.8-3.52.64-.1 2.28-.23 3.72-.37 1.8-.16 3.48-.4 3.96-.58.23-.14.37-.48-.23-.56zm87.54 5.03c-.15-.47-4.97-1.74-5.6-1.92-.7.3-1.31 1.88-1.16 2.3.11.32.16.4.33.83 0 0 .09.24.26.22.29-.02.25-.13.25-.15-.03-.14-.21-.69-.23-.84-.05-.12 0-.53.17-.93.11-.27.28-.53.58-.68.51.14 3.47.96 5.16 1.65.17-.05.26-.42.24-.48m-6.42 3.07c-1.14-.41-5.01-1.6-6.57-2.12-.54-.06-.41.55-.23.62 1.08.39 5.15 1.66 6.66 2.07.05.01.2-.09.25-.17.06-.08.03-.2.03-.2 0-.07-.11-.19-.14-.2m40.85 3.36c.03-.61 1.57-2.53 2.24-3.36.02-.02.02-.03.06-.06.03-.02.04-.01.06-.02.75-.1 1.21.09 2.32.59-.17-.63-1.46-1.25-2.5-1.22-.05 0-.1 0-.16.01-.03 0-.1.03-.11.05-.7.88-2.61 3.22-2.44 3.66.03.14.2.24.52.34zm1.8 6.29c-.28-.54-4.26-2.16-5.29-2.45-.03 0-.03-.01-.06-.01h-.06c-.72.28-1.47 1.54-1.36 1.96.08.33.21.55.4.93 0 0 .12.21.29.22.29 0 .24-.15.24-.17-.02-.14-.22-.69-.22-.84-.03-.13-.05-.31.15-.69.13-.24.39-.62.68-.77.02-.01.03-.01.06-.01s.05 0 .08.02c.68.27 3.3 1.48 4.85 2.28.17-.03.27-.41.24-.47m-6.94 2.01c-1.11-.49-4.65-1.84-6.17-2.46-.53-.09-.44.53-.27.6 1.06.46 4.74 1.92 6.22 2.42.04.02.24-.09.3-.16.06-.08.04-.19.04-.19 0-.07-.09-.2-.13-.21zm-22.61-23.38c-.56 1.49-1.95 10.34-1.6 11.59.12.42.7 1.21.89 1.24.09.01.35-.06.33-.25 0-.06-.07-.23-.13-.35-.13-.24-.25-.47-.33-.69-.27-.75-.1-2.62.2-4.66.36-2.5.89-5.29 1.24-6.58.29-1.05.94-1.49 1.86-1.69.25-.05.42-.23.27-.3-.12-.06-.28-.11-.56-.22 0 0-.39.07-.46.1-.66.24-1.32.79-1.68 1.82z" opacity=".76"/><path fill="#000" d="M259.74 67.07c-.25 1.47-.6 2.33-.85 2.88-.64 1.36-3.43 6.13-8.54 6.21-1.64-.11-2.6-.34-4.75-1.01-2.41-.78-4.94-1.89-7.64-2.79-2.98-.96-5.13-1.61-6.56-1.99-.39-.04-.44.49-.12.61 1.24.45 3.53 1.01 6.48 2 2.44.89 4.82 1.8 7.02 2.6 2.58.89 4.7 1.35 6.1 1.19 2.01-.05 3.89-1.05 5.37-2.29 1.94-1.63 2.84-3.46 3.12-3.99.59-1.12 1.53-3.91 1.04-6.32-.21-1.05-.59-1.96-1.74-3.14.41.59.59 1 .9 1.91.51 1.51.44 2.64.19 4.13zM89.26 57.89c-.01.07.03.13.02.12.1.19.33.25.44.2.78-.85 1.17-1.67 1.67-2.72.48-1.02.74-1.56 1.01-2.59.04-.16-.11-.28-.25-.31-.24-.05-.3.15-.39.29-.27.72-.61 1.49-.96 2.26-.46.98-.93 1.88-1.53 2.75zm7.93 8.69c.26.11.44-.12.47-.26.05-.24-.19-.33-.4-.43-.69-.34-1.18-.61-1.96-.98-.98-.47-.93-.45-1.51-.72-.07-.01-.12.03-.12.02-.19.1-.27.36-.21.47.06.12.3.18 1.29.7.93.49 1.48.78 2.43 1.19zm29.22-3.73c-2.54.44-6.06.88-7.7 1.13-.89.16-1.27.19-1.68.48-.58.62-1.17 2.74-1.36 3.62-.14.49-.23.86-.42 1.06.06.07.11.11.22.15.44.13.69-.22.86-1.19.11-.61.73-2.81 1.29-3.18.32-.21 1.7-.41 3.64-.64 1.45-.17 4.02-.57 5.64-.86.46-.27-.05-.68-.5-.57zm-19 3.82c-.44.1-1.46.38-2.18.54-1.45.33-2.82.6-4.28 1.01-.45.12-2.14.59-2.14.59-10.48 2.97-16.18 5.12-18.26 5.67-.16.17-.43.55-.02.65.3.02 3.47-1.07 11.51-3.63 1.2-.38 2.64-.8 4.03-1.23 1.71-.52 3.59-1 5.56-1.54 1.46-.4 2.87-.7 4.33-1.03.75-.18 1.39-.39 1.82-.54.27-.09.32-.22.15-.32-.17-.11-.29-.14-.52-.18zm168.88 3.38c-.43.8-.95 2.32-1.49 4.07-.61 1.98-1.22 4.21-1.6 6.07-.07.36-.17.83-.17 1.16 0 .79.1 1.48.2 2.12.03.16.1.32.22.41 0 0 .13.07.27.04.15-.04.18-.22.18-.22-.14-.84-.25-1.46-.2-2.3.22-2.2 1.03-4.72 1.73-7.14.47-1.55.93-2.85 1.33-3.6.39-.66.88-.52 1.28-.81.46-.32.08-.61-.17-.66-.06 0-.25.04-.29.06-.37.17-1.07.41-1.3.8zm-3.37 15.37c-1.3-.53-4.53-1.75-5.75-2.39-.21-.07-.53.33-.27.53.78.58 4.2 1.86 5.87 2.44.07.02.31.11.38.09s.19-.11.18-.24c0-.17-.05-.2-.11-.28-.07-.05-.23-.13-.29-.16zM54.35 67.49c.27-.14 1.52-.92 2.55-.77.14.02.36.05.49.12-.34-.39-.64-.7-1.07-.75-.88-.11-2.09.64-2.58 1.07l-.3.25c-.67.65-1.09 1.91.47 2.29.05 0 .09 0 .13.01-.57-.89-.74-1.13-.28-1.68 0 0 .21-.33.6-.53zm16.41-6.14c.41 1.22 4.39 10.52 5.17 11.45.26.31.74.58.99.64-.05-.06-.1-.14-.14-.19-.54-.64-4.94-10.99-5.13-11.41-.11-.28-.43-.74-.12-1.36.14-.28.25-.43.44-.77.15-.27-.06-.39-.2-.41-.22-.03-.3.05-.35.13-.6.75-.76 1.24-.66 1.92m-11.19 6.76c.08.25.13.26.22.37.17.19.31.03.36-.08.51-1.37 1.56-6.65 1.56-6.73s-.02-.18-.13-.24-.56-.21-.61.52c-.35 1.79-.98 4.94-1.36 5.96 0 0-.05.11-.04.21zm18.96 7.17c-.84.37-4.71 1.8-6.48 2.42-.11.16-.31.29-.39.47 0 0-.22.4.09.34.3-.05 7.16-2.6 7.46-2.83.31-.23.12-.32-.03-.36s-.05 0-.65-.03zm-11.64-4.1c.45.5.73 1.22.97 1.96.46 1.46.2 3.62-.37 4.89-1.92 4.26-5.96 4.84-10.87 5.77-.74.13-1.3.47-1.87.78-.12.23-.2.55-.19.78.09.05.12.04.39-.06.3-.1 1.38-.81 2.42-.99.75-.14 1.51-.25 2.33-.45 2.67-.64 5.11-1.2 6.87-3.24.46-.53 1.02-1.25 1.35-1.99.57-1.27 1.1-3.3.65-4.77-.34-1.13-.94-2.08-1.68-2.68m-10.3 5.83s-.07.06-.06.13c.41.76.43.87 1.07 1.26.31.19.6.17.68.16-.53-.66-.73-.94-1.12-1.58-.15-.08-.46-.05-.58.02zm-1.54-1.46c1.67-.04 3.38-.55 4.93-.82 1.21-.22 2.18-.26 3 .07-.64-1.07-2.19-.91-3.87-.61-1.4.25-2.72.64-4.17.76-.76.07-1.6.1-2.43-.08-.55-.12-1-.21-1.41-.49.56.6 1.05.78 1.97.98.65.14 1.34.2 1.96.19zm27.87-16.62c1.45-.43 1.36-.49 3.03-.84.29-.07.73-.17 1.15-.17-.22-.26-.4-.46-.59-.5-.44-.08-.68.06-1 .13-1.67.36-2.14.57-3.56 1.1-.56.21-1.06.27-.93 1.15.08.54.56 1.56.91 1.65.04.01.37-.09.49-.11-.4-.7-.45-.9-.59-1.25-.34-.82.48-.97 1.1-1.15zm2.67 6.95c.24-.06.38-.12.73-.16.42-.05.39-.08 1.1.17 0 0 .38-.17.24-.32a1.36 1.36 0 0 0-1.03-.47c-.53 0-.84.1-1.31.22-.52.13-1.07.3-1.53.55-.64.36-.29 1.18.3 2.31.04.07.18.15.26.16.05 0 .37-.05.47-.07-.58-1.13-.98-1.83-.41-2.01.5-.16.66-.27 1.17-.38zm35.14-21.89c.14-.04.27-.08.4-.13-.13-.35-.24-.71-.38-1.11-.06-.17-.23-.13-.3-.11-.27.14-.22.16-.2.26.13.39.27.75.48 1.09m-21.12 4.57c.14-.04.27-.08.4-.13-.13-.35-.25-.71-.38-1.11-.06-.18-.23-.13-.3-.11-.27.14-.22.16-.2.26.13.39.27.75.48 1.09" opacity=".76"/><path fill="#000" d="m282.7 73.69.4.16.54 2.02.81.32-.62-2.11c.67.19 1.21-.07 1.46-.7.3-.74 0-1.24-.99-1.63l-1.36-.54-1.51 3.78.66.26.62-1.56zm.68-1.71.61.24c.31.12.49.23.59.34.11.13.13.37.04.59-.19.47-.55.57-1.14.34l-.61-.24.5-1.26z"/><path fill="#000" d="M282.24 76.93c1.81.72 3.87-.16 4.6-1.98.72-1.81-.16-3.88-1.97-4.6-1.82-.73-3.88.16-4.6 1.97-.73 1.82.16 3.88 1.98 4.61zm-1.46-4.4c.61-1.53 2.35-2.27 3.89-1.66 1.53.61 2.27 2.35 1.67 3.88-.62 1.54-2.35 2.29-3.88 1.68a2.99 2.99 0 0 1-1.67-3.89zm-23.65 2.77c-.53.43-1.96.99-2.27 1.06-.27.05-.4.29-.38.43-.06.18.11.29.11.29 2.36 1 5.58 2.27 6.1 2.46.05.02.11.03.17.03.22 0 .35-.2.35-.4 0-.17-.06-.36-.2-.57-.13-.23-.18-.48-.18-.72-.02-1.07 1.17-2.17 1.67-2.48.03-.02.06-.03.09-.04h.1c1.17.13 5.08 1.62 6.13 2.8.02.02.03.04.05.07.01.03.01.05.01.07-.03.75-.35 2.68-1.65 2.96-.44.11-.72.2-.76.52 0 .18.15.28.3.35.28.21 4.09 1.75 5.63 2.3h.1c.07 0 .34 0 .36-.3 0-.12-.05-.23-.15-.36-.28-.37-.27-1.3-.38-2.34v-.07c-.02-1.27 2.48-10.45 3.39-11.7.59-.82 1.39-1.14 1.8-1.25.19-.03.33-.2.32-.35.04-.15-.1-.29-.1-.29-.49-.33-11.84-5.04-12.91-5.36 0 0-.54.04-.42.48l.08.26c.21.48.48.93.47 1.36 0 .16-.03.33-.1.53-.25.7-6.95 9.8-7.76 10.21zm7.85-3.32c.23-.59.89-1.66 1.59-2.62.68-.96 1.51-1.84 1.83-2.04.04-.03.06-.03.1-.04.03 0 .09.01.13.02.91.19 2.25.63 2.97 1.26.03.03.06.06.09.12s.02.15.02.2c.02 1.08-1.2 4.4-1.67 5.27-.02.04-.02.07-.08.1h-.09c-1.12-.2-4.01-1.6-4.83-2.05a.4.4 0 0 1-.09-.06c-.02-.02 0-.05 0-.05.01-.05.02-.06.04-.12zm-64.16-9.92h.04c.3-.03.5-.34.51-.63 0-.06 0-.13-.05-.2-.97-1.65-2.77-4.06-3.54-5.05-.17-.15-.3-.2-.42-.2-.16 0-.27.11-.32.18-.03.04-.04.08-.06.11-.01.03-.01.02-.01.03-.41.56-.81 1.59-1.02 1.6h-.02v.01c-.03 0-.12.01-.23.01-.68 0-2.43-.18-4.03-.41-1.24-.16-2.45-.38-2.94-.5-.09-.02-.1-.03-.13-.06l-.04-.03s-.03-.04-.03-.1v-.13c0-.46.07-1.22.2-1.88.1-.66.29-1.21.37-1.22.13-.08.26-.11.4-.11.22 0 .41.02.55.03 1.59.13 2.83.18 3.73.81.44.3.84 1.08.97 1.32.03.06.21.22.42.14q.285-.045.36-.33c.44-.98.75-4.81.79-6.08v-.02c-.02-.49-.22-.57-.48-.6-.06 0-.17.05-.17.05s-.92 1.02-1.57 1.2c-.16.09-1.2.25-2.21.24-1.02.01-2.08-.18-2.27-.5-.04-.11-.07-.37-.07-.66 0-.55.09-1.25.22-1.82.11-.53.29-1 .36-1.02.1-.03.17-.01.2-.01 1.09 0 5.29.56 6.41.82.38.09.47.43.55.86.07.39.05.91.55.99h.05c.48-.06 1.53-.87 2.66-1.75 1.12-.88 2.22-1.82 2.47-2.06.08-.08.12-.19.12-.28-.01-.29-.22-.61-.58-.64-1.47-.24-16.04-2.09-17.69-2.09h-.12c-.24.05-.36.24-.34.39 0 .19.1.31.1.32.04.04 1.31 1.18 1.28 1.93-.13 1.49-.4 8.87-1.55 12.66-.24.59-1.65 1.71-2.67 1.68-.1 0-.2-.01-.29-.03-.37-.07-1.1-.98-1.36-1.7-.03-.08-.05-.16-.07-.24v-.12c0-.07.01-.06.02-.2.2-2.83 1.44-18.53 1.44-18.55V38l-.04-.06s-.02-.06-.22-.17c0 0-.14-.06-.27-.01-.05.02-.16.09-.16.09l-.05.04c-.8.71-1.57 1.48-2.44 2.06-.78.53-1.63.97-2.43 1.48l-.06.05c-.13.08-.08.26-.08.26.07.29.1.26.86.77.27.17.44 1.09.42 2.2 0 1.86-.32 4.26-.37 5.17-.02.38-.07.6-.11.71-.02.04-.07.17-.07.17-.01 0-.11-.15-.13-.17-.57-.52-4.68-6.47-4.87-7.17-.02-.06-.02-.11-.02-.16-.02-.33.36-.57.64-.8.05-.08.56-.25.62-.65 0-.17-.15-.27-.31-.32-1.43-.31-6.9-.68-8.43-.76h-.03c-.18.04-.15.08-.23.15-.05.07-.1.17-.1.29 0 .13.08.28.23.36.89.6 1.75 1.68 1.73 2.2v.05c-.11 1.36-.23 4.4-.46 7.24-.21 2.82-.61 5.5-1.05 5.86-.14.18-1.13.32-1.46.63-.09.09-.14.2-.13.3 0 .11.03.18.02.18l.04.09.04.08.05.05c1.35.81 3.77 4.2 4.2 5.43 0 0 .04.08.08.12s.23.06.23.06l.19-.02c.19-.06.32-.11.42-.37v-.02l.01-.02c.92-9.01 1.44-15.43 1.45-15.58 0 0 0-.06.04-.11.02-.03.03-.06.05-.07 0 0 .03 0 .1.1l.02.02.03.02c.42.36 5.75 7.89 6.36 8.91.05.09.07.18.08.28.04.63-1.36 1.58-2.09 1.89-.12.09-.16.18-.16.28.05.31.29.37.45.39h.42c6.25 0 16.19 1.5 24.99 2.44.52.05 1.28.12 1.53.12zm10.49-3.26-.01-.07c-.16-.96-1.32-9.04-1.32-10.71 0-.11 0-.2.01-.21.15-.75.96-.84 1.7-1.33.56-.32.06-.59.06-.59l-.16-.05c-.9-.28-4.96-1.05-7.58-1.44h-.06c-.14 0-.34.19-.32.46 0 .05 0 .11.01.18.15.52 1.09.9 1.81 2.86.22 1.03 1.6 10.99 1.59 12.18v.05c-.07 1.37-.22 1.33-.71 1.55-.32.16-.56.12-.74.2-.2.08-.33.28-.38.6 0 0-.01.05.05.13s.14.12.14.12l.08.03c2.17.42 7.71 1.63 9.46 2 0 0 .06.01.12 0s.1-.05.1-.05c.09-.13.09-.28.09-.41-.07-.67-.93-.87-.91-1.76 0-.17.06-.29.13-.52l.14-.24c.26-.45 5.88-8.23 6.37-8.61.18-.17.8-.24 1.35-.26.28-.02.54-.02.75-.05.18-.04.6.01.57-.55-.04-.61-1.08-1.6-1.37-3.03-.37-1.71-.41-3.69-.45-3.78-.19-.38-.52-.19-.68-.06-.06.05-.1.09-.1.09-.22.2-8.92 12.52-9.46 13.29 0 0-.21.26-.27.01zM78.04 74.53c-.04-.28-.27-.32-.35-.36h-.24c-.34 0-1.39-.18-2.1-1.03-.7-.82-4.59-9.91-5.26-11.71-.02-.06-.03-.1-.05-.14v-.09c-.01-.06-.01-.06 0-.12.08-.79.55-1.57.83-1.99.1-.17.18-.3.18-.46 0-.07-.02-.15-.08-.21a.3.3 0 0 0-.21-.08c-.06 0-.12.02-.2.04-2.37.75-6.95 2.69-6.99 2.71-.19.12-.33.2-.36.35-.02.15.04.25.04.25.26.29.83.32 1.47.48.63.14 1.27.36 1.48.69.51.75 4.88 10.56 5.16 11.6.03.13.05.25.05.37.01.75-.69 1.3-1.09 2.09.01 0-.14.18-.15.4 0 .05.01.12.07.18.05.05.12.07.18.07h.06c.39-.09 6.97-2.46 7.37-2.74.1-.08.18-.17.18-.3zm-11.12 3.12c.57-1.27.69-3.46.16-4.91-.7-1.91-1.91-3.06-4.62-3.54-1.92-.34-4.31.97-8.49.9-.28 0-.62.05-.93-.09-.3-.15-.41-.27-.54-.43-.8-1-.06-2.07.45-2.63l.42-.35c.48-.44 2.14-1.25 3.02-1.14 1.01.12 1.88 1.83 2.18 2.24s.33.12.38 0c.54-1.38 1.65-7.15 1.68-7.52.04-.37-.31-.14-.31-.14s-.65.56-1.01.73c-1.03.5-2.34.53-3.52.77-3.4.74-6.47 2.08-7.32 5.59-.44 1.8-.15 3.36.54 4.58.66 1.19 1.59 2.13 3.06 2.46 2.38.52 4.9-.23 7.03-.61 1.9-.34 3.8-.48 4.2 1.11.67 2.71-4.08 5.46-6.43 3.99-.73-.47-1.18-1.63-1.62-2.37-.12-.07-.18-.1-.31 0-.07.05-1.21 3.46-1.88 8.19.02.08.05.08.18.04.15-.04.14-.06.21-.09.3-.12 1.65-1 2.7-1.2 4.91-.94 8.86-1.3 10.77-5.56zm89.01-19.15c-.05-.34-.43-.59-1.02-1.38-1.81-2.3-4.13-10.81-4.22-13.28-.03-.31.59-.79.84-1.3a.9.9 0 0 0 .08-.35c-.02-.44-.47-.56-.88-.56-.13 0-.26.01-.4.03-5.46.64-7.21.92-12.9 1.45h-.03l-.03.02c-.16.08-.28.22-.28.38.06.48.75.68.84.81.39.33.9.88.9 1.53v.02c0 .73-.31 8.41-.93 11.75-.12.67-.77 1.77-1.32 2-.27.13-.55.18-.81.18-1.51.02-3.02-1.82-3.57-2.52-.11-.14-.48-.56-.83-.96-.18-.2-.34-.4-.46-.55-.06-.07-.11-.14-.15-.18a.3.3 0 0 0-.04-.05v-.06c-.03-.55 1.43-1.91 1.77-2.43.69-1.12 1-2.26 1-3.34 0-2.19-1.28-4.13-3.18-5.19-1.24-.69-2.97-1.11-4.76-1.11-.75 0-1.52.08-2.26.24-1.09.24-2.03.69-3.04.98-.28-.48-.42-1.03-.63-1.65-.17-.52-.51-.28-.51-.28l-.08.11c-1.52 2.06-2.25 3.13-3.74 4.18l-.29.19a.7.7 0 0 1-.19.12c-.32.34.03.52.03.52.48.18.81.46 1.09.65.28.17.66.6.73.86.32.98 1.78 8.08 2.05 11.41 0 0 .03.37-.17.7-.87 1.17-1.58 1.57-2.55 1.58-.2 0-.41-.02-.64-.06-1.01-.14-2.23-1.16-3.22-2.14-.5-.5-.93-.98-1.28-1.35-.25-.24-.4-.44-.55-.55.62-.77 1.4-1.72 1.83-2.66.4-.87.57-1.76.57-2.6 0-2.02-1.02-3.79-2.45-4.81-1.29-.91-3.07-1.34-4.88-1.34-1.4 0-2.81.25-4.06.74-.46.19-1.67 1.04-2.1 1.02h-.05c-.34 0-.38-1-.67-1.49a.57.57 0 0 0-.47-.29c-.14 0-.24.19-.3.33l-.19.52c-.4.8-1.22 2.19-3.55 4.02l-.11.08c-.25.21.14.43.14.43s1.57.56 1.91 1.11c.44.65 3.07 9.74 3.22 11.33v.08c.02.62-.77 1.58-1.16 1.84-.2.12-.38.3-.66.21-.58-.2-2.93-1.42-3.76-1.86-.52-.28-1.08-.68-1.7-.94a.9.9 0 0 0-.4-.1c-.26 0-.44.21-.48.4-.14.6.06 1.62-.33 1.84-.36.27-5.99 2.19-6.81 2.17h-.05s.21.08-.02 0c-.22-.08-.28-.25-.29-.25-.4-.81-.9-1.98-.89-2.7 0-.32.08-.5.25-.6.39-.23.82-.29 1.35-.47l.55-.18c.59-.2.92-.36 1.68-.36.11 0 .21 0 .31.03.63.07 1.45.75 1.99.78.13 0 .3-.08.36-.24l.02-.07v-.03c-.65-2.68-1.17-4.05-1.97-5.8-.08-.18-.14-.3-.17-.35s-.11-.28-.27-.28-.19.07-.19.07l-.07.15c-.71 1.38-.58 1.79-2.37 2.67-.23.11-2.31.72-2.67.72h-.02c-.06.03-.45-.55-.71-1.18-.27-.62-.5-1.32-.54-1.57-.01-.09-.02-.17-.02-.24 0-.53.32-.54.86-.75 1.44-.55 2.97-1.06 4.65-1.42.28-.06.62-.19.95-.19.08 0 .15 0 .22.03.28 0 .7 1.04 1.43 1.19 0 0 .06.03.12.02.06 0 .11-.06.11-.06l.06-.07c.6-.87 1.16-1.81 1.62-2.81.42-.9 1.05-2.3 1.06-2.79 0-.2-.1-.3-.1-.3-.14-.23-.45-.13-.46-.13-.71.11-1.37.38-1.84.51-2.86.81-5.62 1.67-8.38 2.52-2.47.76-4.93 1.47-7.29 2.37 0 0-.12.12-.15.25-.03.12 0 .28.24.39.34.14.58.12.76.2.67.23 1.27.5 1.79 1.22.48.64 3.67 9.63 4.24 11.93.02.09.04.13.03.26 0 .07-.02.15-.06.28-.22.68-.51 1-.77 1.25-.29.27-.62.48-.62.98v.09l.02.03c.07.17.22.18.36.18 1.27 0 7.26-2.56 21.01-6.36 1.46-.41 2.97-.79 4.42-1.12.74-.17 1.84-.4 1.96-.44.2-.06.22-.39-.09-.56 0 0-.19-.1-.32-.16-2.21-1.03-2.7-1.29-3.33-3.77-.03-.12-.07-.33-.07-.52 0-.25.06-.41.16-.44.02-.03 2.93-.26 3.6-.26h.07s.01.02.02.03c.58.63 5.16 4.91 7.39 7.91.22.21.43.38.69.39.37-.02.54-.37.58-.99-.02-1 1.15-3.89 1.65-4.17.49-.35 5.01-.78 9.12-1.49 0 0 .34-.05.04-.47-.14-.24-.39-.27-.73-.43-.32-.13-.66-.26-.73-.3-.75-.44-1.37-1.08-1.61-1.98-.09-.36-.33-1.24-.32-1.82 0-.26 0-.41.04-.48l.03-.04c.06-.07.1-.08.13-.1h.1c.49 0 1.86.07 2.82.07.3 0 .55-.01.75-.02 3.93 4.09 6.02 7.82 6.73 8.46.16.13.31.2.46.2.4-.02.5-.43.52-.43.59-1.15 1.5-3.76 2.06-3.93 1.4-.22 6.45-.5 7.37-.86 0 0 .3-.06.23-.43 0 0-.1-.25-.31-.3-.12-.05-.29-.12-.53-.26-.57-.28-.92-1.56-.93-2.02.02-.41.17-1.53.49-1.73.04-.06 1.17-.27 2.4-.4 1.25-.13 2.7-.25 3.61-.25.26 0 .48 0 .63.03.27.15.97 1.56.94 2.36 0 .13-.01.23-.04.31-.23.71-.79 1.16-.83 1.57 0 .19.2.3.35.3.09.01.19.01.31.01 1.25 0 4.1-.48 5.65-.54.18-.01.4-.02.43-.28zm-47.72-3.71c-.5 1.12-2.32 2.03-3.89 2.29-.65.11-1.3.23-1.82.23-.34 0-.62-.05-.8-.16-.57-.3-1.22-2.32-1.2-3.65 0-.54.11-.96.27-1.09.66-.6 2.83-1.18 3.94-1.26.18-.01.35-.02.51-.02 1.83.01 2.94.78 3.12 2.26.02.17.03.34.03.52 0 .32-.04.65-.15.88zm20.61-3.81c-.59 1.08-2.48 1.85-4.06 1.98-.51.04-1.02.09-1.47.09-.5 0-.92-.07-1.15-.24-.49-.31-.95-2.01-.93-3.31-.01-.74.15-1.34.37-1.49.7-.55 2.85-.95 3.98-.95h.05c2.12.03 3.36.9 3.43 2.53v.18c0 .44-.06.91-.23 1.22zm19.31-.12s0 .02-.08.06c-.53.33-2.77.63-4.25.62-.71.02-1.3-.1-1.32-.17-.03-.05-.08-.44-.08-.93 0-.83.1-2 .26-2.98.08-.49.17-.93.26-1.25.05-.16.1-.29.14-.38 0-.02.01-.03.02-.04.03-.05.07-.08.07-.08.04-.02.06-.04.12-.05.54-.16 1.78-.32 2.76-.32h.37c.07 0 .1.03.1.03.02.02.01.01.04.05.21.3.63 1.27.92 2.27.37 1.2.68 2.53.68 3.02v.13zm78.79 1.66c0 .1 0 .19-.03.27-.21.83-5.7 10.47-6.09 10.8-.46.47-1.77 1.43-2.37 1.49-.22.08-.38.19-.4.41 0 .13.12.25.24.29 1.1.38 5.06 1.58 6.43 2.06.07.01.12.03.17.03.24 0 .32-.25.32-.35s-.03-.19-.03-.19c0-.02-.42-.98-.6-1.46v-.09c0-.29.22-.99.57-1.58.34-.59.8-1.06 1.17-1.08.37.1 1.85.52 3.29.95.74.23 1.46.47 2.01.67.27.1.5.2.67.28.08.04.14.07.19.1.04.03.04.04.04.03.07.13.13.4.13.76 0 .56-.13 1.32-.45 2.08-.13.19-.98.63-1.24.7-.62.27-.38.67-.34.7s.12.07.12.07l5.98 1.76c.42.13.92.31 1.15.38.22.07.88.3.88.3 3.33 1.17 8.55 3.55 11.3 3.56.15 0 .29 0 .44-.02 5.23-.09 7.76-5.51 8.05-6.31.24-.68.74-2.21.74-3.96 0-1.38-.31-2.9-1.3-4.22-1.37-1.73-3.29-3.71-6.89-3.7-.31 0-.62.02-.95.04h-.03c-.3-.02-.28-.06-.3-.27-.01-.36.3-1 .3-1.5a.55.55 0 0 0-.45-.6h-.06l-.05.01c-2.53 1.19-4.29 1.62-5.76 1.93h-.05l-.03.04c-.08.07-.12.18-.12.27.06.53.82 1.05.8 1.6 0 .07 0 .15-.04.23-.02.08-.01.09-.02.09-.81 3.36-2.82 9.19-3.76 10.32-.96 1.33-1.48 1.48-2.45 1.28-.45-.06-.79-.46-.97-.68-.52-.64-.58-.99-.69-1.52-.03-.15-.06-.46-.05-.88 0-2.72 1.3-9.83 1.76-11.06.35-.97 1.24-1.49 1.87-1.73.17-.06.27-.22.27-.37s-.09-.29-.22-.37c-1.34-.66-13.11-4.04-13.52-4.06h-.02c-.64-.06-.39.49-.39.49s.82 1.19.81 2.02zm17.94 17.37c.31-1.31 2.1-5.83 2.94-7.53.69-1.46 1.04-2.09 2.05-2.09.43 0 .98.12 1.71.36.81.26 1.63.84 2.33 1.5.66.62 1.28 1.79 1.28 3.02 0 .34-.05.68-.16 1.03-.7 2.41-2.25 5.08-4.34 5.43-.36.07-.73.1-1.11.1-1.73 0-3.62-.63-4.64-1.46-.04-.03-.05-.06-.08-.09 0 0-.02-.05-.02-.06 0-.07.02-.09.05-.2zM230.5 54.67c.15-.05.34-.07.55-.07 1.08-.01 2.72.62 3.2 1.18v.17c0 .54-.17 1.82-.4 3-.21 1.16-.54 2.29-.66 2.35 0 0-.09.03-.25.03-.59 0-1.88-.28-3.01-.64-1.14-.32-2.18-.85-2.15-.97l-.02-.06c-.03-.66 2.13-4.21 2.72-4.99z"/><path fill="#000" d="M134.19 86.69c.57-.1 1.14-.18 1.71-.2a9.4 9.4 0 0 1 1.68-.02c.56.03 1.12.09 1.69.19l-.3-.15c-.1-.05-.22-.09-.34-.13-.24-.09-.5-.15-.79-.21a10 10 0 0 0-1.92-.11c-.34.03-.67.07-1 .13l-.48.09-.46.11c-.3.09-.57.19-.84.29-.25.11-.49.23-.73.34q.45-.105.9-.18c.29-.06.59-.11.88-.15m5.24 2.22c-.36.28-.83.37-1.29.39-.94.03-1.93.01-2.9.03-.97.03-1.95.09-2.93.19-.98.11-1.96.29-2.92.53-1.9.57-3.69 1.44-5.37 2.43-.42.25-.83.52-1.24.79-.41.26-.81.55-1.2.83-.8.56-1.55 1.18-2.31 1.79l2.52-1.47q.63-.375 1.26-.72c.42-.23.84-.48 1.27-.69 1.69-.92 3.45-1.7 5.29-2.19q1.365-.39 2.79-.6c.95-.13 1.91-.22 2.87-.28.97-.09 1.92-.15 2.91-.26.5-.09 1.01-.27 1.38-.64s.47-.93.38-1.39c.06.48-.14.98-.51 1.25z" opacity=".76"/><path fill="#000" d="M121.32 92.66c.72-.43 1.45-.84 2.2-1.2 1.49-.75 3.06-1.35 4.68-1.77 1.6-.48 3.26-.81 4.93-.96.42-.04.84-.09 1.26-.12.42-.02.84-.05 1.27-.05l1.28-.04c.43 0 .86 0 1.28.04-.42-.06-.84-.15-1.27-.23-.42-.07-.85-.12-1.28-.18-.43-.03-.86-.04-1.29-.06-.43-.01-.86 0-1.3 0-1.73.1-3.45.37-5.13.82-1.66.51-3.26 1.18-4.75 2.02-.74.44-1.45.92-2.12 1.44-.33.26-.65.54-.97.82-.31.29-.6.59-.9.88l1.03-.74c.36-.22.7-.46 1.06-.68zm7.98-5.41c-.26 0-.52.03-.78.06-.52.08-1.03.19-1.53.31-.51.12-1.01.27-1.5.44-.97.4-1.9.88-2.78 1.43-.44.29-.85.61-1.24.95-.19.18-.39.35-.57.53l-.53.57.66-.4.66-.38c.44-.25.89-.49 1.34-.71.88-.48 1.81-.88 2.75-1.21.46-.2.93-.37 1.41-.53.47-.17.96-.3 1.45-.41.49-.13.98-.27 1.48-.35.5-.11 1.01-.2 1.52-.2-.51-.04-1.03-.12-1.55-.13-.26 0-.52.01-.78.02zm-6.36-3.45c.62-.13 1.24-.27 1.86-.43 1.2-.38 2.37-.81 3.49-1.29.55-.26 1.09-.53 1.6-.82s1-.61 1.45-.95c-.59.21-1.16.42-1.73.63-.57.2-1.14.41-1.71.6-1.12.41-2.28.77-3.46 1.07-.57.18-1.15.35-1.74.5s-1.18.29-1.78.42c-.6.14-1.2.28-1.8.41-.6.14-1.22.29-1.84.38.31 0 .62-.01.94 0h.95c.63-.06 1.26-.11 1.9-.19.63-.1 1.25-.21 1.88-.34zm63.89 3.04c.56-.07 1.15-.11 1.74-.11a8 8 0 0 1 .86-.04c.3 0 .6.01.92.04.31.01.63.04.97.09.33.04.69.1 1.05.19-.36-.16-.73-.33-1.11-.47-.38-.12-.77-.24-1.14-.32-.37-.07-.74-.12-1.08-.14-.35-.03-.69-.03-1.01-.03-.61.06-1.15.18-1.67.31-.25.08-.48.16-.7.27-.23.09-.42.21-.62.32.3-.02.62-.03.91-.06.31-.02.59-.05.89-.07zm15.55 6.87c-.42-.29-.83-.59-1.26-.86-1.73-1.09-3.56-2.06-5.54-2.74-1-.3-2.02-.53-3.05-.7-1.03-.16-2.06-.28-3.09-.37-1.02-.08-2.07-.11-3.06-.2-.48-.05-.97-.17-1.34-.47-.38-.29-.56-.8-.47-1.28-.13.46-.05 1.02.32 1.41.36.4.9.6 1.42.72 1.04.17 2.05.28 3.06.44 1.02.12 2.02.27 3.02.45.99.19 1.97.45 2.91.76 1.91.59 3.73 1.48 5.46 2.5.44.24.87.51 1.31.76s.86.52 1.29.79l2.58 1.61c-.76-.66-1.53-1.32-2.34-1.92-.4-.31-.8-.62-1.22-.9" opacity=".76"/><path fill="#000" d="M203.38 92.8a18 18 0 0 0-1.94-1.55c-1.38-.93-2.87-1.69-4.42-2.29-1.57-.54-3.2-.91-4.85-1.11-.41-.03-.83-.07-1.24-.08-.41 0-.83-.02-1.24-.01-.41.04-.83.06-1.23.11-.41.06-.82.13-1.22.16.41-.01.82.02 1.23.03l1.22.11c.4.03.81.08 1.21.13s.8.13 1.2.19c1.59.25 3.16.66 4.66 1.24 1.52.51 2.99 1.2 4.37 2.03.7.4 1.37.85 2.03 1.32.33.24.64.5.97.74l.94.79c-.27-.31-.53-.63-.81-.93-.29-.29-.57-.59-.88-.87zm-5.92-4.3c.46.17.92.36 1.36.56s.88.41 1.31.63c.88.41 1.73.85 2.54 1.35.41.24.82.49 1.22.74l.6.39.59.4-.44-.48c-.15-.16-.32-.31-.48-.47-.34-.3-.7-.6-1.09-.88-.79-.54-1.64-1.04-2.53-1.5-.46-.21-.93-.41-1.41-.59s-.97-.35-1.46-.51c-.25-.07-.5-.14-.76-.2-.25-.06-.51-.12-.76-.17-.51-.1-1.03-.15-1.53-.23.5.11.99.26 1.46.44.48.15.94.34 1.4.52zm1.63-5.31c.81.33 1.65.61 2.5.83.43.08.87.14 1.31.19.44.04.88.08 1.31.09.44 0 .88-.03 1.31-.07l.65-.11c.22-.05.43-.08.64-.12-.43-.01-.87-.08-1.29-.14-.43-.04-.85-.11-1.27-.17a17 17 0 0 1-2.5-.47c-.83-.15-1.65-.36-2.46-.62-.41-.12-.81-.25-1.22-.38s-.82-.27-1.24-.4q.51.42 1.08.75c.38.22.77.42 1.17.61zM45.55 121.52l-.97-1.25-1.01-1.21c-.69-.8-1.41-1.57-2.17-2.32a27.3 27.3 0 0 0-5.12-3.75l-.7-.38-.72-.34c-.47-.24-.96-.43-1.45-.63-.98-.4-1.98-.73-2.98-1.02.95.45 1.9.89 2.82 1.37.46.25.93.48 1.37.74l.68.39.66.42a26 26 0 0 1 4.86 3.82c.76.7 1.48 1.44 2.19 2.2l1.03 1.17 1 1.2c.66.8 1.34 1.6 1.97 2.43.68.8 1.31 1.63 1.95 2.47-.56-.89-1.08-1.8-1.63-2.69-.57-.88-1.16-1.75-1.78-2.61zm-.3-4.35c.62.57 1.22 1.18 1.77 1.83.28.32.55.65.8 1 .26.34.51.68.76 1.04q.39.51.75 1.05c.25.35.49.71.73 1.07.5.7.99 1.42 1.46 2.15-.39-.78-.74-1.57-1.13-2.35-.19-.39-.41-.77-.62-1.15s-.42-.76-.66-1.13-.48-.73-.74-1.09c-.25-.36-.52-.71-.79-1.05-.54-.69-1.15-1.34-1.78-1.96-1.32-1.18-2.78-2.16-4.23-3.1-1.48-.91-2.99-1.77-4.5-2.61 1.38 1.06 2.78 2.08 4.17 3.11 1.41 1 2.78 2.03 4 3.21z" opacity=".76"/><path fill="#000" d="M52.31 129.28a7 7 0 0 1-.51-.8c-.16-.27-.31-.55-.46-.83-.63-1.11-1.1-2.26-1.72-3.41-.29-.58-.66-1.11-.99-1.66-.36-.53-.73-1.06-1.12-1.57-.4-.5-.79-1.02-1.22-1.5l-.64-.73-.66-.7c-1.82-1.82-3.85-3.42-5.97-4.84a35 35 0 0 0-3.32-1.93c-1.14-.58-2.32-1.08-3.52-1.51 1.15.56 2.26 1.16 3.34 1.82 1.08.67 2.14 1.36 3.15 2.11 2.06 1.47 3.99 3.11 5.72 4.93l.67.67.64.7c.43.46.82.95 1.22 1.43.39.49.76 1 1.13 1.51.34.53.71 1.04 1.01 1.59.33.53.64 1.09.95 1.64.33.55.65 1.1 1 1.64.18.27.36.53.56.79.09.13.2.25.3.38s.2.25.31.37c.41.48.94.94 1.59 1.01-.65-.11-1.11-.61-1.47-1.11zm2.41-.2c-.18-.13-.34-.26-.5-.41s-.31-.3-.45-.47c-.32-.3-.63-.63-.91-.98-.15-.17-.3-.34-.46-.51-.15-.17-.32-.34-.48-.51.08.22.16.44.26.65.09.22.2.43.31.63.25.4.51.79.82 1.16.17.17.36.33.55.47.19.15.4.28.62.39.22.1.46.17.69.22.24.04.48.04.71.04a3 3 0 0 1-.61-.31c-.19-.11-.38-.24-.54-.38zm234.96-15.05-.75.25-.74.29c-1.96.8-3.83 1.85-5.55 3.08-.84.64-1.65 1.32-2.44 2.03l-1.16 1.08-1.12 1.11c-.71.77-1.41 1.56-2.09 2.36-.66.82-1.29 1.66-1.96 2.46.73-.75 1.46-1.5 2.24-2.2.73-.75 1.51-1.45 2.26-2.16l1.14-1.06 1.17-1.03c.79-.67 1.61-1.31 2.45-1.91 1.64-1.26 3.42-2.33 5.3-3.18l.7-.33.72-.3c.48-.21.97-.38 1.45-.57.98-.36 1.97-.68 2.97-1.01-1.04.17-2.07.37-3.09.64-.51.14-1.02.27-1.52.45zm-11.4 2.89c-.7.53-1.38 1.1-2.01 1.72-.32.31-.63.62-.92.95q-.45.48-.87.99c-.28.34-.54.69-.79 1.04-.26.35-.52.7-.76 1.06-.48.72-.93 1.47-1.42 2.19.56-.67 1.13-1.32 1.72-1.95.29-.32.57-.65.86-.97s.58-.64.88-.94c.29-.32.58-.64.88-.93.29-.31.61-.6.92-.89.62-.58 1.29-1.1 1.99-1.59 1.36-1.02 2.85-1.87 4.38-2.68 1.51-.84 3.03-1.68 4.53-2.56-1.61.65-3.21 1.31-4.8 2.03-1.56.75-3.13 1.55-4.59 2.55z" opacity=".76"/><path fill="#000" d="m278.9 118.53-.75.61-.72.64c-.49.42-.94.88-1.4 1.33-.45.46-.88.94-1.31 1.42-.4.51-.83.99-1.19 1.52-.76 1.06-1.37 2.14-2.13 3.16-.18.26-.37.52-.56.76-.19.25-.38.51-.6.73-.42.45-.94.89-1.6.92.65 0 1.23-.38 1.71-.8.12-.1.24-.21.35-.33.12-.11.24-.22.35-.33.22-.23.44-.47.65-.71.42-.49.8-1 1.2-1.5.38-.52.76-1.03 1.15-1.51.36-.51.8-.97 1.2-1.45.43-.46.86-.92 1.31-1.35.46-.43.91-.87 1.39-1.27l.72-.61.74-.58c1.95-1.59 4.07-2.98 6.29-4.18 1.1-.62 2.24-1.17 3.39-1.7 1.16-.52 2.34-.98 3.55-1.39-1.24.28-2.48.62-3.68 1.06-1.2.43-2.39.93-3.54 1.5-2.29 1.15-4.5 2.48-6.53 4.06zm-9.56 9.43c.36-.32.67-.68.96-1.05.14-.19.27-.38.39-.59.12-.2.23-.41.34-.62-.18.15-.37.29-.54.45-.18.15-.35.3-.52.45-.33.31-.67.6-1.03.86-.16.15-.33.29-.51.41-.18.13-.36.24-.55.34-.18.12-.38.22-.59.31-.2.1-.42.18-.65.23.23.03.47.05.71.05.24-.03.48-.06.72-.14.23-.08.45-.19.66-.31s.41-.25.61-.4zM164.26 21.2c1.26 0 2.53-.02 3.79.04 2.53.06 5.06.21 7.58.43 1.26.12 2.52.22 3.78.36l3.77.49 3.76.59 3.73.75-3.69-.97-3.73-.81-3.77-.62c-1.26-.19-2.52-.32-3.79-.49-2.53-.25-5.07-.44-7.62-.53-1.27-.08-2.55-.07-3.82-.09-1.27-.03-2.55 0-3.82.03-5.09.19-10.17.68-15.19 1.57l-1.88.35-1.86.43c-.62.15-1.24.28-1.86.44l-1.84.52c-1.23.32-2.43.77-3.63 1.18-.61.19-1.19.45-1.78.7l-1.76.74c2.39-.87 4.8-1.65 7.27-2.23l1.85-.44c.62-.14 1.24-.24 1.86-.37l1.86-.36 1.88-.29c4.99-.81 10.05-1.22 15.1-1.34 1.26-.04 2.53-.09 3.79-.08z" opacity=".76"/><path fill="#000" d="M187.24 24.39c-1.03-.24-2.07-.46-3.11-.69-1.04-.2-2.09-.37-3.14-.56-1.05-.17-2.1-.31-3.15-.47-1.05-.15-2.11-.25-3.16-.38-1.06-.12-2.12-.19-3.17-.29-4.24-.25-8.5-.27-12.74-.05-1.06.06-2.12.16-3.17.24-1.06.09-2.11.22-3.16.34-1.05.13-2.1.29-3.15.45l-3.13.55 3.16-.33 3.16-.25 3.16-.19c1.06-.04 2.11-.09 3.16-.12 4.22-.14 8.44-.05 12.65.27 1.05.08 2.1.14 3.15.24 1.05.11 2.1.2 3.15.33 1.04.14 2.09.26 3.14.42 1.04.17 2.08.32 3.12.51s2.08.36 3.11.56l3.1.66 3.09.71 3.07.81-3.01-1.02-3.04-.93-3.08-.79zm-50.27-1.46 2.03-.4 2.04-.36c2.72-.49 5.45-.88 8.19-1.21 1.37-.2 2.74-.37 4.11-.54l2.06-.23 2.06-.19c1.37-.14 2.75-.26 4.13-.34 1.38-.09 2.76-.2 4.14-.11-1.37-.21-2.76-.26-4.15-.31-1.39 0-2.78.04-4.16.1l-2.08.15-2.07.18c-1.38.14-2.76.28-4.14.45-2.75.4-5.48.87-8.2 1.43l-2.03.47-2.01.53c-.67.19-1.33.4-1.99.61-.66.22-1.31.47-1.96.7l2.02-.49 2.03-.44zM186.61 21c-1.04-.26-2.09-.48-3.14-.69-1.05-.2-2.11-.38-3.18-.53-2.13-.23-4.27-.36-6.41-.44-2.14-.05-4.27-.03-6.41.03 2.12.25 4.25.45 6.37.65 2.12.17 4.24.36 6.33.65 1.05.12 2.1.25 3.15.42s2.09.36 3.13.58c1.04.19 2.08.41 3.12.65 1.05.2 2.09.43 3.13.66-1-.37-2-.74-3.02-1.09-1.02-.32-2.05-.62-3.08-.9zM132.34 5.58c1.3.31 2.61.58 3.92.8 1.33.16 2.65.28 3.97.38l1.99.08c.67 0 1.34-.03 2 0-.65-.11-1.3-.28-1.96-.42l-1.96-.33c-1.31-.17-2.62-.35-3.92-.57a58 58 0 0 1-3.91-.58l-3.92-.66c.62.25 1.24.5 1.87.72.63.21 1.27.41 1.92.58m18.97 2.39c1.94.19 3.88.33 5.83.44.98.02 1.95.03 2.93.02.98 0 1.95-.02 2.93-.06.98-.06 1.95-.14 2.92-.23.97-.12 1.94-.27 2.9-.41-.98.01-1.95.01-2.92 0-.97 0-1.94 0-2.91-.02-.97 0-1.94 0-2.91-.03-.97-.02-1.94-.06-2.91-.11-1.94-.03-3.88-.12-5.82-.21l-2.92-.1-2.92-.04 2.89.41c.97.13 1.93.24 2.9.35zm22.18-.02c1.11.04 2.23.04 3.34.03 2.23-.05 4.45-.18 6.68-.37 1.11-.13 2.21-.28 3.32-.44 1.1-.16 2.2-.35 3.3-.55 1.09-.23 2.18-.47 3.26-.73l1.61-.45 1.6-.46c-1.09.21-2.19.37-3.29.53-1.1.18-2.19.34-3.29.48-1.1.16-2.19.3-3.29.44-1.1.13-2.2.24-3.3.34-2.2.26-4.41.44-6.62.58l-3.32.23-3.33.21c.56.02 1.11.07 1.67.1l1.67.07zm144.16 57.33c-.22.12-.45.24-.68.35v.14c.23-.12.45-.27.68-.4zm.89 11.94s.03.08.04.12c.1-.1.2-.19.31-.27 0-.05-.02-.09-.03-.14-.1.1-.21.19-.32.29" opacity=".76"/><path fill="#000" d="M316.94 68.94c.08.98.19 1.95.34 2.92s.34 1.93.55 2.88c.13.47.24.95.38 1.41.12.35.22.71.33 1.06.11-.09.22-.19.32-.29-.06-.29-.12-.59-.17-.89l-.26-1.43-.25-1.42c-.06-.48-.14-.95-.2-1.43-.12-.96-.2-1.91-.25-2.87-.1-1.17-.1-2.34-.08-3.52-.23.13-.45.28-.68.4-.05 1.06-.08 2.11-.03 3.17zm-.27 9.61c.2-.09.4-.17.6-.26 0-.05-.02-.09-.03-.14-.19.12-.39.22-.59.33 0 .02 0 .04.01.07zm-.64-12.41c-.17.12-.35.21-.55.28v.01c.18-.08.37-.15.55-.23z" opacity=".76"/><path fill="#000" d="M315.62 72.65c.11 1.02.27 2.04.45 3.05.17.93.37 1.86.59 2.78.2-.11.4-.21.59-.33-.18-.85-.34-1.71-.47-2.57-.16-1-.28-2.01-.37-3.02-.25-2.01-.37-4.04-.38-6.07v-.3c-.18.08-.36.15-.55.23v.06c-.08 2.05-.03 4.11.14 6.16zm-2.6 7.3.02.13h.04c.1 0 .2-.04.29-.06.15-.05.3-.1.45-.16v-.13c-.1.03-.19.07-.29.1-.17.05-.35.08-.52.13z" opacity=".76"/><path fill="#000" d="M313.37 76.8c-.18-.88-.38-1.77-.63-2.64-.04.91-.03 1.82 0 2.72l.21 2.69.06.39c.17-.04.35-.07.52-.13.09-.03.18-.07.28-.1l-.02-.26zM7.02 63.33l.09.06a.6.6 0 0 1-.09-.07zM5.83 77.1c.14.02.25.07.35.14 0-.03.02-.06.03-.09-.12-.06-.23-.14-.34-.21l-.03.16z" opacity=".76"/><path fill="#000" d="M6.89 74.74c.21-.95.4-1.91.55-2.88s.26-1.94.34-2.92c.08-1.72.03-3.44-.14-5.14-.19-.13-.37-.26-.54-.4l-.09-.06c.14 1.85.13 3.71-.03 5.55-.05.96-.14 1.92-.25 2.87-.06.48-.14.95-.2 1.43l-.25 1.42-.26 1.43c-.05.3-.11.6-.17.89.12.07.22.14.34.21.1-.33.2-.66.31-.99.14-.47.25-.94.38-1.41zm.64 3.07h.05c.15.08.31.13.47.15.05 0 .07.03.11.05 0-.02 0-.03.01-.05-.21-.07-.43-.13-.63-.21 0 .02 0 .04-.01.06" opacity=".76"/><path fill="#000" d="M9.1 72.65c.17-2.05.22-4.11.14-6.16-.03-.65-.1-1.29-.16-1.93-.13-.05-.26-.11-.4-.18.01.71.02 1.41.01 2.12-.02 2.03-.13 4.06-.38 6.07-.09 1.01-.21 2.01-.37 3.02-.11.73-.25 1.45-.4 2.17.2.08.42.14.63.21.17-.75.35-1.5.48-2.26.18-1.01.33-2.03.45-3.05zm2.67 6.14-.12-.03zm-.84-.12h.13c-.04 0-.08-.01-.13-.02z" opacity=".76"/><path fill="#000" d="M11.98 74.15c-.25.74-.45 1.49-.63 2.24l-.4 2.14-.02.12s.08.01.13.02c.07 0 .14.02.22.02.13 0 .25.04.37.07.04 0 .08.01.12.02l.21-2.32c.04-.76.04-1.53 0-2.3zM299.7 52.09c.02.13.02.27-.01.4.06.04.13.07.19.11-.06-.17-.11-.33-.17-.5h-.01zm1.72 1.17.5.12.5.09c.68.03 1.36-.01 2.03-.14.33-.08.65-.19.96-.32s.6-.3.88-.49l-.49.07c-.16.01-.32.03-.48.05l-.48.04-.47.02c-.62.05-1.25.03-1.86-.07-.31-.02-.62-.05-.92-.1l-.46-.09-.45-.11-.46-.11c-.15-.05-.3-.09-.46-.13-.01 0-.02 0-.03-.01.05.17.11.34.17.5.19.12.38.23.58.34.31.13.63.23.96.33zm1.46 1.32c.26.05.52.09.78.11-.26-.03-.52-.06-.78-.11m2.96-.72c.24-.04.49-.06.74-.11-.25.05-.5.08-.74.11-.25.03-.49.05-.73.06.24 0 .48-.03.73-.06" opacity=".76"/><path fill="#000" d="M305.93 54.17c.23-.12.44-.27.65-.42-.25.05-.5.08-.74.11-.25.03-.49.05-.73.06-.47.05-.95.05-1.42 0-.23 0-.47 0-.71-.03-.23-.03-.47-.05-.7-.1l-.36-.05c-.12-.02-.24-.05-.36-.06-.25-.02-.5-.08-.74-.15l.61.48c.22.14.46.25.7.36l.37.12.38.09c.26.05.52.09.78.11.53-.01 1.05-.09 1.55-.22q.375-.135.72-.3" opacity=".76"/></svg>